<?xml version="1.0" encoding="utf-8"?>
<!-- Generator: Adobe Illustrator 28.4.1, SVG Export Plug-In . SVG Version: 6.00 Build 0)  -->
<svg version="1.1" id="Layer_1" xmlns="http://www.w3.org/2000/svg" xmlns:xlink="http://www.w3.org/1999/xlink" x="0px" y="0px"
	 viewBox="0 0 263.1 179.1" style="enable-background:new 0 0 263.1 179.1;" xml:space="preserve">
<style type="text/css">
	.st0{fill-rule:evenodd;clip-rule:evenodd;fill:#2C328C;}
	.st1{fill-rule:evenodd;clip-rule:evenodd;fill:#FFF200;}
	.st2{fill-rule:evenodd;clip-rule:evenodd;fill:#ED1C24;}
	.st3{fill:#2C328C;stroke:#2C328C;stroke-width:0.216;stroke-miterlimit:22.9256;}
</style>
<g>
	<path class="st0" d="M0,3.4h260.3l0.3,81.1C229.1,72.5,129.2,43.9,0,79.6V3.4z"/>
	<path class="st1" d="M0,175.4h260.3v-64.9C213.3,94.8,129.9,71.3,0,104.6V175.4z"/>
	<path class="st2" d="M260.3,110.5C213.3,94.8,129.9,71.3,0,104.6V79.6c129.2-35.6,229.1-7,260.5,4.9L260.3,110.5z"/>
	<path class="st1" d="M82.9,64.3c6.4-17.8,21.2-33.2,46.8-33c25.6,0.2,42.7,14.8,47.3,33.9C144,61.8,122,61.2,82.9,64.3z"/>
	<path class="st3" d="M58.1,142.5l17.4-26H82l18.6,26h-6.8l-5.3-7.9h-19l-5,7.9H58.1L58.1,142.5z M71.2,131.9h15.4l-4.7-7.2
		c-1.4-2.2-2.5-4-3.2-5.4c-0.6,1.7-1.4,3.3-2.5,5L71.2,131.9L71.2,131.9z M131.1,142.5v-2.8c-2.6,2.1-6,3.2-10.4,3.2
		c-1.9,0-3.8-0.2-5.4-0.6c-1.7-0.4-2.9-1-3.7-1.6c-0.8-0.6-1.4-1.4-1.7-2.4c-0.2-0.6-0.3-1.6-0.3-3v-11.7h5.6v10.4
		c0,1.7,0.1,2.8,0.3,3.4c0.4,0.8,1.1,1.5,2.2,2c1.1,0.5,2.5,0.7,4.2,0.7c1.7,0,3.2-0.2,4.7-0.7c1.5-0.5,2.5-1.2,3.1-2
		c0.6-0.8,0.9-2.1,0.9-3.7v-10.1h5.6v18.8H131.1L131.1,142.5z M149.6,142.5v-18.8h5v2.8c1.3-1.3,2.5-2.2,3.6-2.6
		c1.1-0.4,2.3-0.6,3.6-0.6c1.9,0,3.8,0.3,5.7,1l-1.9,3c-1.4-0.5-2.7-0.7-4.1-0.7c-1.2,0-2.3,0.2-3.3,0.6c-1,0.4-1.7,1-2.1,1.7
		c-0.6,1.1-0.9,2.4-0.9,3.7v9.8H149.6L149.6,142.5z M197.1,140.2c-2.1,1-4.1,1.7-6,2.1c-1.9,0.4-4,0.6-6.1,0.6
		c-3.6,0-6.4-0.5-8.3-1.5c-1.9-1-2.9-2.3-2.9-3.9c0-0.9,0.4-1.8,1.1-2.5c0.7-0.8,1.7-1.4,2.9-1.8c1.2-0.5,2.5-0.8,4-1
		c1.1-0.2,2.7-0.3,4.9-0.5c4.5-0.3,7.8-0.7,9.9-1.1c0-0.4,0-0.7,0-0.8c0-1.3-0.5-2.2-1.6-2.7c-1.4-0.7-3.5-1.1-6.3-1.1
		c-2.6,0-4.6,0.3-5.8,0.8c-1.2,0.5-2.2,1.5-2.8,2.8l-5.4-0.4c0.5-1.3,1.3-2.4,2.4-3.2c1.1-0.8,2.8-1.5,4.9-1.9
		c2.1-0.4,4.6-0.7,7.5-0.7c2.8,0,5.1,0.2,6.8,0.6c1.8,0.4,3,0.9,3.9,1.4c0.8,0.6,1.4,1.3,1.7,2.2c0.2,0.5,0.3,1.5,0.3,2.9v4.3
		c0,3,0.1,4.8,0.4,5.6c0.2,0.8,0.7,1.5,1.4,2.3h-5.8C197.6,141.9,197.2,141.1,197.1,140.2L197.1,140.2z M196.6,133.1
		c-2,0.5-5.1,0.9-9.1,1.2c-2.3,0.2-3.9,0.4-4.9,0.6c-1,0.2-1.7,0.6-2.2,1c-0.5,0.5-0.8,1-0.8,1.5c0,0.9,0.6,1.6,1.7,2.1
		c1.1,0.6,2.8,0.8,4.9,0.8c2.1,0,4.1-0.3,5.7-0.8c1.7-0.5,2.9-1.3,3.7-2.2c0.6-0.7,0.9-1.8,0.9-3.2V133.1z"/>
</g>
</svg>
