<?xml version="1.0" encoding="utf-8"?>
<!-- Generator: Adobe Illustrator 25.2.1, SVG Export Plug-In . SVG Version: 6.00 Build 0)  -->
<svg version="1.1" id="Camada_1" xmlns="http://www.w3.org/2000/svg" xmlns:xlink="http://www.w3.org/1999/xlink" x="0px" y="0px"
	 viewBox="0 0 1024 293" style="enable-background:new 0 0 1024 293;" xml:space="preserve">
<style type="text/css">
	.st0{clip-path:url(#SVGID_2_);fill:#000051;}
	.st1{clip-path:url(#SVGID_2_);fill:#0788FE;}
	.st2{clip-path:url(#SVGID_2_);fill:#A06FFE;}
	.st3{clip-path:url(#SVGID_2_);fill:#00D9CB;}
</style>
<g>
	<defs>
		<rect id="SVGID_1_" x="56.4" y="70.1" width="911.6" height="171"/>
	</defs>
	<clipPath id="SVGID_2_">
		<use xlink:href="#SVGID_1_"  style="overflow:visible;"/>
	</clipPath>
	<path class="st0" d="M332.2,126.4c-12.8,0-24.3,5.1-32.3,14.1V94.8c0-1.8-1.4-3.2-3.2-3.2h-9.4c-1.8,0-3.2,1.5-3.2,3.2v119.6
		c0,1.8,1.4,3.2,3.2,3.2h9.4c1.8,0,3.2-1.5,3.2-3.2v-8.9c8,9,19.5,14.1,32.3,14.1c25.8,0,45.2-20,45.2-46.6
		C377.5,146.4,358,126.4,332.2,126.4 M330.6,142c17.5,0,30.7,13.3,30.7,31c0,17.7-13.2,31-30.7,31c-17.5,0-30.7-13.3-30.7-31
		C299.9,155.3,313.1,142,330.6,142"/>
	<path class="st0" d="M488.1,128.4h-9.4c-1.8,0-3.2,1.5-3.2,3.2v8.9c-8-9-19.5-14.1-32.3-14.1c-25.7,0-45.1,20-45.1,46.6
		c0,26.6,19.4,46.6,45.1,46.6c12.8,0,24.3-5.1,32.3-14.1v8.9c0,1.8,1.4,3.2,3.2,3.2h9.4c1.8,0,3.2-1.5,3.2-3.2v-82.8
		C491.3,129.8,489.9,128.4,488.1,128.4 M444.8,204c-17.4,0-30.5-13.3-30.5-31c0-17.7,13.1-31,30.5-31c17.5,0,30.7,13.3,30.7,31
		C475.5,190.7,462.3,204,444.8,204"/>
	<path class="st0" d="M567.1,126.4c-11.8,0-21.7,3.9-28.8,11v-5.8c0-1.8-1.4-3.2-3.2-3.2h-9.4c-1.8,0-3.2,1.5-3.2,3.2v82.8
		c0,1.8,1.4,3.2,3.2,3.2h9.4c1.8,0,3.2-1.5,3.2-3.2v-47.1c0-15.4,10.2-25.3,26-25.3c15,0,24.7,9.8,24.7,25v47.4
		c0,1.8,1.4,3.2,3.2,3.2h9.4c1.8,0,3.2-1.5,3.2-3.2v-50.2C604.9,141.6,589.7,126.4,567.1,126.4"/>
	<path class="st0" d="M681.1,128.7h-2.4c-11.1,0-20.8,4.1-27.8,11.7v-8.7c0-1.8-1.4-3.2-3.2-3.2h-9.4c-1.8,0-3.2,1.5-3.2,3.2v82.8
		c0,1.8,1.4,3.2,3.2,3.2h9.4c1.8,0,3.2-1.5,3.2-3.2v-41.1c0-17.5,10.6-28.4,27.8-28.4h2.4c1.8,0,3.2-1.5,3.2-3.2v-9.7
		C684.4,130.1,682.9,128.7,681.1,128.7"/>
	<path class="st0" d="M718.9,128.4h-9.4c-1.8,0-3.2,1.5-3.2,3.2v82.8c0,1.8,1.4,3.2,3.2,3.2h9.4c1.8,0,3.2-1.5,3.2-3.2v-82.8
		C722.2,129.8,720.7,128.4,718.9,128.4"/>
	<path class="st0" d="M714.2,95.4c-5.5,0-10,4.4-10,9.9c0,5.6,4.4,10.1,10,10.1c5.7,0,10.2-4.4,10.2-10.1
		C724.4,99.8,720,95.4,714.2,95.4"/>
	<path class="st0" d="M786.9,165.1c-12.5-3-20.8-5.5-20.8-12.9c0-7,8.8-10.7,17.4-10.7c8.3,0,16.1,3.2,21.2,8.9
		c0.6,0.7,1.6,1.1,2.5,1c1,0,1.8-0.5,2.4-1.3l5.3-7c1-1.3,0.9-3.1-0.3-4.3c-8-8-19.1-12.5-31.4-12.5c-19.7,0-33.4,10.9-33.4,26.5
		c0,19,17.6,23.5,31.9,27.2c12.3,3,20.3,5.5,20.3,12.8c0,6.9-8,11.7-19.4,11.7c-10,0-18.7-3.6-24.6-10.3c-0.6-0.7-1.6-1.1-2.5-1.1
		c-1,0-1.9,0.5-2.4,1.2l-5.3,6.8c-1,1.3-0.9,3.1,0.2,4.3c8.6,9,21.3,14.2,34.8,14.2c21.2,0,35.4-11.2,35.4-27.8
		C818.3,172.9,800.1,168.4,786.9,165.1"/>
	<path class="st0" d="M918.6,128.4h-9.4c-1.8,0-3.2,1.5-3.2,3.2v48.9c0,14.3-9.3,23.5-23.7,23.5c-14.5,0-23.9-9.2-23.9-23.5v-48.9
		c0-1.8-1.4-3.2-3.2-3.2h-9.4c-1.8,0-3.2,1.5-3.2,3.2v50.2c0,22.6,16,37.8,39.7,37.8c23.7,0,39.6-15.2,39.6-37.8v-50.2
		C921.8,129.8,920.4,128.4,918.6,128.4"/>
	<path class="st0" d="M964.8,91.5h-9.4c-1.8,0-3.2,1.5-3.2,3.2v119.6c0,1.8,1.4,3.2,3.2,3.2h9.4c1.8,0,3.2-1.5,3.2-3.2V94.8
		C968,93,966.6,91.5,964.8,91.5"/>
	<path class="st1" d="M202.6,113.5l-21.5-37.5c-2.1-3.7-6.1-6-10.3-6h-43c-4.3,0-8.2,2.3-10.3,6l-21.5,37.5c-2.1,3.7-2.1,8.3,0,12
		l21.5,37.5c2.1,3.7,6.1,6,10.3,6h15.6l5.9-10.3h-21.5c-0.6,0-1.2-0.3-1.5-0.9l-21.5-37.5c-0.3-0.5-0.3-1.2,0-1.7l21.5-37.5
		c0.3-0.5,0.9-0.9,1.5-0.9h43c0.6,0,1.2,0.3,1.5,0.9l21.5,37.5c0.3,0.5,0.3,1.2,0,1.7l-12.5,21.8h11.8l9.6-16.6
		C204.8,121.8,204.8,117.2,202.6,113.5"/>
	<path class="st2" d="M164.7,185.6l-9.6-16.6h-11.8l12.5,21.8c0.3,0.5,0.3,1.2,0,1.7l-21.5,37.5c-0.3,0.5-0.9,0.9-1.5,0.9h-43
		c-0.6,0-1.2-0.3-1.5-0.9l-21.5-37.5c-0.3-0.5-0.3-1.2,0-1.7l21.5-37.5c0.3-0.5,0.9-0.9,1.5-0.9h21.5l-5.9-10.3H89.9
		c-4.3,0-8.2,2.3-10.3,6L58,185.6c-2.1,3.7-2.1,8.3,0,12l21.5,37.5c2.1,3.7,6.1,6,10.3,6h43c4.3,0,8.2-2.3,10.3-6l21.5-37.5
		C166.9,193.9,166.9,189.3,164.7,185.6"/>
	<path class="st3" d="M240.5,185.6L219,148.2c-2.1-3.7-6.1-6-10.3-6h-43c-4.3,0-8.2,2.3-10.3,6l-12,20.8h11.8l9-15.7
		c0.3-0.5,0.9-0.9,1.5-0.9h43c0.6,0,1.2,0.3,1.5,0.9l21.5,37.5c0.3,0.5,0.3,1.2,0,1.7l-21.5,37.5c-0.3,0.5-0.9,0.9-1.5,0.9h-43
		c-0.6,0-1.2-0.3-1.5-0.9l-9-15.6l-5.9,10.3l6.1,10.5c2.1,3.7,6.1,6,10.3,6h43c4.3,0,8.2-2.3,10.3-6l21.5-37.5
		C242.7,193.9,242.7,189.3,240.5,185.6"/>
</g>
</svg>
