<?xml version="1.0" encoding="utf-8"?>
<!-- Generator: Adobe Illustrator 28.4.1, SVG Export Plug-In . SVG Version: 6.00 Build 0)  -->
<svg version="1.1" id="Layer_1" xmlns="http://www.w3.org/2000/svg" xmlns:xlink="http://www.w3.org/1999/xlink" x="0px" y="0px"
	 viewBox="0 0 349.5 151.5" style="enable-background:new 0 0 349.5 151.5;" xml:space="preserve">
<style type="text/css">
	.st0{fill-rule:evenodd;clip-rule:evenodd;fill:#9A1915;}
	.st1{fill-rule:evenodd;clip-rule:evenodd;fill:#FFFFFF;}
	.st2{fill-rule:evenodd;clip-rule:evenodd;fill:#2A6CB4;}
	.st3{fill-rule:evenodd;clip-rule:evenodd;fill:#FFED00;}
	.st4{fill-rule:evenodd;clip-rule:evenodd;fill:#312783;}
	.st5{fill:#004A98;}
	.st6{fill:#FFFFFF;}
	.st7{fill-rule:evenodd;clip-rule:evenodd;fill:#080711;stroke:#231F20;stroke-width:0.5669;stroke-miterlimit:22.9256;}
	.st8{fill-rule:evenodd;clip-rule:evenodd;fill:#089CD7;}
	.st9{fill-rule:evenodd;clip-rule:evenodd;fill:#FAEA27;}
	.st10{fill-rule:evenodd;clip-rule:evenodd;fill:#E43513;}
	.st11{fill:#005098;}
	.st12{fill:#F7A600;}
	.st13{fill:#E30D17;}
	.st14{fill:#EB610A;}
	.st15{fill:#F69F00;}
</style>
<g>
	<path id="fundo" class="st0" d="M175.8,87.4c-2.8,0-8.3,0-8.3,0c-3.7,0.2-6.7,1.7-7.5,4.7c-0.5,1.6-0.7,3.3-1.1,5
		c-1.8,8.4-3.4,17-5.1,25.2h64.6c5,0,8.4-1.1,9.4-5c0.4-1.8,0.8-3.9,1.3-6c1.6-7.9,3.2-15.8,4.9-23.9H175.8z"/>
	<path id="hipercard" class="st1" d="M175.1,99.7c0.3-0.2,0.8-1.3,0.3-1.8c-0.2-0.1-0.4-0.2-0.8-0.1c-0.4,0.1-0.6,0.2-0.7,0.4
		c-0.2,0.3-0.4,1.2-0.1,1.5C174.2,100.1,174.9,99.9,175.1,99.7z M170.2,98c-0.2,1.6-0.5,3.2-0.8,4.8c-1.8,0-3.6,0.1-5.4,0
		c0.3-1.5,0.6-3.2,0.9-4.7h-1.9c-0.7,3.9-1.3,8-2.1,11.8h2c0.3-2,0.6-4,1-5.9c1.7,0,3.7-0.1,5.3,0c-0.3,2-0.7,3.8-1.1,5.8h2
		c0.6-4,1.3-8,2.1-11.8H170.2z M198.2,101.4c-1.5-0.6-2.8,0.4-3.3,1.4c0.1-0.4,0.2-1,0.3-1.4h-1.5c-0.4,2.9-0.9,5.7-1.5,8.4h1.7
		c0.2-1.6,0.3-3.9,0.9-5.4c0.4-1.3,1.6-2.3,3.2-1.7C198.1,102.2,198.2,101.8,198.2,101.4z M199.2,107.8c-0.2-0.4-0.2-1.1-0.2-1.6
		c0.1-1.2,0.5-2.6,1.2-3.2c0.9-0.9,2.7-0.7,4.1-0.2c0-0.5,0.1-0.9,0.2-1.4c-2.3-0.4-4.6-0.1-5.8,1.1c-1.2,1.2-1.9,4-1.4,5.8
		c0.6,2.1,3.4,2.2,5.7,1.4c0.1-0.4,0.2-0.9,0.2-1.3C202.1,108.9,199.8,109.2,199.2,107.8z M218.8,101.4c-1.5-0.8-2.8,0.5-3.3,1.3
		c0.1-0.4,0.2-0.9,0.3-1.3h-1.5c-0.4,2.9-0.9,5.7-1.5,8.4h1.8c0-1.1,0.2-1.9,0.4-3c0.4-2.3,0.9-4.9,3.6-4.1
		C218.6,102.2,218.7,101.8,218.8,101.4z M173.3,101.4c0,0,0,0.1,0,0.1c-0.4,2.9-0.9,5.6-1.5,8.3h1.7c0.4-2.9,0.9-5.7,1.5-8.4H173.3z
		 M188.6,101.2c-1.3,0.1-2.3,0.5-3.1,1.3c-0.9,1-1.7,3.1-1.5,5.1c0.3,2.8,3.8,2.7,6.6,2c0-0.5,0.2-0.9,0.2-1.4
		c-1.2,0.4-3.1,1-4.3,0.3c-0.9-0.6-0.9-2-0.6-3.2c1.9-0.1,3.8,0,5.7,0c0.1-0.9,0.5-1.8,0.2-2.7C191.5,101.4,190.1,101.1,188.6,101.2
		z M190.3,104.3h-4.1c0.1-0.9,1-2,2.3-2C189.8,102.2,190.7,102.7,190.3,104.3z M182,101.4c-1.5-0.6-3.3,0.1-4,0.7c0,0,0,0,0,0
		c0,0,0,0,0,0c0,0,0,0,0,0c0-0.3,0.1-0.5,0.1-0.7h-1.5c-0.6,4.2-1.4,8.2-2.1,12.2h1.7c0.3-1.6,0.4-3.2,0.8-4.7
		c0.4,1.5,3,1.2,4.1,0.6C183.3,108.3,185.1,102.5,182,101.4z M180.7,108.2c-0.9,1-3.2,1-3.4-0.7c-0.1-0.7,0.2-1.5,0.3-2.2
		c0.1-0.8,0.2-1.5,0.4-2.1c0.9-1.1,3.6-1.3,3.9,0.6C182.1,105.4,181.4,107.4,180.7,108.2z M225.3,97.7c-0.1,1.3-0.3,2.6-0.6,3.8
		c-4.3-1.4-6.9,1.8-6.8,5.7c0,0.8,0.1,1.5,0.6,2c0.8,0.9,3.1,1.1,4.3,0.4c0.2-0.1,0.5-0.4,0.6-0.6c0.1-0.1,0.3-0.5,0.3-0.4
		c-0.1,0.4-0.2,0.8-0.2,1.3h1.6c0.3-4.4,1.2-8.1,1.9-12.1H225.3z M221.4,108.9c-1.2,0-1.8-0.7-1.8-1.9c0-2.1,0.9-4.4,2.8-4.7
		c0.9-0.1,1.5,0.1,2.1,0.3C223.9,105,224.1,108.8,221.4,108.9z M206.3,101.4c-0.1,0.5-0.2,0.9-0.3,1.4c1-0.3,4.2-1,4.5,0.3
		c0.1,0.5-0.1,0.9-0.2,1.3c-2.9-0.3-5.3,0.2-5.9,2.3c-0.4,1.4,0,2.7,0.9,3.1c1.7,0.7,3.8-0.1,4.5-1.3c-0.1,0.4-0.1,0.8-0.1,1.3h1.5
		c0-1.4,0.2-2.6,0.4-3.9c0.2-1.1,0.5-2.2,0.5-3.2C212.1,100.5,208.4,101.3,206.3,101.4z M209.2,108.2c-0.9,0.9-3.4,1.1-3.2-1
		c0.2-1.7,2.1-2.1,4.2-1.9C210,106.3,209.9,107.5,209.2,108.2z"/>
</g>
<g>
	<polygon class="st2" points="62.1,87.1 97.5,87.1 97.5,106.2 97.5,111.4 97.5,122.5 62.1,122.5 62.1,104.5 62.1,102 62.1,87.1 	"/>
	<path class="st1" d="M69,111.8v-5.6h5.9l0.6,0.8l0.7-0.8h21.3v5.2c0,0-0.6,0.4-1.2,0.4H84.5l-0.7-0.9v0.9h-2.3v-1.5
		c0,0-0.3,0.2-1,0.2h-0.8v1.3h-3.5l-0.6-0.8l-0.6,0.8L69,111.8L69,111.8z"/>
	<path class="st1" d="M62.1,102l1.3-3.1h2.3l0.8,1.7v-1.7h2.9l0.4,1.3l0.4-1.3H83v0.6c0,0,0.7-0.6,1.8-0.6l4.2,0l0.7,1.7v-1.7h2.4
		l0.7,1v-1h2.4v5.6h-2.4l-0.6-1v1h-3.5l-0.4-0.9h-0.9l-0.3,0.9h-2.4c-1,0-1.6-0.6-1.6-0.6v0.6h-3.6l-0.7-0.9v0.9H65.4l-0.4-0.9h-0.9
		l-0.3,0.9h-1.6V102L62.1,102z"/>
	<path class="st2" d="M63.9,99.6l-1.8,4.2h1.2l0.3-0.8h1.9l0.3,0.8h1.2l-1.8-4.2H63.9L63.9,99.6z M64.6,100.6l0.6,1.5H64L64.6,100.6
		L64.6,100.6z"/>
	<polygon class="st2" points="67.2,103.8 67.2,99.6 68.9,99.6 69.8,102.3 70.8,99.6 72.4,99.6 72.4,103.8 71.4,103.8 71.4,100.7 
		70.3,103.8 69.3,103.8 68.2,100.7 68.2,103.8 67.2,103.8 	"/>
	<polygon class="st2" points="73.1,103.8 73.1,99.6 76.5,99.6 76.5,100.5 74.2,100.5 74.2,101.2 76.4,101.2 76.4,102.1 74.2,102.1 
		74.2,102.9 76.5,102.9 76.5,103.8 73.1,103.8 	"/>
	<path class="st2" d="M77.1,99.6v4.2h1v-1.5h0.4l1.2,1.5h1.3l-1.4-1.5c0.6,0,1.1-0.5,1.1-1.3c0-0.9-0.7-1.3-1.5-1.3H77.1L77.1,99.6z
		 M78.1,100.5h1.2c0.3,0,0.5,0.2,0.5,0.4c0,0.3-0.3,0.4-0.5,0.4h-1.2L78.1,100.5L78.1,100.5L78.1,100.5z"/>
	<polygon class="st2" points="82.4,103.8 81.3,103.8 81.3,99.6 82.4,99.6 82.4,103.8 	"/>
	<path class="st2" d="M84.9,103.8h-0.2c-1.1,0-1.8-0.9-1.8-2.1c0-1.2,0.7-2.1,2.1-2.1h1.1v1h-1.2c-0.6,0-1,0.4-1,1.1
		c0,0.8,0.5,1.1,1.1,1.1h0.3L84.9,103.8L84.9,103.8z"/>
	<path class="st2" d="M87.1,99.6l-1.8,4.2h1.2l0.3-0.8h1.9l0.3,0.8h1.2l-1.8-4.2H87.1L87.1,99.6z M87.8,100.6l0.6,1.5h-1.2
		L87.8,100.6L87.8,100.6z"/>
	<polygon class="st2" points="90.4,103.8 90.4,99.6 91.7,99.6 93.4,102.2 93.4,99.6 94.4,99.6 94.4,103.8 93.2,103.8 91.4,101.1 
		91.4,103.8 90.4,103.8 	"/>
	<polygon class="st2" points="69.7,111 69.7,106.9 73.1,106.9 73.1,107.8 70.8,107.8 70.8,108.5 73.1,108.5 73.1,109.4 70.8,109.4 
		70.8,110.1 73.1,110.1 73.1,111 69.7,111 	"/>
	<polygon class="st2" points="86.3,111 86.3,106.9 89.7,106.9 89.7,107.8 87.4,107.8 87.4,108.5 89.7,108.5 89.7,109.4 87.4,109.4 
		87.4,110.1 89.7,110.1 89.7,111 86.3,111 	"/>
	<polygon class="st2" points="73.2,111 74.9,109 73.2,106.9 74.5,106.9 75.5,108.2 76.5,106.9 77.8,106.9 76.1,109 77.8,111 
		76.5,111 75.5,109.8 74.5,111 73.2,111 	"/>
	<path class="st2" d="M77.9,106.9v4.2H79v-1.3h1.1c0.9,0,1.6-0.5,1.6-1.4c0-0.8-0.6-1.4-1.5-1.4H77.9L77.9,106.9z M79,107.8h1.2
		c0.3,0,0.5,0.2,0.5,0.5c0,0.3-0.2,0.5-0.5,0.5H79V107.8L79,107.8L79,107.8z"/>
	<path class="st2" d="M82.1,106.9v4.2h1v-1.5h0.4l1.2,1.5h1.3l-1.4-1.5c0.6,0,1.1-0.5,1.1-1.3c0-0.9-0.7-1.3-1.5-1.3L82.1,106.9
		L82.1,106.9L82.1,106.9z M83.2,107.8h1.2c0.3,0,0.5,0.2,0.5,0.4c0,0.3-0.3,0.4-0.5,0.4h-1.2V107.8L83.2,107.8z"/>
	<path class="st2" d="M90.2,111v-0.9h2.1c0.3,0,0.4-0.2,0.4-0.3c0-0.2-0.1-0.4-0.4-0.4h-0.9c-0.8,0-1.3-0.5-1.3-1.2
		c0-0.7,0.4-1.3,1.6-1.3h2l-0.4,0.9h-1.8c-0.3,0-0.4,0.2-0.4,0.3c0,0.2,0.1,0.4,0.4,0.4h1c0.9,0,1.3,0.5,1.3,1.2
		c0,0.7-0.4,1.3-1.4,1.3L90.2,111L90.2,111z"/>
	<path class="st2" d="M94,111v-0.9h2c0.3,0,0.4-0.2,0.4-0.3c0-0.2-0.1-0.4-0.4-0.4h-0.9c-0.8,0-1.3-0.5-1.3-1.2
		c0-0.7,0.4-1.3,1.6-1.3h2l-0.4,0.9h-1.7c-0.3,0-0.4,0.2-0.4,0.3c0,0.2,0.1,0.4,0.4,0.4h0.9c0.9,0,1.3,0.5,1.3,1.2
		c0,0.7-0.4,1.3-1.4,1.3L94,111L94,111z"/>
</g>
<g>
	<polygon class="st3" points="107.7,86.8 143.6,86.8 143.6,122.7 107.7,122.7 107.7,86.8 	"/>
	<polygon class="st4" points="125.6,90 111,99.8 117.1,103.8 124.4,98.9 121.5,97 125.4,94.3 134.1,100 134.1,100 119.9,109.5 
		123,111.5 140.6,99.8 140.5,99.8 125.6,90 	"/>
	<polygon class="st4" points="140.3,90 134.2,94 137.2,96.1 140.3,94 140.3,90 	"/>
	<polygon class="st4" points="110.9,119.6 117,115.5 113.9,113.5 110.9,115.5 110.9,119.6 	"/>
	<polygon class="st4" points="125.6,119.6 140.3,109.7 134.2,105.8 126.9,110.7 129.8,112.6 125.8,115.3 117.2,109.5 117.2,109.5 
		131.4,100.1 128.3,98 110.7,109.7 110.8,109.8 125.6,119.6 	"/>
</g>
<g>
	<path class="st5" d="M265.8,107.4c5.1,0,9.8-4.2,9.8-9.3c0-5.6-4.7-9.5-9.8-9.5h-4.4c-5.2,0-9.5,3.9-9.5,9.5c0,5.1,4.3,9.3,9.5,9.3
		H265.8z"/>
	<path class="st6" d="M263.4,103V92.9c2,0.8,3.5,2.8,3.5,5.1C266.8,100.3,265.4,102.3,263.4,103 M256,98c0-2.3,1.5-4.3,3.5-5.1V103
		C257.4,102.3,256,100.3,256,98 M261.4,89.4c-4.7,0-8.6,3.8-8.6,8.6c0,4.7,3.8,8.6,8.6,8.6c4.7,0,8.6-3.8,8.6-8.6
		C270,93.2,266.2,89.4,261.4,89.4"/>
	<path d="M242.3,113.8c0,0.8,0.5,0.9,1,0.9c2.1,0,2.8-1.6,2.8-3.1c0-1.9-1.2-3.2-3.1-3.2c-0.4,0-0.6,0-0.8,0V113.8z M241.3,109.1
		c0-0.9-0.5-0.8-0.9-0.8V108c0.4,0,0.8,0,1.2,0c0.4,0,1,0,1.7,0c2.6,0,4,1.7,4,3.5c0,1-0.6,3.5-4.1,3.5c-0.5,0-1,0-1.4,0
		c-0.4,0-0.9,0-1.3,0v-0.3c0.6-0.1,0.9-0.1,0.9-0.8V109.1z"/>
	<path d="M248.7,108.9c-0.3,0-0.5-0.2-0.5-0.5c0-0.2,0.2-0.5,0.5-0.5c0.3,0,0.5,0.2,0.5,0.5C249.2,108.7,249,108.9,248.7,108.9
		 M247.6,114.7h0.2c0.3,0,0.5,0,0.5-0.3v-2.7c0-0.4-0.1-0.5-0.5-0.7v-0.2c0.5-0.1,1-0.3,1.1-0.4c0.1,0,0.1-0.1,0.2-0.1
		c0,0,0.1,0.1,0.1,0.1v3.8c0,0.3,0.2,0.3,0.5,0.3h0.2v0.3c-0.3,0-0.7,0-1,0c-0.4,0-0.7,0-1.1,0V114.7z"/>
	<path d="M250.7,111.7c0-0.4-0.1-0.5-0.6-0.7v-0.2c0.4-0.1,0.8-0.3,1.3-0.5c0,0,0.1,0,0.1,0.1v0.6c0.6-0.4,1.1-0.7,1.7-0.7
		c0.8,0,1.1,0.6,1.1,1.4v2.6c0,0.3,0.2,0.3,0.5,0.3h0.2v0.3c-0.3,0-0.7,0-1.1,0c-0.4,0-0.7,0-1.1,0v-0.3h0.2c0.3,0,0.5,0,0.5-0.3
		v-2.6c0-0.6-0.3-0.8-0.9-0.8c-0.3,0-0.8,0.3-1.2,0.5v2.9c0,0.3,0.2,0.3,0.5,0.3h0.2v0.3c-0.3,0-0.7,0-1.1,0c-0.4,0-0.7,0-1.1,0
		v-0.3h0.2c0.3,0,0.5,0,0.5-0.3V111.7z"/>
	<path d="M257.5,111.9c0.2,0,0.3-0.1,0.3-0.2c0-0.5-0.3-0.9-0.9-0.9c-0.6,0-1,0.4-1.1,1.2H257.5z M255.8,112.2c0,0.1,0,0.2,0,0.6
		c0.1,0.9,0.7,1.7,1.5,1.7c0.5,0,1-0.3,1.3-0.7l0.1,0.1c-0.5,0.6-1,1.1-1.8,1.1c-1.6,0-1.9-1.5-1.9-2.2c0-1.9,1.3-2.5,2-2.5
		c0.8,0,1.7,0.5,1.7,1.6c0,0.1,0,0.1,0,0.2l-0.1,0.1H255.8z"/>
	<path d="M258.9,114.7h0.3c0.3,0,0.5,0,0.5-0.3v-2.8c0-0.3-0.4-0.4-0.5-0.4V111c0.7-0.3,1.1-0.6,1.2-0.6c0.1,0,0.1,0,0.1,0.1v0.9h0
		c0.2-0.4,0.7-1,1.3-1c0.2,0,0.6,0.2,0.6,0.5c0,0.3-0.2,0.5-0.5,0.5c-0.3,0-0.3-0.2-0.7-0.2c-0.2,0-0.7,0.2-0.7,0.8v2.3
		c0,0.3,0.2,0.3,0.5,0.3h0.6v0.3c-0.5,0-1,0-1.4,0c-0.4,0-0.8,0-1.2,0V114.7z"/>
	<path d="M262.7,113.6c0.1,0.7,0.5,1.2,1.3,1.2c0.6,0,0.8-0.4,0.8-0.7c0-1.2-2.2-0.8-2.2-2.4c0-0.6,0.4-1.3,1.5-1.3
		c0.3,0,0.7,0.1,1.1,0.3l0.1,1h-0.2c-0.1-0.6-0.4-1-1.1-1c-0.4,0-0.8,0.2-0.8,0.7c0,1.2,2.3,0.8,2.3,2.4c0,0.7-0.5,1.4-1.7,1.4
		c-0.4,0-0.9-0.1-1.2-0.3l-0.1-1.1L262.7,113.6z"/>
	<path d="M274.5,109.8h-0.2c-0.2-1.2-1-1.6-2.1-1.6c-1.1,0-2.8,0.8-2.8,3.1c0,2,1.4,3.4,3,3.4c1,0,1.8-0.7,2-1.7l0.2,0.1l-0.2,1.4
		c-0.4,0.3-1.5,0.5-2.2,0.5c-2.3,0-3.8-1.5-3.8-3.7c0-2,1.8-3.5,3.8-3.5c0.8,0,1.6,0.3,2.3,0.5L274.5,109.8z"/>
	<path d="M274.9,114.7h0.2c0.3,0,0.5,0,0.5-0.3v-5.5c0-0.6-0.1-0.7-0.5-0.8v-0.2c0.4-0.1,0.8-0.3,1-0.4c0.1-0.1,0.2-0.1,0.2-0.1
		c0.1,0,0.1,0.1,0.1,0.1v6.9c0,0.3,0.2,0.3,0.5,0.3h0.2v0.3c-0.3,0-0.7,0-1,0c-0.4,0-0.7,0-1.1,0V114.7z"/>
	<path d="M281.3,114.4c0,0.2,0.1,0.2,0.3,0.2c0.1,0,0.3,0,0.4,0v0.2c-0.4,0-1.2,0.2-1.4,0.3l0,0v-0.8c-0.6,0.5-1.1,0.8-1.8,0.8
		c-0.5,0-1.1-0.3-1.1-1.2v-2.5c0-0.3,0-0.5-0.6-0.6v-0.2c0.4,0,1.2-0.1,1.3-0.1c0.1,0,0.1,0.1,0.1,0.3v2.6c0,0.3,0,1.2,0.9,1.2
		c0.3,0,0.8-0.3,1.2-0.6v-2.7c0-0.2-0.5-0.3-0.8-0.4v-0.2c0.9-0.1,1.4-0.1,1.5-0.1c0.1,0,0.1,0.1,0.1,0.2V114.4z"/>
	<path d="M283.2,113.8c0,0.4,0.4,1,1,1c1.1,0,1.5-1,1.5-1.9c0-1.1-0.8-2-1.6-2c-0.4,0-0.7,0.2-0.9,0.5V113.8z M283.2,111.1
		c0.4-0.3,0.9-0.7,1.5-0.7c1.2,0,1.8,1,1.8,2.1c0,1.3-1,2.6-2.4,2.6c-0.7,0-1.1-0.2-1.4-0.3l-0.3,0.2l-0.2-0.1
		c0.1-0.6,0.1-1.2,0.1-1.8v-4.3c0-0.6-0.1-0.7-0.5-0.8v-0.2c0.4-0.1,0.8-0.3,1-0.4c0.1-0.1,0.2-0.1,0.2-0.1c0.1,0,0.1,0.1,0.1,0.1
		V111.1z"/>
	<path d="M240.4,120.7L240.4,120.7c0.3,0,0.5,0,0.5-0.3v-2.8c0-0.3-0.2-0.3-0.4-0.3h-0.1v-0.2c0.2,0,0.5,0,0.8,0c0.3,0,0.6,0,0.8,0
		v0.2H242c-0.2,0-0.4,0-0.4,0.3v2.8c0,0.3,0.2,0.3,0.4,0.3h0.1v0.2c-0.3,0-0.6,0-0.9,0c-0.3,0-0.6,0-0.8,0V120.7z"/>
	<path d="M242,120.9l0-0.1H242c-0.2,0-0.4,0-0.4-0.3v-2.8c0-0.3,0.2-0.3,0.4-0.3h0.1v-0.1c-0.2,0-0.6,0-0.8,0c-0.3,0-0.6,0-0.8,0
		v0.1h0.1c0.2,0,0.4,0,0.4,0.3v2.8c0,0.3-0.2,0.3-0.4,0.3h-0.1v0.1c0.2,0,0.5,0,0.8,0C241.5,120.8,241.8,120.9,242,120.9
		 M242.1,120.9c-0.3,0-0.6,0-0.9,0c-0.3,0-0.6,0-0.8,0h0v0v-0.2v0h0h0.1c0.2,0,0.4,0,0.4-0.3v-2.8c0-0.3-0.2-0.3-0.4-0.3h-0.1v0
		v-0.2h0c0.2,0,0.5,0,0.8,0c0.3,0,0.6,0,0.8,0h0v0v0.2h0H242c-0.2,0-0.4,0-0.4,0.3v2.8c0,0.3,0.2,0.3,0.4,0.3h0.1v0L242.1,120.9
		L242.1,120.9z"/>
	<path d="M245.8,119.8L245.8,119.8l0-2c0-0.4-0.3-0.5-0.5-0.5h-0.1v-0.2c0.3,0,0.5,0,0.8,0c0.2,0,0.4,0,0.7,0v0.2h-0.1
		c-0.2,0-0.5,0-0.5,0.7v2.5c0,0.2,0,0.4,0,0.5h-0.2l-2.8-3.1v2.2c0,0.5,0.1,0.6,0.5,0.6h0.1v0.2c-0.2,0-0.5,0-0.7,0
		c-0.2,0-0.5,0-0.7,0v-0.2h0.1c0.4,0,0.5-0.3,0.5-0.7v-2.3c0-0.3-0.2-0.5-0.5-0.5h-0.1v-0.2c0.2,0,0.4,0,0.6,0c0.2,0,0.3,0,0.5,0
		L245.8,119.8z"/>
	<path d="M245.8,119.8L245.8,119.8L245.8,119.8L245.8,119.8z M245.8,119.8L245.8,119.8L245.8,119.8z M245.9,120.9h0.2
		c0-0.2,0-0.3,0-0.5V118c0-0.6,0.3-0.7,0.5-0.7h0.1v-0.1c-0.2,0-0.4,0-0.6,0c-0.2,0-0.5,0-0.7,0l0,0.1h0.1c0.2,0,0.5,0.1,0.5,0.5
		l0,2l0,0l0,0l-2.4-2.7c-0.2,0-0.3,0-0.5,0c-0.2,0-0.4,0-0.6,0l0,0.1h0c0.3,0,0.5,0.2,0.5,0.5v2.3c0,0.4-0.1,0.7-0.5,0.7l-0.1,0v0.1
		c0.2,0,0.5,0,0.7,0c0.2,0,0.5,0,0.7,0v-0.1h-0.1c-0.4,0-0.5-0.2-0.5-0.7v-2.3L245.9,120.9z M246.1,121l-0.2,0l-2.7-3.1v2.2
		c0,0.5,0.1,0.6,0.5,0.6h0.1v0v0.2h0c-0.2,0-0.5,0-0.7,0c-0.2,0-0.5,0-0.7,0h0v0v-0.2h0h0.1c0.4,0,0.5-0.2,0.5-0.7v-2.3
		c0-0.3-0.2-0.5-0.5-0.5h-0.1v0v-0.2h0c0.2,0,0.4,0,0.6,0c0.2,0,0.3,0,0.5,0l2.4,2.7v-2c0-0.4-0.3-0.5-0.4-0.5h-0.1v0v-0.2h0
		c0.3,0,0.5,0,0.8,0c0.2,0,0.4,0,0.7,0h0v0v0.2h0h-0.1c-0.2,0-0.5,0-0.5,0.7v2.5C246.1,120.6,246.1,120.8,246.1,121L246.1,121
		L246.1,121z"/>
	<path d="M247.4,117.4c-0.4,0-0.4,0.1-0.5,0.5h-0.2c0-0.2,0-0.3,0.1-0.5c0-0.2,0-0.3,0-0.5h0.1c0,0.2,0.2,0.2,0.3,0.2h2.8
		c0.1,0,0.3,0,0.3-0.2l0.1,0c0,0.1,0,0.3-0.1,0.4c0,0.1,0,0.3,0,0.4l-0.2,0.1c0-0.2,0-0.5-0.4-0.5H249v2.9c0,0.4,0.2,0.5,0.4,0.5
		h0.1v0.2c-0.2,0-0.6,0-0.9,0c-0.3,0-0.7,0-0.9,0v-0.2h0.1c0.3,0,0.4,0,0.4-0.5v-2.9H247.4z"/>
	<path d="M249.5,120.9c-0.2,0-0.6,0-0.9,0c-0.3,0-0.7,0-0.9,0h0v0v-0.2h0h0.1c0.3,0,0.4,0,0.4-0.4v-2.9h-0.9v0v0h0.9v2.9
		c0,0.4-0.2,0.5-0.5,0.5h-0.1v0.1c0.2,0,0.6,0,0.9,0C248.9,120.8,249.3,120.9,249.5,120.9l0-0.2h-0.1c-0.3,0-0.5-0.1-0.5-0.5v-2.9
		h0.9c0.4,0,0.4,0.3,0.4,0.5l0.1,0c0-0.1,0-0.3,0-0.4c0-0.1,0-0.3,0.1-0.4l-0.1,0c0,0.2-0.2,0.2-0.3,0.2h-2.8h0
		c-0.1,0-0.3,0-0.3-0.2h-0.1c0,0.1,0,0.3,0,0.4c0,0.1,0,0.3-0.1,0.4h0.1c0.1-0.4,0.1-0.5,0.5-0.5v0v0c-0.4,0-0.4,0.1-0.5,0.5l0,0h0
		h-0.2l0,0c0-0.2,0-0.3,0.1-0.5c0-0.1,0-0.3,0-0.5v0h0h0.1l0,0c0,0.1,0.1,0.1,0.3,0.1h0h2.8c0.2,0,0.3,0,0.3-0.1l0,0l0,0l0.2,0l0,0
		c0,0.1,0,0.3-0.1,0.4c0,0.1,0,0.3,0,0.4v0l0,0l-0.2,0.1l0,0c0-0.2,0-0.5-0.4-0.5H249v2.9c0,0.4,0.2,0.4,0.4,0.4h0.1v0L249.5,120.9
		L249.5,120.9z"/>
	<path d="M250.7,120.7L250.7,120.7c0.3,0,0.5,0,0.5-0.3v-2.8c0-0.3-0.2-0.3-0.4-0.3h-0.1v-0.2c0.3,0,0.9,0,1.3,0c0.5,0,1,0,1.4,0
		c0,0.2,0,0.6,0,0.8l-0.2,0c0-0.4-0.1-0.6-0.7-0.6h-0.8v1.4h0.6c0.3,0,0.4-0.2,0.4-0.5h0.2c0,0.2,0,0.4,0,0.6c0,0.2,0,0.4,0,0.6
		l-0.2,0c0-0.3,0-0.5-0.4-0.5h-0.6v1.3c0,0.4,0.3,0.4,0.7,0.4c0.6,0,0.9,0,1.1-0.7l0.2,0c-0.1,0.3-0.1,0.6-0.2,0.9c-0.3,0-1,0-1.5,0
		c-0.5,0-1.1,0-1.4,0V120.7z"/>
	<path d="M253.6,120.9c0-0.3,0.1-0.5,0.2-0.8l-0.1,0c-0.2,0.6-0.5,0.7-1.1,0.7c-0.3,0-0.7,0-0.7-0.4V119h0.7c0.4,0,0.4,0.2,0.4,0.5
		l0.1,0c0-0.2,0-0.4,0-0.6c0-0.2,0-0.4,0-0.6h-0.1c0,0.3-0.1,0.5-0.4,0.5h-0.7v-1.5h0.8c0.6,0,0.7,0.3,0.7,0.6l0.1,0
		c0-0.2,0-0.3,0-0.5c0-0.1,0-0.2,0-0.3c-0.4,0-0.9,0-1.4,0c-0.4,0-1,0-1.3,0v0.1h0.1c0.2,0,0.4,0,0.4,0.3v2.8c0,0.3-0.2,0.3-0.4,0.3
		h-0.1v0.1c0.3,0,0.9,0,1.4,0C252.6,120.8,253.2,120.9,253.6,120.9 M253.6,120.9c-0.3,0-1,0-1.5,0c-0.5,0-1.1,0-1.4,0h0v0v-0.2v0h0
		h0.1c0.2,0,0.4,0,0.4-0.3v-2.8c0-0.3-0.2-0.3-0.4-0.3h-0.1v0v-0.2h0c0.3,0,0.9,0,1.3,0c0.5,0,1,0,1.4,0h0l0,0c0,0.1,0,0.2,0,0.3
		c0,0.2,0,0.4,0,0.5l0,0l0,0l-0.2,0l0,0c0-0.4-0.1-0.6-0.6-0.6h-0.7l0,1.4h0.6c0.3,0,0.4-0.2,0.4-0.5l0,0h0h0.2l0,0
		c0,0.2,0,0.4,0,0.6c0,0.2,0,0.4,0,0.6l0,0l0,0l-0.2,0l0,0c0-0.3,0-0.5-0.4-0.5h-0.6v1.2c0,0.3,0.3,0.3,0.6,0.3c0.7,0,0.9,0,1.1-0.6
		l0,0l0,0l0.2,0l0,0C253.7,120.3,253.6,120.6,253.6,120.9L253.6,120.9L253.6,120.9z"/>
	<path d="M255.2,118.9h0.3c0.5,0,0.8-0.2,0.8-0.8c0-0.5-0.3-0.8-0.8-0.8c-0.2,0-0.2,0-0.3,0V118.9z M254.5,117.7
		c0-0.4-0.2-0.4-0.4-0.4H254v-0.2c0.2,0,0.5,0,0.8,0c0.3,0,0.6,0,0.9,0c0.7,0,1.3,0.2,1.3,1c0,0.5-0.3,0.8-0.8,1l0.9,1.4
		c0.2,0.2,0.3,0.3,0.5,0.3v0.2c-0.2,0-0.4,0-0.5,0c-0.2,0-0.3,0-0.5,0c-0.4-0.5-0.8-1.1-1.1-1.8h-0.4v1.2c0,0.4,0.2,0.4,0.4,0.4h0.1
		v0.2c-0.3,0-0.6,0-0.9,0c-0.3,0-0.5,0-0.8,0v-0.2h0.1c0.2,0,0.4-0.1,0.4-0.3V117.7z"/>
	<path d="M255.4,118.9c0.5,0,0.8-0.2,0.8-0.8c0-0.5-0.3-0.8-0.8-0.8c-0.1,0-0.2,0-0.3,0v1.6H255.4z M255.2,119L255.2,119l0-1.7l0,0
		c0.1,0,0.1,0,0.3,0c0.5,0,0.8,0.3,0.8,0.8c0,0.6-0.3,0.9-0.9,0.9H255.2z M255.2,119.1h0.4l0,0c0.4,0.6,0.7,1.2,1.1,1.7
		c0.2,0,0.3,0,0.5,0c0.2,0,0.3,0,0.5,0v-0.1c-0.3,0-0.4-0.1-0.5-0.3l-0.9-1.4l0,0c0.4-0.2,0.7-0.5,0.7-0.9c0-0.7-0.6-0.9-1.3-0.9
		c-0.3,0-0.5,0-0.9,0c-0.3,0-0.6,0-0.8,0v0.1h0.1c0.2,0,0.4,0,0.4,0.4v2.7c0,0.2-0.2,0.3-0.4,0.3H254v0.1c0.3,0,0.5,0,0.8,0
		c0.3,0,0.6,0,0.9,0v-0.1h-0.1c-0.2,0-0.5,0-0.5-0.5L255.2,119.1L255.2,119.1z M257.7,120.9c-0.2,0-0.4,0-0.5,0c-0.2,0-0.3,0-0.5,0
		c-0.4-0.5-0.8-1.1-1.1-1.7h-0.3v1.1c0,0.4,0.2,0.4,0.4,0.4h0.1v0v0.2h0c-0.3,0-0.6,0-0.9,0c-0.3,0-0.5,0-0.8,0h0v0v-0.2h0h0.1
		c0.2,0,0.4-0.1,0.4-0.3v-2.7c0-0.4-0.2-0.4-0.4-0.4H254v0v-0.2h0c0.2,0,0.5,0,0.8,0c0.3,0,0.6,0,0.9,0c0.7,0,1.3,0.2,1.3,1
		c0,0.5-0.3,0.8-0.7,1l0.9,1.4c0.2,0.2,0.2,0.3,0.5,0.3l0,0v0L257.7,120.9L257.7,120.9z"/>
	<path d="M261.4,119.8L261.4,119.8l0-2c0-0.4-0.3-0.5-0.5-0.5h-0.1v-0.2c0.3,0,0.5,0,0.8,0c0.2,0,0.4,0,0.7,0v0.2h-0.1
		c-0.2,0-0.5,0-0.5,0.7v2.5c0,0.2,0,0.4,0,0.5h-0.2l-2.8-3.1v2.2c0,0.5,0.1,0.6,0.5,0.6h0.1v0.2c-0.2,0-0.5,0-0.7,0
		c-0.2,0-0.5,0-0.7,0v-0.2h0.1c0.4,0,0.5-0.3,0.5-0.7v-2.3c0-0.3-0.2-0.5-0.5-0.5h-0.1v-0.2c0.2,0,0.4,0,0.6,0c0.2,0,0.3,0,0.5,0
		L261.4,119.8z"/>
	<path d="M261.4,119.8L261.4,119.8L261.4,119.8L261.4,119.8z M261.4,119.8L261.4,119.8L261.4,119.8z M261.5,120.9h0.2
		c0-0.2,0-0.3,0-0.5V118c0-0.6,0.3-0.7,0.5-0.7h0.1v-0.1c-0.2,0-0.4,0-0.6,0c-0.2,0-0.5,0-0.7,0v0.1h0.1c0.2,0,0.5,0.1,0.5,0.5l0,2
		l0,0l0,0l-2.4-2.7c-0.2,0-0.3,0-0.5,0c-0.2,0-0.4,0-0.6,0v0.1h0c0.3,0,0.5,0.2,0.5,0.5v2.3c0,0.4-0.1,0.7-0.5,0.7l-0.1,0v0.1
		c0.2,0,0.5,0,0.7,0c0.2,0,0.5,0,0.7,0v-0.1h-0.1c-0.4,0-0.5-0.2-0.5-0.7v-2.3L261.5,120.9z M261.7,121l-0.2,0l-2.7-3.1v2.2
		c0,0.5,0.1,0.6,0.5,0.6h0.1v0v0.2h0c-0.2,0-0.5,0-0.7,0c-0.2,0-0.5,0-0.7,0h0v0v-0.2h0h0.1c0.4,0,0.5-0.2,0.5-0.7v-2.3
		c0-0.3-0.2-0.5-0.5-0.5h-0.1v0v-0.2h0c0.2,0,0.4,0,0.6,0c0.2,0,0.3,0,0.5,0l2.4,2.7v-2c0-0.4-0.3-0.5-0.4-0.5h-0.1v0v-0.2h0
		c0.3,0,0.5,0,0.8,0c0.2,0,0.4,0,0.7,0h0v0v0.2h0h-0.1c-0.2,0-0.5,0-0.5,0.7v2.5C261.7,120.6,261.7,120.8,261.7,121L261.7,121
		L261.7,121z"/>
	<path d="M263.9,117.7L263.9,117.7l-0.5,1.5h1L263.9,117.7z M263.1,120.1c-0.1,0.2-0.1,0.3-0.1,0.4c0,0.2,0.2,0.2,0.4,0.2h0.1v0.2
		c-0.2,0-0.4,0-0.7,0c-0.2,0-0.4,0-0.6,0v-0.2h0c0.2,0,0.4-0.1,0.5-0.4l0.9-2.5c0.1-0.2,0.2-0.5,0.2-0.7c0.2-0.1,0.4-0.2,0.5-0.2
		c0,0,0,0,0,0c0,0,0,0,0,0c0,0,0,0.1,0,0.1l1,2.8c0.1,0.2,0.1,0.4,0.2,0.6c0.1,0.2,0.2,0.2,0.4,0.2h0v0.2c-0.2,0-0.5,0-0.7,0
		c-0.3,0-0.5,0-0.8,0v-0.2h0.1c0.1,0,0.3,0,0.3-0.2c0-0.1,0-0.2-0.1-0.4l-0.2-0.6h-1.2L263.1,120.1z"/>
	<path d="M263.8,117.7L263.8,117.7L263.8,117.7z M263.4,119.2h0.9l-0.5-1.4L263.4,119.2z M263.3,119.3l0.5-1.6h0h0v0l0,0l0,0v0h0
		l0.5,1.6H263.3z M264.4,120.9c0.3,0,0.5,0,0.8,0c0.3,0,0.5,0,0.7,0v-0.1h0c-0.2,0-0.3-0.1-0.4-0.2c-0.1-0.2-0.1-0.4-0.2-0.6l-1-2.8
		c0,0,0-0.1,0-0.1c0,0,0,0,0,0h0c0,0,0,0,0,0c-0.1,0.1-0.3,0.2-0.5,0.2c0,0.2-0.1,0.5-0.2,0.7l-0.9,2.5c-0.1,0.2-0.3,0.4-0.5,0.4h0
		v0.1c0.2,0,0.4,0,0.6,0c0.2,0,0.4,0,0.6,0v-0.1h0c-0.2,0-0.4,0-0.4-0.2c0-0.1,0.1-0.2,0.1-0.4l0,0l0,0l0.2-0.6h1.3l0.2,0.6
		c0.1,0.2,0.1,0.3,0.1,0.4c0,0.2-0.2,0.2-0.4,0.2h0V120.9z M266,120.9c-0.2,0-0.5,0-0.7,0c-0.3,0-0.5,0-0.8,0l0,0v0v-0.2h0h0.1
		c0.1,0,0.3,0,0.3-0.1c0-0.1,0-0.2-0.1-0.4l-0.2-0.6h-1.2l-0.2,0.5c-0.1,0.2-0.1,0.3-0.1,0.4c0,0.1,0.2,0.2,0.4,0.2h0.1v0v0.2l0,0
		c-0.2,0-0.4,0-0.7,0c-0.2,0-0.4,0-0.6,0l0,0v0v-0.2h0h0c0.2,0,0.4-0.1,0.4-0.3l0.9-2.5c0.1-0.2,0.2-0.5,0.2-0.7
		c0.2-0.1,0.4-0.2,0.5-0.2c0,0,0,0,0.1,0c0,0,0,0,0.1,0c0,0,0,0.1,0,0.1l1,2.8c0.1,0.2,0.1,0.4,0.2,0.5c0.1,0.1,0.2,0.2,0.3,0.2h0.1
		v0L266,120.9L266,120.9z"/>
	<path d="M266.2,117.4c-0.4,0-0.4,0.1-0.5,0.5h-0.2c0-0.2,0-0.3,0.1-0.5c0-0.2,0-0.3,0-0.5h0.1c0,0.2,0.2,0.2,0.3,0.2h2.8
		c0.1,0,0.3,0,0.3-0.2l0.1,0c0,0.1,0,0.3-0.1,0.4c0,0.1,0,0.3,0,0.4l-0.2,0.1c0-0.2,0-0.5-0.4-0.5h-0.9v2.9c0,0.4,0.2,0.5,0.4,0.5
		h0.1v0.2c-0.2,0-0.6,0-0.9,0c-0.3,0-0.7,0-0.9,0v-0.2h0.1c0.3,0,0.4,0,0.4-0.5v-2.9H266.2z"/>
	<path d="M268.3,120.9c-0.2,0-0.6,0-0.9,0c-0.3,0-0.7,0-0.9,0h0v0v-0.2h0h0.1c0.3,0,0.4,0,0.4-0.4l0-2.9h-0.9v0v0h0.9v2.9
		c0,0.4-0.2,0.5-0.5,0.5h-0.1v0.1c0.2,0,0.6,0,0.9,0C267.7,120.8,268.1,120.9,268.3,120.9l0-0.2h-0.1c-0.3,0-0.5-0.1-0.5-0.5v-2.9
		h0.9c0.4,0,0.4,0.3,0.4,0.5l0.1,0c0-0.1,0-0.3,0-0.4c0-0.1,0-0.3,0.1-0.4l-0.1,0c0,0.2-0.2,0.2-0.3,0.2h-2.8h0
		c-0.1,0-0.3,0-0.3-0.2h-0.1c0,0.1,0,0.3,0,0.4c0,0.1,0,0.3-0.1,0.4h0.1c0.1-0.4,0.1-0.5,0.5-0.5v0v0c-0.4,0-0.4,0.1-0.5,0.5l0,0h0
		h-0.2l0,0c0-0.2,0-0.3,0.1-0.5c0-0.2,0-0.3,0-0.5v0h0h0.1l0,0c0,0.1,0.1,0.1,0.3,0.1c0,0,0,0,0,0h2.8c0.1,0,0.3,0,0.3-0.1l0,0l0,0
		l0.2,0l0,0c0,0.1,0,0.3-0.1,0.4c0,0.1,0,0.3,0,0.4v0l0,0l-0.2,0.1l0,0c0-0.2,0-0.5-0.4-0.5h-0.9v2.9c0,0.4,0.2,0.4,0.4,0.4h0.1v0
		L268.3,120.9L268.3,120.9z"/>
	<path d="M269.5,120.7L269.5,120.7c0.3,0,0.5,0,0.5-0.3v-2.8c0-0.3-0.2-0.3-0.4-0.3h-0.1v-0.2c0.2,0,0.5,0,0.8,0c0.3,0,0.6,0,0.8,0
		v0.2h-0.1c-0.2,0-0.4,0-0.4,0.3v2.8c0,0.3,0.2,0.3,0.4,0.3h0.1v0.2c-0.3,0-0.6,0-0.9,0c-0.3,0-0.6,0-0.8,0V120.7z"/>
	<path d="M271.1,120.9v-0.1h-0.1c-0.2,0-0.4,0-0.4-0.3v-2.8c0-0.3,0.2-0.3,0.4-0.3h0.1v-0.1c-0.2,0-0.6,0-0.8,0c-0.3,0-0.6,0-0.8,0
		v0.1h0.1c0.2,0,0.4,0,0.4,0.3v2.8c0,0.3-0.2,0.3-0.4,0.3h-0.1v0.1c0.2,0,0.5,0,0.8,0C270.5,120.8,270.9,120.9,271.1,120.9
		 M271.1,120.9c-0.3,0-0.6,0-0.9,0c-0.3,0-0.6,0-0.8,0h0v0v-0.2v0h0h0.1c0.2,0,0.4,0,0.4-0.3v-2.8c0-0.3-0.2-0.3-0.4-0.3h-0.1v0
		v-0.2h0c0.2,0,0.5,0,0.8,0c0.3,0,0.6,0,0.8,0h0v0v0.2h0h-0.1c-0.2,0-0.4,0-0.4,0.3v2.8c0,0.3,0.2,0.3,0.4,0.3h0.1v0L271.1,120.9
		L271.1,120.9z"/>
	<path d="M273.4,120.7c1,0,1.2-0.9,1.2-1.7c0-0.8-0.4-1.7-1.3-1.7c-0.9,0-1.2,0.8-1.2,1.6C272.1,119.8,272.5,120.7,273.4,120.7
		 M273.3,117c1.2,0,2.1,0.7,2.1,1.9c0,1.2-0.9,2.1-2,2.1c-1.1,0-2-0.8-2-1.9C271.3,117.9,272.2,117,273.3,117"/>
	<path d="M272,118.8c0-0.7,0.3-1.6,1.3-1.6c0.9,0,1.3,1,1.3,1.8c0,0.8-0.2,1.7-1.3,1.7v0v0c1,0,1.2-0.9,1.2-1.7
		c0-0.8-0.4-1.7-1.3-1.7C272.4,117.3,272.1,118.1,272,118.8c0,1,0.5,1.9,1.3,1.9v0v0C272.5,120.8,272,119.8,272,118.8 M271.3,119
		c0-1.1,0.9-2,2-2v0v0C272.2,117.1,271.3,117.9,271.3,119c0,1.1,0.9,1.9,2,1.9c1.1,0,2-0.8,2-2c0-1.1-0.9-1.8-2-1.8v0v0
		c1.2,0,2.1,0.7,2.1,1.9c0,1.3-0.9,2.1-2.1,2.1C272.2,121,271.3,120.2,271.3,119"/>
	<path d="M279,119.8L279,119.8l0-2c0-0.4-0.3-0.5-0.5-0.5h-0.1v-0.2c0.3,0,0.5,0,0.8,0c0.2,0,0.4,0,0.7,0v0.2h-0.1
		c-0.2,0-0.5,0-0.5,0.7v2.5c0,0.2,0,0.4,0,0.5h-0.2l-2.8-3.1v2.2c0,0.5,0.1,0.6,0.5,0.6h0.1v0.2c-0.2,0-0.5,0-0.7,0
		c-0.2,0-0.5,0-0.7,0v-0.2h0.1c0.4,0,0.5-0.3,0.5-0.7v-2.3c0-0.3-0.2-0.5-0.5-0.5h-0.1v-0.2c0.2,0,0.4,0,0.6,0c0.2,0,0.3,0,0.5,0
		L279,119.8z"/>
	<path d="M279,119.8L279,119.8L279,119.8L279,119.8z M279,119.8L279,119.8L279,119.8z M279.1,120.9h0.2c0-0.2,0-0.3,0-0.5V118
		c0-0.6,0.3-0.7,0.5-0.7h0.1v-0.1c-0.2,0-0.4,0-0.6,0c-0.2,0-0.5,0-0.7,0v0.1h0.1c0.2,0,0.5,0.1,0.5,0.5l0,2l0,0l0,0l-2.4-2.7
		c-0.2,0-0.3,0-0.5,0c-0.2,0-0.4,0-0.6,0v0.1h0c0.3,0,0.5,0.2,0.5,0.5v2.3c0,0.4-0.1,0.7-0.5,0.7l-0.1,0v0.1c0.2,0,0.5,0,0.7,0
		c0.2,0,0.4,0,0.7,0v-0.1h-0.1c-0.4,0-0.5-0.2-0.5-0.7v-2.3L279.1,120.9z M279.3,121l-0.2,0l-2.7-3.1v2.2c0,0.5,0.1,0.6,0.5,0.6h0.1
		v0v0.2h0c-0.2,0-0.5,0-0.7,0c-0.2,0-0.5,0-0.7,0h0v0v-0.2h0h0.1c0.4,0,0.5-0.2,0.5-0.7v-2.3c0-0.3-0.2-0.5-0.5-0.5h-0.1v0v-0.2h0
		c0.2,0,0.4,0,0.6,0c0.2,0,0.3,0,0.5,0l2.4,2.7v-2c0-0.4-0.3-0.5-0.4-0.5h-0.1v0v-0.2h0c0.3,0,0.5,0,0.8,0c0.2,0,0.4,0,0.7,0h0v0
		v0.2h0h-0.1c-0.2,0-0.5,0-0.5,0.7v2.5C279.3,120.6,279.3,120.8,279.3,121L279.3,121L279.3,121z"/>
	<path d="M281.5,117.7L281.5,117.7l-0.5,1.5h1L281.5,117.7z M280.7,120.1c-0.1,0.2-0.1,0.3-0.1,0.4c0,0.2,0.2,0.2,0.4,0.2h0.1v0.2
		c-0.2,0-0.4,0-0.7,0c-0.2,0-0.4,0-0.6,0v-0.2h0c0.2,0,0.4-0.1,0.5-0.4l0.9-2.5c0.1-0.2,0.2-0.5,0.2-0.7c0.2-0.1,0.4-0.2,0.5-0.2
		c0,0,0,0,0,0c0,0,0,0,0,0c0,0,0,0.1,0,0.1l1,2.8c0.1,0.2,0.1,0.4,0.2,0.6c0.1,0.2,0.2,0.2,0.4,0.2h0v0.2c-0.2,0-0.5,0-0.7,0
		c-0.3,0-0.5,0-0.8,0v-0.2h0.1c0.1,0,0.3,0,0.3-0.2c0-0.1,0-0.2-0.1-0.4l-0.2-0.6h-1.2L280.7,120.1z"/>
	<path d="M281.5,117.7L281.5,117.7L281.5,117.7z M281,119.2h0.9l-0.5-1.4L281,119.2z M281,119.3l0.5-1.6h0h0v0l0,0l0,0v0h0l0.5,1.6
		H281z M282.1,120.9c0.3,0,0.5,0,0.8,0c0.3,0,0.5,0,0.7,0l0-0.1h0c-0.2,0-0.3-0.1-0.4-0.2c-0.1-0.2-0.1-0.4-0.2-0.6l-1-2.8
		c0,0,0-0.1,0-0.1c0,0,0,0,0,0h0c0,0,0,0,0,0c-0.1,0.1-0.3,0.2-0.5,0.2c0,0.2-0.1,0.5-0.2,0.7l-0.9,2.5c-0.1,0.2-0.3,0.4-0.5,0.4h0
		v0.1c0.2,0,0.4,0,0.6,0c0.2,0,0.4,0,0.6,0v-0.1h0c-0.2,0-0.4,0-0.4-0.2c0-0.1,0.1-0.2,0.1-0.4l0,0l0,0l0.2-0.6h1.3l0.2,0.6
		c0.1,0.2,0.1,0.3,0.1,0.4c0,0.2-0.2,0.2-0.4,0.2h0V120.9z M283.6,120.9c-0.2,0-0.5,0-0.7,0c-0.3,0-0.5,0-0.8,0l0,0v0v-0.2h0h0.1
		c0.1,0,0.3,0,0.3-0.1c0-0.1,0-0.2-0.1-0.4l-0.2-0.6h-1.2l-0.2,0.5c-0.1,0.2-0.1,0.3-0.1,0.4c0,0.1,0.2,0.2,0.4,0.2h0.1v0v0.2l0,0
		c-0.2,0-0.4,0-0.7,0c-0.2,0-0.4,0-0.6,0l0,0v0v-0.2h0h0c0.2,0,0.4-0.1,0.4-0.3l0.9-2.5c0.1-0.2,0.2-0.5,0.2-0.7
		c0.2-0.1,0.4-0.2,0.5-0.2c0,0,0,0,0.1,0c0,0,0,0,0.1,0c0,0,0,0.1,0,0.1l1,2.8c0.1,0.2,0.1,0.4,0.2,0.5c0.1,0.1,0.2,0.2,0.3,0.2h0.1
		v0L283.6,120.9L283.6,120.9z"/>
	<path d="M285,120.4c0,0.2,0.2,0.3,0.3,0.3c0.2,0,0.5,0,0.7,0c0.2,0,0.4-0.2,0.5-0.3c0.1-0.1,0.1-0.3,0.2-0.4h0.2
		c-0.1,0.3-0.1,0.6-0.2,0.9c-0.5,0-1,0-1.4,0c-0.5,0-1,0-1.4,0v-0.2h0.1c0.2,0,0.4,0,0.4-0.4v-2.8c0-0.3-0.2-0.3-0.4-0.3h-0.1v-0.2
		c0.3,0,0.6,0,0.9,0c0.3,0,0.5,0,0.8,0v0.2h-0.1c-0.2,0-0.4,0-0.4,0.3V120.4z"/>
	<path d="M286.6,120.9c0.1-0.3,0.1-0.6,0.2-0.9h-0.1c0,0.1-0.1,0.3-0.2,0.4c-0.1,0.1-0.3,0.3-0.5,0.3c-0.1,0-0.3,0-0.4,0
		c-0.1,0-0.2,0-0.3,0c-0.2,0-0.3-0.1-0.3-0.3v-2.8c0-0.3,0.2-0.3,0.4-0.3h0.1v-0.1c-0.3,0-0.5,0-0.8,0c-0.3,0-0.6,0-0.8,0v0.1h0.1
		c0.2,0,0.4,0,0.4,0.3v2.8c0,0.3-0.2,0.4-0.4,0.4h-0.1v0.1c0.5,0,0.9,0,1.4,0S286.2,120.9,286.6,120.9 M286.6,120.9
		c-0.5,0-1,0-1.4,0c-0.5,0-1,0-1.4,0h0v0v-0.2h0h0.1c0.2,0,0.4,0,0.4-0.3v-2.8c0-0.3-0.2-0.3-0.4-0.3h-0.1v0v-0.2h0
		c0.3,0,0.6,0,0.9,0c0.3,0,0.5,0,0.8,0h0v0v0.2h0h-0.1c-0.2,0-0.3,0-0.3,0.3v2.8c0,0.2,0.1,0.3,0.3,0.3c0.1,0,0.2,0,0.3,0
		c0.1,0,0.3,0,0.4,0c0.2,0,0.4-0.2,0.5-0.3c0.1-0.1,0.1-0.3,0.2-0.4l0,0h0h0.2l0,0C286.8,120.3,286.7,120.6,286.6,120.9L286.6,120.9
		L286.6,120.9z"/>
	<path d="M286.7,117.5L286.7,117.5c0.1,0,0.2-0.1,0.2-0.1c0-0.1-0.1-0.1-0.1-0.1h-0.1V117.5z M286.5,117.8L286.5,117.8
		C286.6,117.8,286.6,117.8,286.5,117.8l0.1-0.5c0-0.1,0-0.1-0.1-0.1v0h0.3c0.1,0,0.2,0,0.2,0.2c0,0.1-0.1,0.1-0.1,0.2l0.1,0.1
		c0,0.1,0.1,0.1,0.1,0.1v0h-0.1c-0.1,0-0.1-0.1-0.2-0.3h-0.1v0.2c0,0,0,0,0.1,0v0H286.5z M286.8,118c0.3,0,0.4-0.2,0.4-0.5
		c0-0.2-0.2-0.5-0.4-0.5c-0.3,0-0.5,0.2-0.5,0.5C286.3,117.8,286.5,118,286.8,118 M286.8,117c0.3,0,0.6,0.3,0.6,0.6
		c0,0.3-0.2,0.6-0.6,0.6c-0.3,0-0.6-0.2-0.6-0.6C286.2,117.2,286.4,117,286.8,117"/>
</g>
<g>
	<g>
		<path class="st7" d="M200.9,33.7c8.9,0,16.1,7.2,16.1,16.1c0,8.9-7.2,16.1-16.1,16.1s-16.1-7.2-16.1-16.1
			C184.8,40.9,192,33.7,200.9,33.7L200.9,33.7z"/>
		<path class="st1" d="M194,45.5c2.3,0,4.3,1.6,4.8,3.8l-2,0.9l0,0l-2,0.9l-4.9,2.1c-0.5-0.8-0.8-1.7-0.8-2.7
			C189.1,47.7,191.3,45.5,194,45.5L194,45.5z M196.1,48.5l-4.9,2.1c0-0.1,0-0.2,0-0.3c0-1.6,1.3-2.8,2.8-2.8
			C194.9,47.6,195.6,47.9,196.1,48.5L196.1,48.5z"/>
		<path class="st1" d="M197.5,53.9c-1.8,1.7-4.1,1.8-6.2,0.6l1.2-1.8c1.2,0.7,2.3,0.6,3.5-0.3L197.5,53.9L197.5,53.9z"/>
		<path class="st1" d="M199.5,52.7l0-9.3h1.8v9.1c0,0.1,0,0.2,0.1,0.2l1.5,0.6l-0.7,1.8l-1.8-0.8C199.7,54,199.5,53.6,199.5,52.7
			L199.5,52.7z"/>
	</g>
	<g>
		<path class="st8" d="M206.1,52.5c-0.7-0.5-1.1-1.3-1.1-2.2c0-0.8,0.3-1.5,0.9-2l-1.1-1.9c-1.1,0.9-1.9,2.3-1.9,3.9
			c0,1.7,0.9,3.2,2.2,4.1L206.1,52.5z"/>
		<path class="st9" d="M206.9,47.7c0.3-0.1,0.6-0.2,1-0.2c1.2,0,2.2,0.8,2.6,1.8l2.2-0.2c-0.5-2.2-2.5-3.8-4.8-3.8
			c-0.7,0-1.3,0.1-1.9,0.4L206.9,47.7z"/>
		<path class="st10" d="M210.7,50.5c-0.1,1.5-1.3,2.7-2.8,2.7c-0.2,0-0.5,0-0.7-0.1l-0.9,2c0.5,0.2,1,0.2,1.5,0.2
			c2.7,0,4.9-2.1,5-4.8L210.7,50.5z"/>
	</g>
</g>
<g>
	<polygon class="st11" points="57.4,61.7 61.4,38 67.9,38 63.8,61.7 	"/>
	<path class="st11" d="M87.3,38.6c-1.3-0.5-3.3-1-5.8-1c-6.4,0-10.9,3.2-10.9,7.8c0,3.4,3.2,5.3,5.7,6.5c2.5,1.2,3.4,1.9,3.4,2.9
		c0,1.6-2,2.3-3.9,2.3c-2.6,0-4-0.4-6.1-1.2l-0.8-0.4l-0.9,5.3c1.5,0.7,4.3,1.2,7.2,1.3c6.8,0,11.2-3.2,11.3-8.1
		c0-2.7-1.7-4.8-5.4-6.5c-2.3-1.1-3.6-1.8-3.6-2.9c0-1,1.2-2,3.7-2c2.1,0,3.6,0.4,4.8,0.9l0.6,0.3L87.3,38.6"/>
	<path class="st11" d="M103.9,38h-5c-1.5,0-2.7,0.4-3.4,2l-9.6,21.8h6.8c0,0,1.1-2.9,1.4-3.6c0.7,0,7.3,0,8.3,0
		c0.2,0.8,0.8,3.6,0.8,3.6h6L103.9,38 M95.9,53.3c0.5-1.4,2.6-6.6,2.6-6.6c0,0.1,0.5-1.4,0.9-2.3l0.4,2c0,0,1.2,5.7,1.5,6.9H95.9z"
		/>
	<path class="st11" d="M51.9,38l-6.3,16.2l-0.7-3.3c-1.2-3.8-4.9-7.9-9-10l5.8,20.8l6.8,0L58.8,38H51.9"/>
	<path class="st12" d="M39.7,38H29.3l-0.1,0.5c8.1,2,13.5,6.7,15.7,12.4L42.6,40C42.3,38.5,41.1,38,39.7,38"/>
</g>
<g>
	<g>
		<path d="M124,66.6c-0.2-0.2-0.3-0.3-0.6-0.4c-0.2-0.1-0.4-0.1-0.7-0.1c-0.1,0-0.3,0-0.4,0c-0.1,0-0.3,0.1-0.4,0.1
			c-0.1,0.1-0.3,0.1-0.4,0.2c-0.1,0.1-0.2,0.2-0.3,0.4c-0.1-0.2-0.4-0.4-0.6-0.6c-0.3-0.1-0.5-0.2-0.9-0.2c-0.1,0-0.2,0-0.3,0
			c-0.1,0-0.2,0.1-0.4,0.1c-0.1,0-0.2,0.1-0.3,0.2c-0.1,0.1-0.2,0.2-0.3,0.3v-0.5h-0.9v4.4h0.9v-2.5c0-0.2,0-0.4,0.1-0.5
			c0.1-0.1,0.1-0.3,0.2-0.4c0.1-0.1,0.2-0.2,0.4-0.2c0.1-0.1,0.3-0.1,0.4-0.1c0.3,0,0.6,0.1,0.7,0.3c0.2,0.2,0.3,0.5,0.3,0.9v2.5
			h0.9v-2.5c0-0.2,0-0.4,0.1-0.5c0.1-0.1,0.1-0.3,0.2-0.4c0.1-0.1,0.2-0.2,0.4-0.2c0.1-0.1,0.3-0.1,0.4-0.1c0.3,0,0.6,0.1,0.7,0.3
			c0.2,0.2,0.3,0.5,0.3,0.9v2.5h0.9v-2.8c0-0.3,0-0.5-0.1-0.7C124.3,66.9,124.2,66.8,124,66.6z"/>
		<path d="M129,66.8c-0.2-0.2-0.3-0.4-0.6-0.5c-0.2-0.1-0.5-0.2-0.8-0.2c-0.3,0-0.6,0.1-0.9,0.2c-0.3,0.1-0.5,0.3-0.7,0.5
			c-0.2,0.2-0.4,0.5-0.5,0.7c-0.1,0.3-0.2,0.6-0.2,0.9c0,0.3,0.1,0.7,0.2,0.9c0.1,0.3,0.3,0.5,0.5,0.7c0.2,0.2,0.4,0.4,0.7,0.5
			c0.3,0.1,0.6,0.2,0.9,0.2c0.3,0,0.6-0.1,0.8-0.2c0.2-0.1,0.4-0.3,0.6-0.5v0.5h1v-4.4h-1V66.8z M129,69c-0.1,0.2-0.2,0.3-0.3,0.4
			c-0.1,0.1-0.3,0.2-0.4,0.3c-0.2,0.1-0.3,0.1-0.5,0.1c-0.2,0-0.4,0-0.6-0.1c-0.2-0.1-0.3-0.2-0.4-0.3c-0.1-0.1-0.2-0.3-0.3-0.5
			c-0.1-0.2-0.1-0.4-0.1-0.6c0-0.2,0-0.4,0.1-0.6c0.1-0.2,0.1-0.3,0.3-0.5c0.1-0.1,0.3-0.2,0.4-0.3c0.2-0.1,0.4-0.1,0.6-0.1
			c0.2,0,0.4,0,0.5,0.1c0.2,0.1,0.3,0.2,0.4,0.3c0.1,0.1,0.2,0.3,0.3,0.4c0.1,0.2,0.1,0.4,0.1,0.6C129.1,68.6,129,68.8,129,69z"/>
		<path d="M134.4,68.4c-0.3-0.2-0.7-0.4-1.1-0.4l-0.5-0.1c-0.1,0-0.2,0-0.3-0.1c-0.1,0-0.2,0-0.2-0.1c-0.1,0-0.1-0.1-0.2-0.1
			c0-0.1-0.1-0.1-0.1-0.2c0-0.2,0.1-0.3,0.2-0.4c0.1-0.1,0.4-0.1,0.6-0.1c0.1,0,0.3,0,0.4,0c0.1,0,0.3,0.1,0.4,0.1
			c0.1,0,0.2,0.1,0.3,0.1c0.1,0,0.2,0.1,0.3,0.1l0.4-0.8c-0.2-0.1-0.5-0.3-0.8-0.3c-0.3-0.1-0.6-0.1-1-0.1c-0.3,0-0.5,0-0.8,0.1
			c-0.2,0.1-0.4,0.2-0.6,0.3c-0.2,0.1-0.3,0.3-0.4,0.4c-0.1,0.2-0.1,0.4-0.1,0.6c0,0.4,0.1,0.6,0.4,0.9c0.3,0.2,0.6,0.4,1.1,0.4
			l0.5,0.1c0.3,0,0.5,0.1,0.6,0.2c0.1,0.1,0.2,0.2,0.2,0.3c0,0.2-0.1,0.3-0.3,0.4c-0.2,0.1-0.4,0.1-0.8,0.1c-0.2,0-0.3,0-0.5,0
			c-0.1,0-0.3-0.1-0.4-0.1c-0.1,0-0.2-0.1-0.3-0.1c-0.1-0.1-0.2-0.1-0.3-0.2l-0.4,0.7c0.2,0.1,0.3,0.2,0.5,0.3
			c0.2,0.1,0.3,0.1,0.5,0.2c0.2,0,0.3,0.1,0.5,0.1c0.2,0,0.3,0,0.4,0c0.3,0,0.6,0,0.9-0.1c0.3-0.1,0.5-0.2,0.6-0.3
			c0.2-0.1,0.3-0.3,0.4-0.5c0.1-0.2,0.1-0.4,0.1-0.6C134.8,68.9,134.7,68.6,134.4,68.4z"/>
		<path d="M143.5,66.7c-0.2-0.2-0.4-0.4-0.7-0.5c-0.3-0.1-0.5-0.2-0.8-0.2c-0.3,0-0.6,0.1-0.9,0.2c-0.3,0.1-0.5,0.3-0.7,0.5
			c-0.2,0.2-0.3,0.5-0.5,0.7c-0.1,0.3-0.2,0.6-0.2,0.9c0,0.4,0.1,0.7,0.2,1c0.1,0.3,0.3,0.5,0.5,0.7c0.2,0.2,0.4,0.4,0.7,0.5
			c0.3,0.1,0.6,0.2,0.9,0.2c0.3,0,0.7,0,1-0.1c0.3-0.1,0.6-0.3,0.9-0.5l-0.5-0.7c-0.2,0.1-0.4,0.3-0.6,0.3c-0.2,0.1-0.4,0.1-0.7,0.1
			c-0.2,0-0.3,0-0.5-0.1c-0.1,0-0.3-0.1-0.4-0.2c-0.1-0.1-0.2-0.2-0.3-0.3c-0.1-0.1-0.1-0.3-0.2-0.5h3.3c0-0.1,0-0.1,0-0.2
			c0-0.1,0-0.1,0-0.2c0-0.3-0.1-0.7-0.2-0.9C143.8,67.2,143.7,67,143.5,66.7z M140.8,68.1c0-0.2,0.1-0.3,0.1-0.4
			c0.1-0.1,0.1-0.3,0.2-0.3c0.1-0.1,0.2-0.2,0.3-0.2c0.1-0.1,0.3-0.1,0.5-0.1c0.3,0,0.6,0.1,0.8,0.3c0.2,0.2,0.3,0.5,0.4,0.8H140.8z
			"/>
		<path d="M156.4,66.8c-0.2-0.2-0.3-0.4-0.6-0.5c-0.2-0.1-0.5-0.2-0.8-0.2c-0.3,0-0.6,0.1-0.9,0.2c-0.3,0.1-0.5,0.3-0.7,0.5
			c-0.2,0.2-0.4,0.5-0.5,0.7c-0.1,0.3-0.2,0.6-0.2,0.9c0,0.3,0.1,0.7,0.2,0.9c0.1,0.3,0.3,0.5,0.5,0.7c0.2,0.2,0.4,0.4,0.7,0.5
			c0.3,0.1,0.6,0.2,0.9,0.2c0.3,0,0.6-0.1,0.8-0.2c0.2-0.1,0.4-0.3,0.6-0.5v0.5h1v-4.4h-1V66.8z M156.3,69c-0.1,0.2-0.2,0.3-0.3,0.4
			c-0.1,0.1-0.3,0.2-0.4,0.3c-0.2,0.1-0.3,0.1-0.5,0.1c-0.2,0-0.4,0-0.6-0.1c-0.2-0.1-0.3-0.2-0.4-0.3c-0.1-0.1-0.2-0.3-0.3-0.5
			c-0.1-0.2-0.1-0.4-0.1-0.6c0-0.2,0-0.4,0.1-0.6c0.1-0.2,0.1-0.3,0.3-0.5c0.1-0.1,0.3-0.2,0.4-0.3c0.2-0.1,0.4-0.1,0.6-0.1
			c0.2,0,0.4,0,0.5,0.1c0.2,0.1,0.3,0.2,0.4,0.3c0.1,0.1,0.2,0.3,0.3,0.4c0.1,0.2,0.1,0.4,0.1,0.6C156.4,68.6,156.4,68.8,156.3,69z"
			/>
		<path d="M138.6,69.8c-0.2,0.1-0.3,0.1-0.5,0.1c-0.1,0-0.2,0-0.3,0c-0.1,0-0.2-0.1-0.2-0.1c-0.1-0.1-0.1-0.2-0.2-0.3
			c0-0.1-0.1-0.2-0.1-0.4v-1.9h1.6v-0.9h-1.6v-1.3h-1v1.3h-0.9v0.9h0.9v2c0,0.6,0.1,1,0.4,1.3c0.3,0.3,0.7,0.4,1.2,0.4
			c0.3,0,0.5,0,0.8-0.1c0.1-0.1,0.3-0.1,0.4-0.2l-0.3-0.8C138.8,69.7,138.7,69.7,138.6,69.8z"/>
		<path d="M147.3,66.1c-0.3,0-0.5,0-0.7,0.1c-0.2,0.1-0.4,0.3-0.6,0.5v-0.6h-0.9v4.4h0.9v-2.4c0-0.2,0-0.4,0.1-0.5
			c0.1-0.1,0.1-0.3,0.2-0.4c0.1-0.1,0.2-0.2,0.3-0.2c0.1-0.1,0.3-0.1,0.4-0.1c0.1,0,0.2,0,0.4,0c0.1,0,0.1,0,0.2,0.1l0.3-0.9
			c-0.1,0-0.2,0-0.2-0.1C147.6,66.1,147.5,66.1,147.3,66.1z"/>
		<path d="M160.8,66.1c-0.3,0-0.5,0-0.7,0.1c-0.2,0.1-0.4,0.3-0.6,0.5v-0.6h-0.9v4.4h0.9v-2.4c0-0.2,0-0.4,0.1-0.5
			c0.1-0.1,0.1-0.3,0.2-0.4c0.1-0.1,0.2-0.2,0.3-0.2c0.1-0.1,0.3-0.1,0.4-0.1c0.1,0,0.2,0,0.4,0c0.1,0,0.1,0,0.2,0.1l0.3-0.9
			c-0.1,0-0.2,0-0.2-0.1C161.1,66.1,160.9,66.1,160.8,66.1z"/>
		<path d="M165.3,64.4v2.3c-0.2-0.2-0.3-0.4-0.6-0.5c-0.2-0.1-0.5-0.2-0.8-0.2c-0.3,0-0.6,0.1-0.9,0.2c-0.3,0.1-0.5,0.3-0.7,0.5
			c-0.2,0.2-0.4,0.5-0.5,0.7c-0.1,0.3-0.2,0.6-0.2,0.9c0,0.3,0.1,0.7,0.2,0.9c0.1,0.3,0.3,0.5,0.5,0.7c0.2,0.2,0.4,0.4,0.7,0.5
			c0.3,0.1,0.6,0.2,0.9,0.2c0.3,0,0.6-0.1,0.8-0.2c0.2-0.1,0.4-0.3,0.6-0.5v0.5h1v-6.2H165.3z M165.3,69c-0.1,0.2-0.2,0.3-0.3,0.4
			c-0.1,0.1-0.3,0.2-0.4,0.3c-0.2,0.1-0.3,0.1-0.5,0.1c-0.2,0-0.4,0-0.6-0.1c-0.2-0.1-0.3-0.2-0.4-0.3c-0.1-0.1-0.2-0.3-0.3-0.5
			c-0.1-0.2-0.1-0.4-0.1-0.6c0-0.2,0-0.4,0.1-0.6c0.1-0.2,0.1-0.3,0.3-0.5c0.1-0.1,0.3-0.2,0.4-0.3c0.2-0.1,0.4-0.1,0.6-0.1
			c0.2,0,0.4,0,0.5,0.1c0.2,0.1,0.3,0.2,0.4,0.3c0.1,0.1,0.2,0.3,0.3,0.4c0.1,0.2,0.1,0.4,0.1,0.6C165.4,68.6,165.3,68.8,165.3,69z"
			/>
		<path d="M149.6,67.4c0.1-0.1,0.3-0.2,0.4-0.3c0.2-0.1,0.4-0.1,0.6-0.1l0,0c0.2,0,0.4,0,0.6,0.1c0.2,0.1,0.3,0.2,0.5,0.3l0.5-0.8
			c-0.2-0.1-0.4-0.3-0.6-0.3c-0.3-0.1-0.6-0.2-1-0.2c-0.3,0-0.7,0.1-1,0.2c-0.3,0.1-0.5,0.3-0.8,0.5c-0.2,0.2-0.4,0.5-0.5,0.7
			c-0.1,0.3-0.2,0.6-0.2,0.9c0,0.3,0.1,0.6,0.2,0.9c0.1,0.3,0.3,0.5,0.5,0.7c0.2,0.2,0.5,0.4,0.8,0.5c0.3,0.1,0.6,0.2,1,0.2
			c0.3,0,0.7-0.1,1-0.2c0.2-0.1,0.4-0.2,0.6-0.3l-0.5-0.8c-0.1,0.1-0.3,0.2-0.5,0.3c-0.2,0.1-0.4,0.1-0.6,0.1v0
			c-0.2,0-0.4,0-0.6-0.1c-0.2-0.1-0.3-0.2-0.4-0.3c-0.1-0.1-0.2-0.3-0.3-0.4c-0.1-0.2-0.1-0.4-0.1-0.6c0-0.2,0-0.4,0.1-0.6
			C149.4,67.7,149.5,67.5,149.6,67.4z"/>
	</g>
	<g>
		<path d="M168.3,70c0.1,0,0.1,0,0.2,0c0.1,0,0.1,0.1,0.1,0.1c0,0,0.1,0.1,0.1,0.1c0,0.1,0,0.1,0,0.2c0,0.1,0,0.1,0,0.2
			c0,0.1-0.1,0.1-0.1,0.1c0,0-0.1,0.1-0.1,0.1c-0.1,0-0.1,0-0.2,0c-0.1,0-0.1,0-0.2,0c-0.1,0-0.1-0.1-0.1-0.1c0,0-0.1-0.1-0.1-0.1
			s0-0.1,0-0.2c0-0.1,0-0.1,0-0.2c0-0.1,0.1-0.1,0.1-0.1c0,0,0.1-0.1,0.1-0.1C168.2,70,168.2,70,168.3,70z M168.3,70.8
			c0,0,0.1,0,0.1,0c0,0,0.1,0,0.1-0.1c0,0,0.1-0.1,0.1-0.1c0,0,0-0.1,0-0.1c0,0,0-0.1,0-0.1c0,0,0-0.1-0.1-0.1c0,0-0.1-0.1-0.1-0.1
			c0,0-0.1,0-0.1,0c0,0-0.1,0-0.1,0c0,0-0.1,0-0.1,0.1c0,0-0.1,0.1-0.1,0.1c0,0,0,0.1,0,0.1c0,0,0,0.1,0,0.1c0,0,0,0.1,0.1,0.1
			c0,0,0.1,0.1,0.1,0.1C168.2,70.8,168.3,70.8,168.3,70.8z M168.3,70.3c0.1,0,0.1,0,0.1,0c0,0,0,0.1,0,0.1c0,0,0,0.1,0,0.1
			c0,0-0.1,0-0.1,0l0.1,0.1h-0.1l-0.1-0.1h0v0.1h-0.1v-0.4H168.3z M168.2,70.4L168.2,70.4L168.2,70.4c0.1,0.1,0.1,0.1,0.1,0.1
			c0,0,0,0,0,0c0,0,0,0,0,0C168.4,70.4,168.3,70.4,168.2,70.4L168.2,70.4z"/>
	</g>
	<g>
		<path class="st13" d="M135.5,45.5c0-5.3,2.5-10,6.4-13.1c-2.9-2.3-6.5-3.6-10.4-3.6c-9.2,0-16.7,7.5-16.7,16.7s7.5,16.7,16.7,16.7
			c3.9,0,7.5-1.4,10.4-3.6C138,55.5,135.5,50.8,135.5,45.5z"/>
		<path class="st14" d="M135.5,45.5c0,5.3,2.5,10,6.4,13.1c3.9-3.1,6.4-7.8,6.4-13.1s-2.5-10-6.4-13.1
			C138,35.4,135.5,40.2,135.5,45.5z"/>
		<path class="st15" d="M167.8,54.5V54h-0.2v-0.1h0.5V54H168v0.5H167.8z M168.9,54.5v-0.4l-0.1,0.4h-0.2l-0.1-0.4v0.4h-0.1v-0.6h0.2
			l0.2,0.4l0.2-0.4h0.2v0.6H168.9z"/>
		<path class="st15" d="M152.2,28.8c-3.9,0-7.5,1.4-10.4,3.6c3.9,3.1,6.4,7.8,6.4,13.1s-2.5,10-6.4,13.1c2.9,2.3,6.5,3.6,10.4,3.6
			c9.2,0,16.7-7.5,16.7-16.7S161.5,28.8,152.2,28.8z"/>
	</g>
</g>
</svg>
