<?xml version="1.0" encoding="utf-8"?>
<!-- Generator: Adobe Illustrator 27.2.0, SVG Export Plug-In . SVG Version: 6.00 Build 0)  -->
<svg version="1.1" id="Camada_1" xmlns="http://www.w3.org/2000/svg" xmlns:xlink="http://www.w3.org/1999/xlink" x="0px" y="0px"
	 viewBox="0 0 959.7 310.6" style="enable-background:new 0 0 959.7 310.6;" xml:space="preserve">
<style type="text/css">
	.st0{fill-rule:evenodd;clip-rule:evenodd;fill:#FFFFFF;}
	.st1{fill:#FFFFFF;}
</style>
<g>
	<g>
		<rect x="56.6" y="11.3" class="st0" width="30.8" height="127.2"/>
		<rect x="97" y="11.3" class="st0" width="9.6" height="127.2"/>
		<rect x="114.8" y="11.3" class="st0" width="17.1" height="127.2"/>
		<rect x="148.4" y="11.3" class="st0" width="9.6" height="127.2"/>
		<rect x="162" y="11.3" class="st0" width="7.3" height="127.2"/>
		<rect x="33.2" y="11.3" class="st0" width="9.5" height="288"/>
		<polygon class="st0" points="12.1,11.3 29.2,11.3 29.2,299.3 12.1,299.3 12.1,11.3 		"/>
		<rect x="220.3" y="11.3" class="st0" width="30.8" height="127.2"/>
		<rect x="260.8" y="11.3" class="st0" width="9.6" height="127.2"/>
		<rect x="278.7" y="11.3" class="st0" width="17.1" height="127.2"/>
		<rect x="312.2" y="11.3" class="st0" width="9.5" height="127.2"/>
		<rect x="325.9" y="11.3" class="st0" width="7.3" height="127.2"/>
		<rect x="196.9" y="11.3" class="st0" width="9.6" height="127.2"/>
		<rect x="176" y="11.3" class="st0" width="17" height="127.2"/>
		<rect x="345.3" y="11.3" class="st0" width="17.1" height="127.2"/>
		<rect x="378.8" y="11.3" class="st0" width="9.6" height="127.2"/>
		<rect x="392.5" y="11.3" class="st0" width="7.3" height="127.2"/>
		<rect x="427.4" y="11.3" class="st0" width="9.5" height="127.2"/>
		<rect x="406.4" y="11.3" class="st0" width="17.1" height="127.2"/>
		<rect x="449.6" y="11.3" class="st0" width="9.5" height="127.2"/>
		<rect x="463.3" y="11.3" class="st0" width="7.3" height="127.2"/>
		<rect x="498.2" y="11.3" class="st0" width="9.6" height="127.2"/>
		<rect x="477.1" y="11.3" class="st0" width="17.1" height="127.2"/>
		<rect x="516" y="11.3" class="st0" width="30.8" height="127.2"/>
		<rect x="556.5" y="11.3" class="st0" width="9.5" height="127.2"/>
		<rect x="574.3" y="11.3" class="st0" width="17.1" height="127.2"/>
		<rect x="607.8" y="11.3" class="st0" width="9.6" height="127.2"/>
		<rect x="621.5" y="11.3" class="st0" width="7.3" height="127.2"/>
		<polygon class="st0" points="641,11.3 658,11.3 658,299.3 641,299.3 641,11.3 		"/>
		<polygon class="st0" points="670.1,11.3 679.6,11.3 679.6,299.3 670.1,299.3 670.1,11.3 		"/>
		<polygon class="st0" points="687.9,11.3 705,11.3 705,299.3 687.9,299.3 687.9,11.3 		"/>
		<polygon class="st0" points="721.5,11.3 731,11.3 731,299.3 721.5,299.3 721.5,11.3 		"/>
		<polygon class="st0" points="735.1,11.3 742.5,11.3 742.5,299.3 735.1,299.3 735.1,11.3 		"/>
		<polygon class="st0" points="754.6,11.3 771.6,11.3 771.6,299.3 754.6,299.3 754.6,11.3 		"/>
		<polygon class="st0" points="783.7,11.3 793.3,11.3 793.3,299.3 783.7,299.3 783.7,11.3 		"/>
		<polygon class="st0" points="797.4,11.3 804.8,11.3 804.8,299.3 797.4,299.3 797.4,11.3 		"/>
		<polygon class="st0" points="816.8,11.3 833.9,11.3 833.9,299.3 816.8,299.3 816.8,11.3 		"/>
		<polygon class="st0" points="846,11.3 855.5,11.3 855.5,299.3 846,299.3 846,11.3 		"/>
		<polygon class="st0" points="863.8,11.3 880.9,11.3 880.9,299.3 863.8,299.3 863.8,11.3 		"/>
		<polygon class="st0" points="897.4,11.3 906.9,11.3 906.9,299.3 897.4,299.3 897.4,11.3 		"/>
		<polygon class="st0" points="911,11.3 918.4,11.3 918.4,299.3 911,299.3 911,11.3 		"/>
		<polygon class="st0" points="930.5,11.3 947.5,11.3 947.5,299.3 930.5,299.3 930.5,11.3 		"/>
	</g>
	<g>
		<path class="st1" d="M98.2,276.8V169.2h37.1c7,0,13.1,0.7,18,2c5,1.3,9.1,3.2,12.3,5.7c3.2,2.5,5.5,5.5,7,9
			c1.5,3.5,2.2,7.5,2.2,11.9c0,2.5-0.4,4.9-1.1,7.3c-0.7,2.3-1.9,4.5-3.5,6.5c-1.6,2-3.5,3.8-6,5.5c-2.4,1.6-5.3,3-8.6,4.2
			c14.8,3.3,22.2,11.3,22.2,24c0,4.6-0.9,8.8-2.6,12.6c-1.7,3.9-4.3,7.2-7.6,10c-3.3,2.8-7.4,5-12.3,6.6c-4.9,1.6-10.4,2.4-16.7,2.4
			H98.2z M118.2,215.8h16c6.8,0,12-1.2,15.5-3.7s5.3-6.4,5.3-11.8c0-5.6-1.6-9.6-4.8-12c-3.2-2.4-8.1-3.6-14.9-3.6h-17.1V215.8z
			 M118.2,229.6v31.5h20.3c3.7,0,6.8-0.4,9.3-1.3c2.5-0.9,4.5-2.1,6-3.6c1.5-1.5,2.6-3.2,3.3-5.2c0.7-2,1-4.1,1-6.3
			c0-2.3-0.4-4.4-1.1-6.3c-0.7-1.9-1.9-3.4-3.5-4.8c-1.6-1.3-3.6-2.3-6.1-3c-2.5-0.7-5.5-1-9-1H118.2z"/>
		<path class="st1" d="M234.1,199.3c5.7,0,10.9,0.9,15.5,2.8c4.6,1.8,8.6,4.4,11.9,7.8c3.3,3.4,5.8,7.5,7.6,12.3
			c1.8,4.9,2.7,10.3,2.7,16.3c0,6.1-0.9,11.5-2.7,16.4c-1.8,4.9-4.3,9-7.6,12.4c-3.3,3.4-7.2,6.1-11.9,7.9
			c-4.6,1.8-9.8,2.8-15.5,2.8c-5.7,0-10.9-0.9-15.6-2.8c-4.7-1.8-8.6-4.5-11.9-7.9c-3.3-3.4-5.9-7.6-7.7-12.4
			c-1.8-4.9-2.7-10.3-2.7-16.4c0-6,0.9-11.4,2.7-16.3c1.8-4.9,4.4-9,7.7-12.3c3.3-3.4,7.3-6,11.9-7.8
			C223.2,200.2,228.4,199.3,234.1,199.3z M234.1,263.8c6.3,0,11-2.1,14.1-6.4c3-4.3,4.6-10.5,4.6-18.7c0-8.2-1.5-14.5-4.6-18.8
			c-3-4.3-7.8-6.5-14.1-6.5c-6.4,0-11.2,2.2-14.3,6.5c-3.1,4.3-4.6,10.6-4.6,18.8c0,8.2,1.5,14.4,4.6,18.7
			C222.9,261.6,227.7,263.8,234.1,263.8z"/>
		<path class="st1" d="M313.1,166.2v110.6h-18.4V166.2H313.1z"/>
		<path class="st1" d="M372.9,199.3c4.8,0,9.2,0.8,13.3,2.3c4,1.5,7.5,3.8,10.5,6.7c2.9,3,5.2,6.6,6.8,10.9
			c1.6,4.3,2.5,9.2,2.5,14.7c0,1.4-0.1,2.5-0.2,3.5c-0.1,0.9-0.3,1.6-0.7,2.2c-0.3,0.5-0.8,0.9-1.3,1.1c-0.5,0.2-1.2,0.3-2.1,0.3
			h-47.2c0.5,7.8,2.7,13.6,6.3,17.3c3.7,3.7,8.5,5.5,14.6,5.5c3,0,5.5-0.3,7.7-1c2.2-0.7,4-1.5,5.7-2.3c1.6-0.8,3-1.6,4.2-2.3
			c1.2-0.7,2.4-1,3.5-1c0.7,0,1.4,0.1,1.9,0.4c0.5,0.3,1,0.7,1.4,1.3l5.4,6.7c-2,2.4-4.3,4.4-6.8,6c-2.5,1.6-5.2,2.9-7.9,3.9
			c-2.8,1-5.6,1.6-8.4,2c-2.9,0.4-5.6,0.6-8.3,0.6c-5.3,0-10.2-0.9-14.8-2.6c-4.6-1.8-8.5-4.4-11.9-7.8c-3.4-3.5-6-7.7-8-12.8
			c-1.9-5.1-2.9-11-2.9-17.7c0-5.2,0.8-10.1,2.5-14.7c1.7-4.6,4.1-8.6,7.3-12c3.1-3.4,7-6.1,11.5-8.1
			C362,200.3,367.2,199.3,372.9,199.3z M373.2,212.4c-5.4,0-9.5,1.5-12.6,4.5c-3,3-5,7.3-5.8,12.9h34.5c0-2.4-0.3-4.6-1-6.7
			c-0.6-2.1-1.6-4-3-5.5c-1.3-1.6-3-2.8-5.1-3.8C378.3,212.9,376,212.4,373.2,212.4z"/>
		<path class="st1" d="M453.4,278c-6.6,0-11.7-1.9-15.3-5.6c-3.6-3.7-5.4-8.9-5.4-15.5v-42.6H425c-1,0-1.8-0.3-2.6-1
			c-0.7-0.6-1.1-1.6-1.1-2.9v-7.3l12.3-2l3.9-20.8c0.2-1,0.7-1.8,1.4-2.3c0.7-0.5,1.6-0.8,2.7-0.8h9.5v24h20.1v13.1h-20.1v41.4
			c0,2.4,0.6,4.2,1.8,5.6c1.2,1.3,2.8,2,4.8,2c1.1,0,2.1-0.1,2.9-0.4c0.8-0.3,1.4-0.6,2-0.9c0.6-0.3,1.1-0.6,1.5-0.9
			c0.4-0.3,0.9-0.4,1.3-0.4c0.5,0,1,0.1,1.3,0.4c0.3,0.3,0.7,0.7,1.1,1.2l5.5,8.9c-2.7,2.2-5.8,3.9-9.2,5.1
			C460.7,277.4,457.1,278,453.4,278z"/>
		<path class="st1" d="M525.9,199.3c5.7,0,10.9,0.9,15.5,2.8c4.6,1.8,8.6,4.4,11.9,7.8c3.3,3.4,5.8,7.5,7.6,12.3
			c1.8,4.9,2.7,10.3,2.7,16.3c0,6.1-0.9,11.5-2.7,16.4c-1.8,4.9-4.3,9-7.6,12.4c-3.3,3.4-7.2,6.1-11.9,7.9
			c-4.6,1.8-9.8,2.8-15.5,2.8c-5.7,0-10.9-0.9-15.6-2.8c-4.7-1.8-8.6-4.5-11.9-7.9c-3.3-3.4-5.9-7.6-7.7-12.4
			c-1.8-4.9-2.7-10.3-2.7-16.4c0-6,0.9-11.4,2.7-16.3c1.8-4.9,4.4-9,7.7-12.3c3.3-3.4,7.3-6,11.9-7.8
			C515,200.2,520.2,199.3,525.9,199.3z M525.9,263.8c6.3,0,11-2.1,14.1-6.4c3-4.3,4.6-10.5,4.6-18.7c0-8.2-1.5-14.5-4.6-18.8
			c-3-4.3-7.8-6.5-14.1-6.5c-6.4,0-11.2,2.2-14.3,6.5c-3.1,4.3-4.6,10.6-4.6,18.8c0,8.2,1.5,14.4,4.6,18.7
			C514.7,261.6,519.5,263.8,525.9,263.8z"/>
	</g>
</g>
</svg>
