<?xml version="1.0" encoding="utf-8"?>
<!-- Generator: Adobe Illustrator 28.4.1, SVG Export Plug-In . SVG Version: 6.00 Build 0)  -->
<svg version="1.1" id="Camada_1" xmlns="http://www.w3.org/2000/svg" xmlns:xlink="http://www.w3.org/1999/xlink" x="0px" y="0px"
	 viewBox="0 0 653.9 520.9" style="enable-background:new 0 0 653.9 520.9;" xml:space="preserve">
<style type="text/css">
	.st0{fill:#847562;}
	.st1{fill:#F6554B;}
	.st2{fill:#FFFFFF;}
	.st3{fill:#86C656;}
	.st4{fill:#88C856;}
	.st5{display:none;}
	.st6{display:inline;fill:#847562;stroke:#847562;stroke-miterlimit:10;}
</style>
<g>
	<path class="st0" d="M80.6,180.7c-2.5,7.6-4.7,15.4-6.5,23.4l23.8-3.9c0.1-0.2,0.1-0.5,0.2-0.7C91.1,192.9,85.4,186.7,80.6,180.7z
		 M556.5,321.5c-26.5,102-119.2,177.2-229.5,177.2c-83.1,0-156.1-42.7-198.5-107.3l-23.7,3.9c45.4,75.3,127.9,125.6,222.2,125.6
		c124,0,227.6-87,253.2-203.3L556.5,321.5z M327,24.5c82.6,0,155.4,42.3,197.9,106.4l23.8-3.9C503.1,52.3,420.9,2.4,327,2.4
		c-79,0-149.8,35.3-197.3,91.1c9,0.7,18.1,1.4,27.2,3C200,52.1,260.3,24.5,327,24.5z"/>
	<polygon class="st1" points="0,226.8 653.9,120.7 632.3,209.3 653.9,294.9 0,401.8 26.2,307.1 	"/>
	<g>
		<path class="st2" d="M18.8,388.1l22.9-82.9L18.9,235l0.6-0.1l616.4-101.4l-19,77.6l18.9,74.8l-0.5,0.1L18.8,388.1z M20.2,235.8
			l22.6,69.3l0,0.1l-22.6,81.5l614.4-101.7l-18.7-74l0-0.1l18.6-76.3L20.2,235.8z"/>
	</g>
	<path class="st3" d="M283.9,170l-46.3,7.5c2.7-26.6,33.5-33,44.7-52.8c-11.8,16.8-49.9,20-50.4,53.7l-20,3.2
		c-22.1-59.7-77.3-42.8-129.1-69.2c29.5,30.6,92,22,118.2,71l-91.5,14.8c-55.9-48.8-39.4-81.7-63.2-123.4
		c51.7,52.6,138.8-6.1,176.9,83.4c14.2-36.3,53.9-28.6,70.8-54.8C293.9,140.6,295.3,150.8,283.9,170z"/>
	<g>
		<g>
			<g>
				<path class="st2" d="M99.2,350.7v-4.4c0-1.6,0.4-3,1.1-4.2c0.7-1.1,1.5-2,2.2-2.7c0.4-0.4,0.7-0.8,0.9-1.1
					c0.1-0.2,0.3-0.7,0.3-1.7V263c0-1.1-0.4-1.8-1.4-2.1c-1-0.4-1.8-1.2-2.5-2.2c-0.7-1-1-2.5-1-4.4v-3.7l28.9-5
					c7.7-1.3,13.2-0.2,16.6,3.2c3.4,3.4,5,8.5,5,15.3v14.4c0,6.7-1.7,12.3-5,16.7c-3.3,4.4-8.9,7.3-16.5,8.6l-8.6,1.5
					c-1.3,0.2-1.4,0.9-1.4,1.4v27.6c0,1.1,0.2,1.4,0.2,1.5c0.2,0.3,0.5,0.5,0.8,0.8c0.7,0.4,1.5,1.1,2.2,2c0.8,0.9,1.2,2.2,1.2,3.8
					v4.3L99.2,350.7z M99.8,251.5v2.9c0,1.7,0.3,2.9,0.8,3.8c0.6,0.9,1.2,1.5,2,1.8c1.3,0.5,2,1.6,2,3.1v73.6c0,1-0.1,1.7-0.4,2.2
					c-0.2,0.4-0.6,0.9-1.1,1.3c-0.7,0.6-1.4,1.5-2,2.5c-0.7,1-1,2.2-1,3.6v3.3l21.1-3.6v-3.4c0-1.4-0.3-2.5-0.9-3.2
					c-0.7-0.8-1.3-1.4-2-1.8c-0.5-0.3-0.9-0.7-1.2-1c-0.3-0.4-0.4-1.1-0.4-2.1v-27.6c0-0.9,0.4-2.1,2.3-2.4l8.6-1.5
					c7.3-1.3,12.7-4,15.9-8.2c3.2-4.2,4.8-9.6,4.8-16.1v-14.4c0-6.5-1.6-11.4-4.8-14.6c-3.1-3.2-8.4-4.2-15.7-2.9L99.8,251.5z
					 M118.6,294.3c-0.5,0-0.8-0.1-1.1-0.4c-0.4-0.4-0.6-0.9-0.6-1.7v-31.3c0-0.8,0.3-1.4,0.8-1.9c0.5-0.4,1.1-0.7,1.7-0.8l8.4-1.4
					c2.9-0.5,5.1,0.1,6.5,1.9c1.3,1.7,2,4.2,2,7.4v14.6c0,3.2-0.7,5.9-2,8c-1.4,2.2-3.5,3.6-6.4,4.1l-8.7,1.5
					C119,294.3,118.8,294.3,118.6,294.3z M129.6,257.6c-0.5,0-1.1,0.1-1.7,0.2l-8.4,1.4c-0.4,0.1-0.8,0.3-1.2,0.6
					c-0.3,0.3-0.5,0.7-0.5,1.1v31.3c0,0.3,0,0.8,0.3,1c0.2,0.1,0.5,0.2,0.9,0.1l8.7-1.5c2.6-0.5,4.5-1.6,5.7-3.6
					c1.2-2,1.8-4.5,1.8-7.5v-14.6c0-3-0.6-5.2-1.8-6.8C132.6,258.2,131.3,257.6,129.6,257.6z"/>
			</g>
			<g>
				<path class="st2" d="M154.1,341.3v-4.4c0-1.6,0.4-3,1.1-4.2c0.7-1.1,1.5-2,2.2-2.7c0.3-0.4,0.6-0.8,0.9-1.1
					c0.1-0.2,0.3-0.7,0.3-1.6v-73.7c0-0.6-0.1-1-0.3-1.3c-0.2-0.3-0.4-0.4-0.7-0.5c-0.8-0.4-1.6-1-2.3-1.9c-0.7-1-1.1-2.4-1.1-4.4
					v-4.3l27.7-4.8c3.9-0.7,7.2-0.7,9.9,0c2.7,0.7,5,1.9,6.8,3.6c1.8,1.7,3.1,3.9,3.9,6.5c0.8,2.6,1.2,5.6,1.2,8.9v13.7
					c0,2.9-0.6,5.7-1.8,8.3c-1.2,2.6-2.7,4.8-4.6,6.7c-0.3,0.3-0.4,0.6-0.4,0.9c0,0.3,0.2,0.6,0.6,0.9c2.1,1.2,3.6,3.1,4.7,5.7
					c1,2.5,1.5,5.5,1.5,8.8v19.5c0,1,0.2,1.1,0.2,1.1c0.3,0.2,0.7,0.3,1.1,0.5l0,0c0.7,0.3,1.5,0.8,2.2,1.4c0.8,0.7,1.2,1.8,1.2,3.6
					v5.6l-11.4,2c-2.4,0.4-4.3,0.1-5.5-1c-1.2-1.1-1.8-2.7-1.8-4.8v-26c0-3-0.6-5.2-1.8-6.6c-1.2-1.4-3-1.8-5.7-1.4l-8.2,1.4
					c-0.9,0.2-1.3,0.7-1.3,1.7v27.7c0,1,0.2,1.4,0.3,1.5c0.2,0.3,0.5,0.6,0.9,0.8c0.7,0.4,1.4,1.1,2.2,2c0.8,0.9,1.2,2.2,1.2,3.8
					v4.3L154.1,341.3z M155.2,241.9v3.4c0,1.7,0.3,3,0.9,3.8c0.6,0.8,1.2,1.3,1.9,1.6c0.4,0.1,0.8,0.4,1.1,0.9
					c0.3,0.4,0.5,1.1,0.5,1.9v73.7c0,1-0.2,1.7-0.5,2.2c-0.3,0.4-0.6,0.8-1,1.3c-0.7,0.7-1.4,1.5-2.1,2.6c-0.7,1-1,2.2-1,3.6v3.3
					l21-3.6V333c0-1.4-0.3-2.5-0.9-3.2c-0.7-0.8-1.3-1.4-2-1.8c-0.4-0.4-0.8-0.7-1.1-1c-0.4-0.4-0.5-1.1-0.5-2.1v-27.7
					c0-1.5,0.7-2.4,2.1-2.6l8.2-1.4c3-0.5,5.2,0.1,6.6,1.7c1.4,1.6,2,4,2,7.2v26c0,1.8,0.5,3.1,1.5,4c1,0.9,2.6,1.2,4.7,0.8
					l10.6-1.8v-4.7c0-1.4-0.3-2.4-0.8-2.8c-0.6-0.5-1.3-0.9-1.9-1.2c-0.5-0.2-0.8-0.4-1.2-0.6c-0.6-0.3-0.7-1.3-0.7-2v-19.5
					c0-3.2-0.5-6-1.4-8.4c-0.9-2.4-2.4-4.1-4.3-5.2c-0.7-0.5-1-1.1-1-1.7c0-0.6,0.2-1.1,0.7-1.7c1.8-1.8,3.3-4,4.4-6.4
					c1.1-2.5,1.7-5.1,1.7-7.8v-13.7c0-3.2-0.4-6.1-1.2-8.6c-0.8-2.5-2-4.5-3.6-6.1c-1.6-1.6-3.8-2.7-6.3-3.3c-2.6-0.6-5.8-0.6-9.5,0
					L155.2,241.9z M173.4,284.7c-0.4,0-0.7-0.1-1.1-0.3c-0.5-0.3-0.8-0.8-0.8-1.4v-31.6c0-1,0.4-2.4,2.5-2.7l7.8-1.3
					c3-0.5,5.2,0.1,6.6,1.8c1.3,1.7,2,4.1,2,7.3v14.6c0,3.2-0.7,5.9-2,8c-1.4,2.2-3.5,3.6-6.5,4.1l-8.4,1.4
					C173.7,284.7,173.6,284.7,173.4,284.7z M183.9,248.2c-0.6,0-1.1,0.1-1.8,0.2l-7.8,1.3c-1.5,0.3-1.7,1.1-1.7,1.7V283
					c0,0.3,0.1,0.5,0.3,0.5c0.3,0.1,0.5,0.2,0.7,0.2l8.4-1.4c2.7-0.5,4.6-1.7,5.8-3.6c1.2-2,1.8-4.5,1.8-7.5v-14.6
					c0-3-0.6-5.2-1.8-6.7C186.9,248.8,185.7,248.2,183.9,248.2z"/>
			</g>
			<g>
				<path class="st2" d="M231.5,328.6c-1.1,0-2.1-0.1-3.1-0.2c-2.9-0.3-5.5-1.2-7.6-2.5c-2.2-1.4-3.9-3.2-5.2-5.6
					c-1.2-2.4-1.8-5.3-1.8-8.7V250c0-3.4,0.6-6.5,1.8-9.3c1.2-2.8,2.9-5.2,5.1-7.3c2.2-2,4.7-3.7,7.6-5c2.9-1.3,6-2.2,9.3-2.8
					c3.3-0.6,6.4-0.7,9.3-0.4c2.9,0.3,5.4,1.1,7.6,2.4c2.1,1.3,3.9,3.2,5.1,5.6c1.2,2.4,1.8,5.3,1.8,8.7v61.5c0,3.4-0.6,6.5-1.8,9.3
					c-1.2,2.8-2.9,5.2-5,7.3c-2.1,2.1-4.6,3.8-7.5,5.1c-2.9,1.3-6,2.2-9.3,2.8l0,0C235.5,328.4,233.5,328.6,231.5,328.6z
					 M243.7,226.1c-1.9,0-3.9,0.2-6,0.5c-3.2,0.6-6.3,1.5-9,2.7c-2.8,1.3-5.2,2.9-7.3,4.8c-2.1,1.9-3.7,4.3-4.9,6.9
					c-1.2,2.6-1.7,5.6-1.7,8.9v61.5c0,3.3,0.6,6,1.7,8.3c1.1,2.2,2.8,4,4.8,5.2c2,1.3,4.5,2.1,7.2,2.4c2.8,0.3,5.8,0.2,9-0.4
					c3.2-0.6,6.2-1.5,9-2.7c2.8-1.3,5.2-2.9,7.2-4.9c2-2,3.6-4.3,4.8-7c1.2-2.6,1.7-5.7,1.7-8.9V242c0-3.3-0.6-6-1.7-8.3
					c-1.1-2.2-2.7-4-4.7-5.2c-2-1.2-4.4-2-7.1-2.3C245.7,226.1,244.7,226.1,243.7,226.1z M235.3,317.2c-0.5,0-1,0-1.5-0.1
					c-1.3-0.1-2.5-0.5-3.5-1.2c-1-0.6-1.9-1.5-2.6-2.7c-0.7-1.2-1-2.7-1-4.5v-60.4c0-1.8,0.3-3.5,1-4.8c0.6-1.3,1.5-2.5,2.5-3.5
					c1-1,2.2-1.7,3.4-2.3c1.3-0.6,2.6-1,3.8-1.2c1.3-0.2,2.6-0.3,3.8-0.1c1.3,0.2,2.4,0.5,3.4,1.2c1,0.6,1.9,1.5,2.6,2.7
					c0.7,1.2,1,2.7,1,4.5v60.4c0,1.8-0.3,3.5-1,4.8c-0.6,1.4-1.5,2.5-2.5,3.5c-1,1-2.1,1.7-3.4,2.3c-1.2,0.6-2.5,1-3.8,1.2
					C236.9,317.2,236.1,317.2,235.3,317.2z M239.8,237.3c-0.7,0-1.4,0.1-2.1,0.2c-1.2,0.2-2.4,0.6-3.6,1.1c-1.2,0.5-2.3,1.3-3.2,2.1
					c-0.9,0.9-1.7,1.9-2.3,3.2c-0.6,1.2-0.9,2.7-0.9,4.4v60.4c0,1.7,0.3,3,0.9,4c0.6,1,1.3,1.8,2.2,2.3c0.9,0.5,2,0.9,3.1,1
					c1.2,0.1,2.4,0.1,3.6-0.1c1.2-0.2,2.4-0.6,3.5-1.1c1.1-0.5,2.2-1.2,3.1-2.1c0.9-0.9,1.7-1.9,2.3-3.2c0.6-1.2,0.9-2.7,0.9-4.4
					v-60.4c0-1.7-0.3-3-0.9-4c-0.6-1-1.3-1.8-2.2-2.3c-0.9-0.5-1.9-0.9-3.1-1C240.7,237.3,240.2,237.3,239.8,237.3z"/>
			</g>
			<g>
				<path class="st2" d="M268,321.6v-4.6c0-1.6,0.4-3,1.1-4.2c0.7-1.1,1.5-2,2.2-2.7c0.3-0.3,0.6-0.6,0.8-1c0.1-0.2,0.3-0.7,0.3-1.6
					v-74.4c-0.8-0.2-1.5-0.6-2.1-1.1c-0.6-0.4-1.2-1.1-1.7-2.1c-0.5-0.9-0.7-2.2-0.7-3.8v-4.8l15.4-2.7c1.2-0.2,2.1-0.1,2.8,0.4
					c0.6,0.5,1.1,1.2,1.4,2.1l0,0.2c0,0.1,0.2,0.7,1.3,4.1c0.9,2.7,2,6,3.3,10c1.3,4,2.8,8.3,4.3,13c1.5,4.7,3,9.3,4.4,13.6
					c1.4,4.3,2.6,8.1,3.6,11.4l1.7,5.1l0-50.7c0-1-0.2-1.4-0.3-1.5c-0.2-0.3-0.5-0.6-0.9-0.8c-0.7-0.4-1.4-1.1-2.2-2
					c-0.8-0.9-1.2-2.2-1.2-3.8v-4.3l21.7-3.7v4.4c0,1.6-0.4,3-1.1,4.2c-0.7,1.1-1.5,2-2.2,2.7c-0.3,0.3-0.6,0.7-0.8,1.1
					c-0.1,0.2-0.3,0.7-0.4,1.6l0,83.1c0,1-0.3,1.9-0.9,2.8c-0.6,0.9-1.5,1.5-2.7,1.7l-7.7,1.3c-1.7,0.3-2.6-0.5-3-1.3
					c-0.5-0.9-1-2.1-1.4-3.6c-0.2-0.4-0.7-2-1.7-4.9l-3.5-10.4c-1.4-4-2.8-8.4-4.4-13c-1.5-4.6-3-8.9-4.3-12.8
					c-1.3-3.9-2.4-7.2-3.3-9.8c-0.3-1-0.6-1.7-0.7-2.2v48.6c0,1.1,0.2,1.5,0.3,1.6c0.2,0.3,0.5,0.5,0.9,0.6c0.8,0.5,1.6,1.2,2.3,2.1
					c0.7,0.9,1.1,2.2,1.1,3.8v4.4L268,321.6z M269,222.3v4c0,1.4,0.2,2.5,0.6,3.3c0.4,0.8,0.9,1.4,1.4,1.7c0.6,0.5,1.3,0.8,2.1,1
					l0.4,0.1v75.2c0,1-0.2,1.7-0.5,2.2c-0.3,0.4-0.6,0.8-1,1.2c-0.7,0.6-1.4,1.5-2,2.5c-0.7,1-1,2.2-1,3.6v3.4l19.7-3.4v-3.6
					c0-1.4-0.3-2.5-0.9-3.2c-0.6-0.8-1.3-1.4-1.9-1.8c-0.5-0.2-0.9-0.5-1.2-0.9c-0.4-0.4-0.5-1.1-0.5-2.2v-50.2c0-0.6,0-1,0.4-1.1
					l0.3-0.1l0.3,0.2c0.1,0.1,0.3,0.3,0.4,0.5l0.1,0.1v0.1c0,0,0.2,0.6,1.3,3.9c0.9,2.6,2,5.9,3.3,9.8c1.3,3.9,2.8,8.2,4.3,12.8
					c1.5,4.6,3,8.9,4.4,13l3.5,10.4c1,2.9,1.5,4.5,1.7,4.9c0.4,1.4,0.9,2.6,1.4,3.4c0.2,0.4,0.7,1,1.9,0.8l7.7-1.3
					c0.9-0.2,1.6-0.6,2.1-1.3c0.5-0.7,0.7-1.5,0.7-2.2v-83.1c0.1-0.9,0.3-1.6,0.5-2c0.2-0.4,0.5-0.8,0.9-1.3
					c0.7-0.7,1.4-1.5,2.1-2.6c0.7-1,1-2.2,1-3.6v-3.2l-19.7,3.4v3.4c0,1.4,0.3,2.5,0.9,3.2c0.7,0.8,1.3,1.4,2,1.8
					c0.4,0.4,0.8,0.7,1.1,1c0.3,0.4,0.5,1.1,0.5,2.1v52.5c0,0.4-0.1,0.6-0.4,0.7c-0.1,0-0.4,0.1-0.7-0.2c-0.2-0.2-0.3-0.4-0.4-0.6
					l-2.2-6.6c-1.1-3.3-2.3-7.1-3.6-11.4c-1.4-4.3-2.8-8.8-4.4-13.6c-1.5-4.7-3-9.1-4.3-13c-1.3-4-2.4-7.3-3.3-10
					c-1.1-3.4-1.3-4.1-1.3-4.3c-0.2-0.7-0.6-1.2-1-1.6c-0.4-0.3-1.1-0.4-2-0.2L269,222.3z"/>
			</g>
			<g>
				<path class="st2" d="M349.6,307.8c-1.1,0-2.1-0.1-3.1-0.2c-2.9-0.3-5.5-1.1-7.6-2.4c-2.2-1.3-3.9-3.2-5.2-5.6
					c-1.2-2.4-1.8-5.3-1.8-8.7v-67.3c0-1-0.2-1.4-0.2-1.5c-0.2-0.2-0.4-0.4-0.8-0.6c-0.8-0.5-1.6-1.1-2.3-2
					c-0.8-0.9-1.2-2.2-1.2-3.8v-4.4l23.5-4.1v4.6c0,1.6-0.5,3-1.4,4.2c-0.9,1.1-1.7,2-2.4,2.7c-0.4,0.3-0.7,0.6-0.9,1
					c-0.1,0.2-0.3,0.7-0.3,1.7v66.3c0,3.3,1,5.5,3,6.6c2,1.2,4.3,1.6,6.6,1.2c2.3-0.4,4.5-1.6,6.5-3.5c2-1.9,3-4.5,3-7.8v-66.7
					c0-0.7-0.2-1-0.3-1.1c-0.2-0.2-0.5-0.4-0.8-0.6c-0.8-0.4-1.5-1.1-2.3-2c-0.8-0.9-1.2-2.2-1.2-3.8v-4.4l22.7-3.9v4.6
					c0,1.6-0.3,3-0.9,4.1c-0.6,1.1-1.3,2-2,2.7c-0.3,0.3-0.6,0.6-0.8,0.9c-0.1,0.2-0.3,0.6-0.4,1.4l0,0.2v67.5
					c0,3.4-0.6,6.5-1.8,9.3c-1.2,2.8-2.9,5.2-5,7.2c-2.1,2-4.6,3.7-7.4,5c-2.8,1.3-5.9,2.2-9.2,2.8
					C353.7,307.7,351.6,307.8,349.6,307.8z M328.4,212.1v3.6c0,1.4,0.3,2.5,0.9,3.2c0.7,0.8,1.3,1.4,2,1.8c0.5,0.2,0.9,0.5,1.2,0.9
					c0.3,0.4,0.4,1.1,0.4,2.1v67.3c0,3.3,0.6,6,1.7,8.3c1.1,2.2,2.8,4,4.8,5.2c2,1.2,4.5,2,7.2,2.3c2.8,0.3,5.8,0.2,9-0.4
					s6.2-1.5,9-2.7c2.7-1.2,5.1-2.9,7.2-4.8c2-1.9,3.6-4.3,4.8-6.9c1.2-2.6,1.7-5.7,1.7-8.9v-67.7c0.1-0.9,0.3-1.5,0.5-1.9
					c0.2-0.4,0.6-0.8,0.9-1.1c0.7-0.6,1.3-1.4,1.8-2.5c0.5-1,0.8-2.2,0.8-3.6v-3.4l-20.7,3.6v3.6c0,1.4,0.3,2.5,0.9,3.2
					c0.7,0.8,1.3,1.4,2,1.8c0.4,0.2,0.7,0.5,1,0.8c0.4,0.4,0.5,1,0.5,1.8v66.7c0,3.6-1.1,6.4-3.3,8.5c-2.2,2.1-4.5,3.3-7,3.7
					c-2.6,0.4-5,0-7.3-1.3c-2.3-1.3-3.5-3.9-3.5-7.5v-66.3c0-1,0.1-1.7,0.4-2.2c0.3-0.4,0.6-0.9,1.1-1.2c0.6-0.6,1.4-1.5,2.2-2.6
					c0.8-1,1.2-2.2,1.2-3.6v-3.4L328.4,212.1z"/>
			</g>
			<g>
				<path class="st2" d="M405.7,297.9v-4.4c0-1.6,0.4-3,1.1-4.2c0.7-1.1,1.5-2,2.2-2.7c0.3-0.4,0.6-0.7,0.9-1.1
					c0.1-0.2,0.3-0.7,0.3-1.6v-73.7c0-0.6-0.2-0.7-0.4-0.8c-0.3-0.2-0.7-0.2-1-0.2l-5.8,1c-0.2,0-0.5,0.2-1.1,0.5
					c-0.4,0.3-0.5,0.6-0.5,1.2c0,1.6-0.4,2.9-1.3,3.9c-0.9,1-2.4,1.7-4.7,2l-6.7,1.2v-12.5c0-2.2,0.6-3.8,1.8-5
					c1.2-1.1,3-1.9,5.4-2.3l43.2-7.4c2.3-0.4,3.9-0.1,4.8,0.8l0,0c0.9,0.9,1.3,2.5,1.3,4.9v11.8l-7.6,1.3c-1.4,0.2-2.5-0.1-3.4-0.9
					c-0.8-0.8-1.2-2-1.2-3.5c0-0.4-0.1-0.8-0.2-0.9c-0.1-0.1-0.3-0.1-0.6-0.1l-6.5,1.1c-0.4,0.1-0.8,0.3-1.1,0.6
					c-0.3,0.3-0.5,0.8-0.5,1.5v73.3c0,1,0.2,1.4,0.3,1.5c0.2,0.3,0.6,0.5,0.9,0.8c0.7,0.4,1.5,1.1,2.2,2c0.7,0.9,1.1,2.2,1.1,3.8
					v4.3L405.7,297.9z M409.1,208c0.4,0,0.8,0.1,1.2,0.3c0.4,0.2,0.9,0.7,0.9,1.7v73.7c0,1-0.2,1.7-0.5,2.2c-0.3,0.4-0.6,0.8-1,1.3
					c-0.7,0.7-1.4,1.5-2.1,2.6c-0.7,1-1,2.2-1,3.6v3.3l21-3.6v-3.4c0-1.4-0.3-2.5-0.9-3.2c-0.6-0.8-1.3-1.4-1.9-1.8
					c-0.5-0.3-0.9-0.6-1.2-1c-0.3-0.4-0.5-1.1-0.5-2.1v-73.3c0-0.9,0.2-1.7,0.7-2.2c0.5-0.5,1-0.8,1.7-0.9l6.5-1.1
					c0.6-0.1,1.1,0,1.4,0.3c0.4,0.3,0.6,0.9,0.6,1.7c0,1.3,0.3,2.2,0.9,2.8c0.6,0.6,1.4,0.8,2.5,0.6l6.7-1.2v-11
					c0-2.1-0.4-3.5-1-4.1v0c-0.7-0.7-2-0.8-3.9-0.5l-43.2,7.4c-2.2,0.4-3.8,1.1-4.8,2c-1,0.9-1.5,2.4-1.5,4.2v11.3l5.5-1
					c2-0.3,3.4-0.9,4.1-1.7c0.7-0.8,1.1-1.9,1.1-3.3c0-0.9,0.3-1.5,0.9-2c0.6-0.4,1-0.6,1.5-0.7l5.8-1
					C408.8,208.1,408.9,208,409.1,208z"/>
			</g>
			<g>
				<path class="st2" d="M451.3,290v-4.4c0-1.6,0.4-3,1.1-4.2c0.7-1.1,1.5-2,2.2-2.7c0.3-0.4,0.6-0.8,0.8-1.1
					c0.1-0.2,0.3-0.7,0.3-1.6v-73.7c0-0.6-0.1-1-0.3-1.3c-0.2-0.3-0.4-0.4-0.7-0.5c-0.8-0.4-1.6-1-2.3-1.9c-0.7-1-1.1-2.4-1.1-4.4
					v-4.3l27.7-4.8c3.8-0.7,7.2-0.7,9.9,0c2.7,0.7,5,1.9,6.8,3.6c1.8,1.7,3.1,3.9,3.9,6.5c0.8,2.6,1.2,5.6,1.2,8.9v13.7
					c0,2.9-0.6,5.7-1.8,8.3c-1.2,2.6-2.7,4.8-4.6,6.7c-0.3,0.3-0.4,0.6-0.4,0.9c0,0.3,0.2,0.6,0.6,0.9c2.1,1.2,3.6,3.1,4.7,5.7
					c1,2.5,1.5,5.5,1.5,8.8v19.5c0,1,0.2,1.1,0.2,1.1c0.3,0.2,0.7,0.3,1.1,0.5l0,0c0.8,0.3,1.5,0.8,2.2,1.4c0.8,0.7,1.2,1.8,1.2,3.6
					v5.6l-11.4,2c-2.4,0.4-4.3,0.1-5.5-1c-1.2-1.1-1.8-2.7-1.8-4.8v-26c0-3-0.6-5.2-1.8-6.6c-1.2-1.4-3.1-1.8-5.7-1.4l-8.2,1.4
					c-0.9,0.2-1.3,0.7-1.3,1.7v27.7c0,1,0.2,1.4,0.3,1.5c0.2,0.3,0.5,0.6,0.9,0.8c0.7,0.4,1.4,1.1,2.2,2c0.8,0.9,1.2,2.2,1.2,3.8
					v4.3L451.3,290z M452.4,190.7v3.4c0,1.7,0.3,3,0.9,3.8c0.6,0.8,1.2,1.3,1.9,1.6c0.4,0.1,0.8,0.4,1.1,0.9
					c0.3,0.4,0.5,1.1,0.5,1.9v73.7c0,1-0.2,1.7-0.5,2.2c-0.3,0.4-0.6,0.8-1,1.3c-0.7,0.7-1.4,1.5-2.1,2.6c-0.7,1-1,2.2-1,3.6v3.3
					l21-3.6v-3.4c0-1.4-0.3-2.5-0.9-3.2c-0.7-0.8-1.3-1.4-2-1.8c-0.4-0.4-0.8-0.7-1.1-1c-0.3-0.4-0.5-1.1-0.5-2.1V246
					c0-1.5,0.7-2.4,2.1-2.6l8.2-1.4c3-0.5,5.2,0.1,6.6,1.7c1.4,1.6,2,4,2,7.2v26c0,1.8,0.5,3.1,1.5,4c1,0.9,2.6,1.2,4.7,0.8
					l10.6-1.8v-4.7c0-1.4-0.3-2.4-0.8-2.8c-0.6-0.5-1.3-0.9-1.9-1.2c-0.5-0.2-0.8-0.4-1.2-0.6c-0.6-0.3-0.7-1.3-0.7-2V249
					c0-3.2-0.5-6-1.4-8.4c-0.9-2.4-2.4-4.1-4.3-5.2c-0.7-0.5-1-1.1-1-1.7c0-0.6,0.2-1.1,0.7-1.7c1.8-1.8,3.3-4,4.4-6.4
					c1.1-2.5,1.7-5.1,1.7-7.8V204c0-3.2-0.4-6.1-1.2-8.6c-0.8-2.5-2-4.5-3.6-6.1c-1.7-1.6-3.8-2.7-6.3-3.3c-2.6-0.6-5.8-0.6-9.5,0
					L452.4,190.7z M470.6,233.5c-0.4,0-0.7-0.1-1.1-0.3c-0.5-0.3-0.8-0.8-0.8-1.4v-31.5c0-1,0.4-2.4,2.5-2.7l7.8-1.3
					c3-0.5,5.2,0.1,6.6,1.8c1.3,1.7,2,4.1,2,7.3v14.6c0,3.2-0.7,5.9-2,8c-1.4,2.2-3.5,3.6-6.5,4.1l-8.4,1.4
					C470.9,233.5,470.8,233.5,470.6,233.5z M481.1,197c-0.6,0-1.2,0.1-1.8,0.2l-7.8,1.3c-1.5,0.3-1.7,1.1-1.7,1.7v31.5
					c0,0.3,0.1,0.5,0.3,0.5c0.2,0.1,0.5,0.2,0.7,0.2l8.4-1.4c2.7-0.5,4.6-1.6,5.8-3.6c1.2-2,1.8-4.5,1.8-7.5v-14.6
					c0-3-0.6-5.2-1.8-6.7C484.1,197.5,482.9,197,481.1,197z"/>
			</g>
			<g>
				<path class="st2" d="M520.1,278.2v-4.6c0-1.6,0.4-3,1.1-4.2c0.7-1.1,1.5-2,2.2-2.7c0.4-0.3,0.7-0.6,0.9-1
					c0.1-0.2,0.3-0.7,0.3-1.5V239c-2.9-8.7-5.4-16.2-7.7-22.9c-1-2.8-1.9-5.7-2.9-8.5c-0.9-2.8-1.7-5.3-2.5-7.5
					c-0.7-2.2-1.3-3.9-1.8-5.3c-0.6-1.7-0.7-2.2-0.8-2.4c-0.1-0.4-0.4-0.7-0.7-0.9c-0.4-0.3-0.7-0.5-0.8-0.6c-0.8-0.4-1.5-1-2.2-1.9
					c-0.7-0.9-1.1-2.2-1.1-3.8v-4.4l22.5-3.9v5c0,1.7-0.3,3-0.9,4c-0.6,0.9-1.3,1.7-2,2.3l-1.3,1.3c-0.2,0.2-0.4,0.5-0.3,1.2l0,0.1
					c0,0,0,0.3,0.4,1.6c0.3,1,0.7,2.3,1.1,3.8c0.4,1.5,0.9,3.2,1.5,5c0.6,1.9,1.1,3.7,1.7,5.6c1.3,4.3,2.7,9.3,4.3,14.6l0,0
					c1.8-6,3.5-11.5,4.9-16.5l1.9-6.2c0.6-2,1.2-3.9,1.7-5.6c0.5-1.6,0.9-3,1.3-4.1c0.5-1.4,0.5-1.7,0.5-1.7l0-0.1
					c0.1-0.5,0.1-0.9-0.1-1c-0.4-0.3-0.8-0.6-1.2-0.8c-0.7-0.3-1.5-0.9-2.1-1.8c-0.7-0.9-1-2.2-1-3.9v-4.4l22.6-3.9v4.6
					c0,1.6-0.3,3-1,4.1c-0.6,1.1-1.4,2-2.1,2.6c-0.3,0.3-0.8,0.7-1.3,1.1c-0.5,0.4-0.7,0.9-0.9,1.5c-0.1,0.2-0.2,0.6-0.9,2.7
					c-0.5,1.6-1.1,3.6-1.8,6c-0.7,2.4-1.5,5.2-2.5,8.2c-0.9,3.1-1.9,6.2-2.8,9.4c-2.3,7.4-4.8,15.8-7.7,25.1v25.1
					c0,1.1,0.2,1.4,0.2,1.5c0.2,0.2,0.4,0.4,0.8,0.6c0.8,0.5,1.6,1.1,2.3,2c0.8,0.9,1.2,2.2,1.2,3.8v4.4L520.1,278.2z M505.3,181.7
					v3.6c0,1.4,0.3,2.5,0.9,3.2c0.6,0.8,1.2,1.3,1.9,1.6l0.1,0.1c0.2,0.1,0.4,0.3,0.8,0.6c0.5,0.3,0.8,0.8,1,1.4l0,0.2
					c0,0,0.1,0.4,0.7,2.2c0.5,1.4,1.1,3.2,1.8,5.3c0.7,2.2,1.5,4.7,2.5,7.5c0.9,2.8,1.9,5.6,2.8,8.5c2.3,6.7,4.8,14.2,7.7,22.9
					l0,0.2v25.3c0,0.9-0.1,1.6-0.4,2c-0.3,0.4-0.6,0.9-1.1,1.2c-0.6,0.6-1.3,1.4-2,2.5c-0.7,1-1,2.2-1,3.6v3.4l21.1-3.6v-3.6
					c0-1.4-0.3-2.5-0.9-3.2c-0.7-0.8-1.3-1.4-2-1.8c-0.5-0.2-0.9-0.5-1.2-0.9c-0.3-0.4-0.4-1.1-0.4-2.1l0-25.3
					c2.8-9.3,5.4-17.7,7.7-25.2c1-3.2,1.9-6.3,2.8-9.4c0.9-3.1,1.7-5.8,2.5-8.2c0.7-2.4,1.3-4.4,1.8-6c0.7-2.1,0.8-2.6,0.9-2.7
					c0.2-0.7,0.6-1.4,1.2-1.9c0.5-0.4,1-0.8,1.3-1.1c0.7-0.5,1.3-1.3,1.9-2.3c0.6-1,0.9-2.2,0.9-3.6v-3.4l-20.6,3.6v3.6
					c0,1.5,0.3,2.6,0.8,3.3c0.6,0.8,1.2,1.3,1.8,1.6c0.5,0.3,0.9,0.6,1.3,0.9c0.4,0.3,0.8,0.9,0.5,2c0,0.2-0.1,0.6-0.6,2
					c-0.4,1.1-0.8,2.5-1.3,4.1c-0.5,1.7-1,3.5-1.7,5.6l-1.9,6.2c-1.5,5-3.2,10.6-5,16.8l-0.1,0.3l-1.5,0.3l-0.1-0.4
					c-1.6-5.5-3-10.5-4.4-15c-0.5-1.9-1.1-3.7-1.7-5.5c-0.6-1.8-1.1-3.5-1.5-5c-0.4-1.5-0.8-2.8-1.1-3.8c-0.4-1.3-0.5-1.7-0.5-1.9
					c-0.3-1,0.2-1.7,0.5-2.1l1.3-1.3c0.7-0.6,1.3-1.3,1.9-2.1c0.5-0.8,0.8-2,0.8-3.5v-3.8L505.3,181.7z"/>
			</g>
		</g>
		<g>
			<path class="st2" d="M123.5,246.1c7.5-1.3,12.9-0.3,16.2,3c3.3,3.3,4.9,8.3,4.9,14.9v14.4c0,6.6-1.6,12.1-4.9,16.4
				c-3.3,4.3-8.7,7.1-16.2,8.4l-8.6,1.5c-1.2,0.2-1.9,0.9-1.9,1.9v27.6c0,0.9,0.1,1.5,0.3,1.8c0.2,0.3,0.6,0.6,1,0.9
				c0.7,0.4,1.4,1,2.1,1.9c0.7,0.9,1.1,2,1.1,3.5v3.8l-22.1,3.8v-3.8c0-1.5,0.4-2.8,1.1-3.9c0.7-1.1,1.4-2,2.1-2.6
				c0.4-0.4,0.8-0.8,1-1.2c0.2-0.4,0.3-1,0.3-1.9V263c0-1.3-0.6-2.2-1.7-2.6c-0.9-0.4-1.6-1-2.3-2c-0.6-1-0.9-2.3-0.9-4.1V251
				L123.5,246.1z M131.5,266.1c0-3.1-0.6-5.5-1.9-7.1c-1.3-1.6-3.3-2.2-6-1.7l-8.4,1.4c-0.5,0.1-1,0.3-1.5,0.7
				c-0.4,0.4-0.7,0.9-0.7,1.5v31.3c0,1.2,0.6,1.8,1.7,1.6l8.7-1.5c2.7-0.5,4.7-1.7,6-3.8c1.3-2.1,1.9-4.7,1.9-7.8V266.1z"/>
			<path class="st2" d="M200.5,321.8c0.7,0.3,1.4,0.8,2.1,1.3c0.7,0.5,1,1.6,1,3.2v5.2l-11,1.9c-2.3,0.4-4,0.1-5.1-0.9
				c-1.1-1-1.7-2.5-1.7-4.4v-26c0-3.1-0.6-5.4-1.9-6.9c-1.3-1.5-3.3-2-6.2-1.5l-8.2,1.4c-1.1,0.2-1.7,0.9-1.7,2.2v27.7
				c0,0.9,0.1,1.5,0.4,1.8c0.3,0.3,0.6,0.6,0.9,0.9c0.7,0.4,1.4,1,2.1,1.9c0.7,0.9,1.1,2,1.1,3.5v3.8l-22,3.8v-3.8
				c0-1.5,0.4-2.8,1.1-3.9c0.7-1.1,1.4-2,2.1-2.6c0.4-0.4,0.7-0.8,0.9-1.2c0.3-0.4,0.4-1,0.4-1.9v-73.7c0-0.7-0.1-1.2-0.4-1.6
				c-0.3-0.4-0.6-0.6-0.9-0.7c-0.7-0.3-1.4-0.9-2.1-1.8c-0.7-0.9-1-2.2-1-4.1v-3.8l27.3-4.7c3.8-0.7,7-0.7,9.7,0
				c2.7,0.6,4.8,1.8,6.6,3.4c1.7,1.6,3,3.8,3.8,6.3c0.8,2.6,1.2,5.5,1.2,8.7v13.7c0,2.8-0.6,5.5-1.7,8.1c-1.1,2.5-2.7,4.7-4.5,6.5
				c-0.8,0.9-0.7,1.8,0.3,2.6c2,1.2,3.5,3,4.5,5.5c1,2.5,1.5,5.4,1.5,8.6v19.5c0,0.9,0.2,1.4,0.5,1.6
				C199.7,321.4,200.1,321.6,200.5,321.8z M185.8,256.6c0-3.1-0.6-5.4-1.9-7c-1.3-1.6-3.3-2.1-6.2-1.7l-7.8,1.3
				c-1.4,0.2-2.1,1-2.1,2.2V283c0,0.4,0.2,0.8,0.5,1c0.4,0.2,0.7,0.3,1.1,0.2l8.4-1.4c2.8-0.5,4.9-1.8,6.2-3.8
				c1.3-2.1,1.9-4.7,1.9-7.8V256.6z"/>
			<path class="st2" d="M233.3,327.5c-3.3,0.6-6.3,0.7-9.1,0.4c-2.8-0.3-5.3-1.1-7.4-2.4c-2.1-1.3-3.8-3.1-5-5.4
				c-1.2-2.3-1.8-5.1-1.8-8.5V250c0-3.4,0.6-6.4,1.8-9.1c1.2-2.7,2.9-5.1,5-7.1c2.1-2,4.6-3.6,7.4-4.9c2.8-1.3,5.9-2.2,9.1-2.8
				c3.3-0.6,6.3-0.7,9.1-0.4c2.8,0.3,5.3,1.1,7.4,2.4c2.1,1.3,3.7,3.1,4.9,5.4c1.2,2.3,1.8,5.1,1.8,8.5v61.5c0,3.4-0.6,6.4-1.8,9.1
				c-1.2,2.7-2.8,5.1-4.9,7.1c-2.1,2-4.5,3.7-7.4,5C239.6,326.1,236.6,327,233.3,327.5z M243.5,244.8c0-1.8-0.3-3.2-0.9-4.3
				c-0.6-1.1-1.4-1.9-2.4-2.5c-1-0.6-2.1-0.9-3.2-1.1c-1.2-0.1-2.4-0.1-3.6,0.1c-1.2,0.2-2.5,0.6-3.7,1.2c-1.2,0.6-2.3,1.3-3.3,2.2
				c-1,0.9-1.8,2-2.4,3.3c-0.6,1.3-0.9,2.8-0.9,4.6v60.4c0,1.8,0.3,3.2,0.9,4.3c0.6,1.1,1.4,1.9,2.4,2.5c1,0.6,2.1,0.9,3.3,1.1
				c1.2,0.1,2.5,0.1,3.7-0.1c1.2-0.2,2.5-0.6,3.6-1.2c1.2-0.6,2.3-1.3,3.2-2.2c1-0.9,1.8-2,2.4-3.3c0.6-1.3,0.9-2.8,0.9-4.6V244.8z"
				/>
			<path class="st2" d="M318.5,212.5v3.8c0,1.5-0.4,2.8-1.1,3.9c-0.7,1.1-1.4,2-2.1,2.6c-0.4,0.4-0.6,0.8-0.9,1.2
				c-0.2,0.4-0.4,1-0.5,1.8V309c0,0.9-0.3,1.7-0.8,2.5c-0.5,0.8-1.3,1.3-2.4,1.5l-7.7,1.3c-1.1,0.2-2-0.1-2.5-1
				c-0.5-0.9-0.9-2-1.4-3.5c-0.2-0.4-0.8-2.1-1.7-4.9c-1-2.9-2.1-6.3-3.5-10.4c-1.4-4-2.8-8.4-4.4-13c-1.5-4.6-3-8.9-4.3-12.8
				c-1.3-3.9-2.4-7.2-3.3-9.8c-0.9-2.6-1.3-4-1.3-4.1c-0.1-0.2-0.2-0.3-0.3-0.4c-0.1-0.1-0.1,0.2-0.1,0.7v50.2c0,1,0.1,1.6,0.4,1.9
				c0.3,0.3,0.6,0.6,1.1,0.7c0.7,0.4,1.4,1,2.1,1.9c0.7,0.9,1,2,1,3.5v4l-20.7,3.6v-4c0-1.5,0.4-2.8,1.1-3.9c0.7-1.1,1.4-2,2.1-2.6
				c0.4-0.3,0.7-0.7,0.9-1.1c0.3-0.4,0.4-1,0.4-1.9v-74.8c-0.9-0.2-1.6-0.6-2.3-1.1c-0.6-0.4-1.1-1.1-1.6-1.9
				c-0.4-0.9-0.7-2-0.7-3.5v-4.4l15-2.6c1.1-0.2,1.9-0.1,2.4,0.3c0.5,0.4,0.9,1,1.2,1.9c0,0.2,0.4,1.6,1.3,4.3c0.9,2.7,2,6,3.3,10
				c1.3,4,2.8,8.3,4.3,13c1.5,4.7,3,9.2,4.4,13.6c1.4,4.3,2.6,8.1,3.6,11.4c1.1,3.3,1.8,5.4,2.1,6.5c0.1,0.2,0.2,0.3,0.3,0.5
				c0.1,0.2,0.2,0.1,0.2-0.2V228c0-0.9-0.1-1.5-0.4-1.8c-0.3-0.3-0.6-0.6-0.9-0.9c-0.7-0.4-1.4-1-2.1-1.9c-0.7-0.8-1.1-2-1.1-3.5
				v-3.8L318.5,212.5z"/>
			<path class="st2" d="M378.6,202.2v4c0,1.5-0.3,2.8-0.9,3.9c-0.6,1.1-1.2,1.9-1.9,2.6c-0.4,0.3-0.6,0.7-0.9,1
				c-0.2,0.3-0.4,0.9-0.5,1.6v0.3v67.5c0,3.4-0.6,6.4-1.8,9.1s-2.8,5.1-4.9,7.1c-2.1,2-4.5,3.6-7.3,4.9c-2.8,1.3-5.8,2.2-9.1,2.8
				c-3.3,0.6-6.3,0.7-9.1,0.4c-2.8-0.3-5.3-1.1-7.4-2.4c-2.1-1.3-3.8-3.1-5-5.4c-1.2-2.3-1.8-5.1-1.8-8.5v-67.2v-0.1
				c0-0.9-0.1-1.5-0.3-1.8c-0.2-0.3-0.6-0.6-1-0.8c-0.7-0.4-1.4-1-2.1-1.9c-0.7-0.8-1.1-2-1.1-3.5v-4l22.5-3.9v4
				c0,1.5-0.4,2.8-1.3,3.9c-0.8,1.1-1.6,2-2.3,2.7c-0.4,0.3-0.8,0.7-1,1.1c-0.2,0.4-0.3,1-0.3,1.9v66.3c0,3.4,1.1,5.8,3.2,7.1
				c2.2,1.3,4.5,1.7,7,1.3c2.4-0.4,4.6-1.6,6.8-3.6c2.1-2,3.2-4.7,3.2-8.2V218v-0.1v-0.4c0-0.7-0.1-1.2-0.4-1.5
				c-0.3-0.3-0.6-0.5-0.9-0.7c-0.7-0.4-1.4-1-2.1-1.9c-0.7-0.8-1.1-2-1.1-3.5v-4L378.6,202.2z"/>
			<path class="st2" d="M439.3,192.8c0.8,0.8,1.2,2.3,1.2,4.5v4.1v7.3l-7.2,1.2c-1.2,0.2-2.2,0-2.9-0.8c-0.7-0.7-1.1-1.8-1.1-3.2
				c0-1.1-0.5-1.6-1.5-1.5l-6.5,1.1c-0.5,0.1-1,0.3-1.4,0.8c-0.4,0.4-0.6,1-0.6,1.8v73.3c0,0.9,0.1,1.5,0.4,1.8
				c0.3,0.3,0.6,0.6,1.1,0.9c0.7,0.4,1.4,1,2.1,1.9c0.7,0.9,1,2,1,3.5v3.8l-22,3.8v-3.8c0-1.5,0.4-2.8,1.1-3.9
				c0.7-1.1,1.4-2,2.1-2.6c0.4-0.4,0.7-0.8,0.9-1.2c0.3-0.4,0.4-1,0.4-1.9v-73.7c0-0.6-0.2-1-0.7-1.3c-0.4-0.2-0.9-0.3-1.3-0.2
				l-5.8,1c-0.4,0.1-0.8,0.3-1.3,0.6c-0.5,0.3-0.7,0.9-0.7,1.6c0,1.5-0.4,2.7-1.2,3.6c-0.8,0.9-2.3,1.5-4.4,1.9l-6.1,1.1v-8.1v-3.8
				c0-2,0.6-3.6,1.7-4.6c1.1-1,2.8-1.7,5.1-2.1l43.2-7.4C437,191.8,438.5,192,439.3,192.8z"/>
			<path class="st2" d="M497.7,270.6c0.7,0.3,1.4,0.8,2.1,1.3c0.7,0.5,1,1.6,1,3.2v5.2l-11,1.9c-2.3,0.4-4,0.1-5.1-0.9
				c-1.1-1-1.7-2.5-1.7-4.4v-26c0-3.1-0.6-5.4-1.9-6.9c-1.3-1.5-3.3-2-6.2-1.5l-8.2,1.4c-1.1,0.2-1.7,0.9-1.7,2.2v27.7
				c0,0.9,0.1,1.5,0.4,1.8c0.3,0.3,0.6,0.6,0.9,0.9c0.7,0.4,1.4,1,2.1,1.9c0.7,0.9,1.1,2,1.1,3.5v3.8l-22,3.8v-3.8
				c0-1.5,0.4-2.8,1.1-3.9c0.7-1.1,1.4-2,2.1-2.6c0.4-0.4,0.7-0.8,0.9-1.2c0.3-0.4,0.4-1,0.4-1.9v-73.7c0-0.7-0.1-1.2-0.4-1.6
				c-0.3-0.4-0.6-0.6-0.9-0.7c-0.7-0.3-1.4-0.9-2.1-1.8c-0.7-0.9-1-2.2-1-4.1v-3.8l27.3-4.7c3.8-0.7,7-0.7,9.7,0
				c2.7,0.6,4.8,1.8,6.6,3.4c1.7,1.6,3,3.8,3.8,6.3c0.8,2.6,1.2,5.5,1.2,8.7v13.7c0,2.8-0.6,5.5-1.7,8.1c-1.2,2.5-2.7,4.7-4.5,6.5
				c-0.8,0.9-0.7,1.8,0.3,2.6c2,1.2,3.5,3,4.5,5.5c1,2.5,1.5,5.4,1.5,8.6v19.5c0,0.9,0.2,1.4,0.5,1.6
				C496.9,270.2,497.3,270.4,497.7,270.6z M483,205.4c0-3.1-0.6-5.4-1.9-7c-1.3-1.6-3.3-2.1-6.2-1.7l-7.8,1.3
				c-1.4,0.2-2.1,1-2.1,2.2v31.5c0,0.4,0.2,0.8,0.5,1c0.4,0.2,0.7,0.3,1.1,0.2l8.4-1.4c2.8-0.5,4.9-1.8,6.2-3.8
				c1.3-2.1,1.9-4.7,1.9-7.8V205.4z"/>
			<path class="st2" d="M554.9,171.9v4c0,1.5-0.3,2.8-0.9,3.9c-0.6,1.1-1.3,1.9-2,2.5c-0.4,0.3-0.8,0.7-1.3,1.2
				c-0.5,0.4-0.9,1-1.1,1.8c-0.1,0.2-0.4,1.1-0.9,2.7c-0.5,1.6-1.1,3.6-1.8,6c-0.7,2.4-1.5,5.2-2.5,8.2s-1.9,6.2-2.8,9.4
				c-2.3,7.5-4.9,15.9-7.7,25.2v25.1v0.1c0,0.9,0.1,1.5,0.3,1.8c0.2,0.3,0.6,0.6,1,0.8c0.7,0.4,1.4,1,2.1,1.9c0.7,0.9,1.1,2,1.1,3.5
				v4l-22.1,3.8v-4c0-1.5,0.4-2.8,1.1-3.9c0.7-1.1,1.4-2,2.1-2.6c0.4-0.3,0.8-0.7,1-1.1c0.2-0.4,0.3-1,0.3-1.8v-25.3
				c-2.8-8.5-5.4-16.2-7.7-22.9c-1-2.8-1.9-5.7-2.8-8.5c-0.9-2.8-1.7-5.3-2.5-7.5c-0.7-2.2-1.3-4-1.8-5.3c-0.5-1.4-0.7-2.1-0.7-2.3
				c-0.2-0.5-0.5-0.9-0.9-1.2c-0.4-0.3-0.7-0.5-0.9-0.6c-0.7-0.3-1.4-0.9-2.1-1.8c-0.7-0.9-1-2-1-3.5v-4l21.5-3.7v4.4
				c0,1.6-0.3,2.8-0.9,3.7c-0.6,0.9-1.2,1.6-1.9,2.2c-0.4,0.4-0.9,0.9-1.3,1.3c-0.4,0.4-0.6,1-0.4,1.7c0,0.2,0.2,0.8,0.5,1.8
				c0.3,1,0.7,2.3,1.1,3.8c0.4,1.5,0.9,3.2,1.5,5c0.6,1.8,1.1,3.7,1.7,5.5c1.3,4.5,2.8,9.5,4.4,15l0.8-0.1c1.9-6.2,3.5-11.7,5-16.8
				c0.6-2,1.2-4.1,1.9-6.2c0.6-2,1.2-3.9,1.7-5.6c0.5-1.7,0.9-3,1.3-4.1c0.4-1.1,0.5-1.7,0.5-1.9c0.2-0.7,0.1-1.2-0.3-1.5
				c-0.4-0.3-0.8-0.6-1.3-0.8c-0.7-0.3-1.4-0.9-2-1.7c-0.6-0.8-0.9-2-0.9-3.6v-4L554.9,171.9z"/>
		</g>
	</g>
	<g>
		<path class="st4" d="M210.7,417.6v-4.3l1.2-0.2v-28l-1.2,0.2V381l9.8-1.6c2.4-0.4,4-0.2,4.9,0.6c0.9,0.8,1.3,2.5,1.3,5.2v9.2
			c0,2.6-0.4,4.5-1.3,5.6c-0.9,1.1-2.5,1.8-4.9,2.2l-4,0.7v9.5l1.3-0.2v4.3L210.7,417.6z M219.7,383.8l-3.2,0.5v14.2l3.2-0.5
			c1-0.2,1.7-0.5,1.9-1c0.3-0.5,0.4-1.4,0.4-2.7v-7.7c0-1.3-0.1-2.1-0.4-2.5C221.4,383.7,220.7,383.6,219.7,383.8z"/>
		<path class="st4" d="M238.9,388.2l-0.4,0.1c-1.3,0.2-2.2,0.8-2.7,1.7c-0.5,0.9-0.8,2.4-0.8,4.3V410l1.1-0.2v3.5l-6.4,1.1v-3.5
			l1.1-0.2v-21.9l-1.1,0.2v-3.5l5-0.8v3.9c0.5-2.8,1.8-4.4,3.8-4.8l0.4-0.1V388.2z"/>
		<path class="st4" d="M255.2,387.1v17.3c0,2.4-0.4,4-1.1,5c-0.7,1-2.2,1.6-4.3,2l-2.6,0.4c-2.2,0.4-3.6,0.2-4.3-0.5
			c-0.7-0.7-1.1-2.3-1.1-4.6v-17.3c0-2.4,0.4-4,1.1-5c0.7-1,2.2-1.6,4.3-2l2.6-0.4c2.1-0.4,3.6-0.2,4.3,0.5
			C254.8,383.2,255.2,384.7,255.2,387.1z M245.9,389.3v16c0,1.1,0.1,1.9,0.4,2.2c0.3,0.4,0.8,0.5,1.7,0.3l0.9-0.2
			c0.9-0.2,1.5-0.4,1.7-0.9c0.2-0.4,0.4-1.2,0.4-2.4v-16c0-1.2-0.1-1.9-0.4-2.2c-0.2-0.3-0.8-0.4-1.7-0.3l-0.9,0.2
			c-0.9,0.1-1.4,0.4-1.7,0.9C246,387.4,245.9,388.2,245.9,389.3z"/>
		<path class="st4" d="M272.7,370.6v32.2c0,0.6,0.2,0.9,0.7,0.8l0.4-0.1v3.5l-2.8,0.5c-0.7,0.1-1.3,0-1.7-0.3
			c-0.4-0.3-0.6-1-0.6-2.1V405c-0.6,2.2-2,3.5-4.3,3.9l-1,0.2c-1.6,0.3-2.6,0.1-3.2-0.6c-0.6-0.6-0.9-1.9-0.9-3.7v-19.4
			c0-1.8,0.3-3.2,0.9-4c0.6-0.8,1.6-1.4,3.2-1.6l1-0.2c2.1-0.3,3.5,0.3,4.1,2v-6.6l-1.1,0.2v-3.5L272.7,370.6z M268.5,400.9v-14.8
			c0-2.3-0.8-3.3-2.4-3.1l-0.8,0.1c-0.8,0.1-1.4,0.4-1.6,0.8c-0.2,0.4-0.4,1.2-0.4,2.3v16.2c0,1.1,0.1,1.8,0.4,2.1
			c0.2,0.3,0.8,0.4,1.6,0.3l0.8-0.1C267.7,404.5,268.5,403.2,268.5,400.9z"/>
		<path class="st4" d="M276.8,381.2v-3.5l5.3-0.9v22.5c0,1.1,0.1,1.8,0.4,2.1c0.2,0.3,0.8,0.4,1.6,0.3l0.8-0.1
			c1.6-0.3,2.4-1.5,2.4-3.8v-18.3l-1.7,0.3v-3.5l5.9-1v24.4c0,0.6,0.2,0.9,0.7,0.8l0.4-0.1v3.5l-2.8,0.5c-0.7,0.1-1.3,0-1.7-0.3
			c-0.4-0.3-0.6-1-0.6-2.1v-0.3c-0.6,2.3-2,3.6-4.3,4l-1,0.2c-1.6,0.3-2.6,0.1-3.2-0.6c-0.6-0.6-0.9-1.9-0.9-3.7V381L276.8,381.2z"
			/>
		<path class="st4" d="M296.3,368.2l4.2-0.7v6.3l1.9-0.3v3.5l-1.9,0.3v20.9c0,0.4,0.1,0.6,0.2,0.7c0.1,0.1,0.3,0.1,0.6,0.1l1.1-0.2
			v3.5l-3.7,0.6c-0.7,0.1-1.3,0-1.7-0.3c-0.4-0.3-0.6-1-0.6-2.1V378l-1.1,0.2v-3.5l1.1-0.2V368.2z"/>
		<path class="st4" d="M319.5,376.4v17.3c0,2.4-0.4,4-1.1,5c-0.7,1-2.2,1.6-4.3,2l-2.6,0.4c-2.2,0.4-3.6,0.2-4.3-0.5
			c-0.7-0.7-1.1-2.3-1.1-4.6v-17.3c0-2.4,0.4-4,1.1-5c0.7-1,2.2-1.6,4.3-2l2.6-0.4c2.1-0.4,3.6-0.2,4.3,0.5
			C319.1,372.5,319.5,374,319.5,376.4z M310.2,378.6v16c0,1.1,0.1,1.9,0.4,2.2c0.3,0.4,0.8,0.5,1.7,0.3l0.9-0.2
			c0.9-0.2,1.5-0.4,1.7-0.9c0.2-0.4,0.4-1.2,0.4-2.4v-16c0-1.2-0.1-1.9-0.4-2.2c-0.2-0.3-0.8-0.4-1.7-0.3l-0.9,0.2
			c-0.9,0.1-1.4,0.4-1.7,0.9C310.3,376.7,310.2,377.5,310.2,378.6z"/>
		<path class="st4" d="M327,398.2l-3.7,0.6v-10.1l3.9-0.7v3.2c0,1.2,0.2,2,0.5,2.5c0.3,0.5,0.9,0.7,1.8,0.5l0.7-0.1
			c0.9-0.1,1.4-0.4,1.7-0.9c0.3-0.4,0.4-1.2,0.4-2.3v-1.4c0-1.2-0.2-2.1-0.7-2.6c-0.5-0.6-1.6-1.3-3.3-2.2c-2-1-3.3-2-4-3
			c-0.7-1-1-2.5-1-4.4v-2.4c0-1.9,0.4-3.4,1.1-4.3c0.7-1,1.8-1.6,3.4-1.8l0.9-0.2c2.2-0.4,3.6,0.4,4.1,2.4v-2.8l3.6-0.6v9.7
			l-3.8,0.6v-2.8c0-1.2-0.2-2-0.5-2.5c-0.3-0.5-0.9-0.7-1.8-0.5l-0.7,0.1c-0.9,0.1-1.4,0.4-1.7,0.9c-0.3,0.4-0.4,1.2-0.4,2.3v0.9
			c0,1.2,0.2,2.1,0.7,2.7c0.5,0.5,1.6,1.3,3.3,2.2c2,1,3.3,2,4,3c0.7,1,1,2.5,1,4.4v2.8c0,1.9-0.4,3.4-1.1,4.3
			c-0.7,1-1.8,1.6-3.4,1.8l-0.9,0.2c-2.2,0.4-3.6-0.4-4.1-2.3V398.2z"/>
		<path class="st4" d="M365.4,359.5v32.3l-5.2,0.9l-4.9-20.4c-0.5-2.2-1-4.5-1.3-6.9c0.1,2.9,0.1,5.3,0.1,7.2v16.8l1.3-0.2v4.3
			l-6.4,1.1v-4.3l1.2-0.2v-28l-1.2,0.2V358l7.1-1.2l4.3,18.8c0.3,1.3,0.7,3.6,1.2,6.9c-0.1-2.8-0.1-5-0.1-6.5v-15.8l-1.2,0.2v-4.3
			l6.4-1.1v4.3L365.4,359.5z"/>
		<path class="st4" d="M370,386.3v-4.7c0-2,0.3-3.5,0.9-4.6c0.6-1.1,1.8-2.2,3.7-3.3c2.2-1.3,3.6-2.2,4.1-2.8
			c0.5-0.6,0.7-1.7,0.7-3.4v-0.5c0-1.2-0.1-1.9-0.4-2.2c-0.2-0.3-0.8-0.4-1.7-0.3l-0.9,0.1c-0.9,0.1-1.4,0.4-1.7,0.9
			c-0.3,0.4-0.4,1.2-0.4,2.3v3.3l-3.9,0.7v-3.9c0-2.4,0.4-4,1.1-5c0.8-1,2.2-1.6,4.3-2l2.3-0.4c2.1-0.4,3.6-0.2,4.3,0.5
			c0.8,0.7,1.1,2.3,1.1,4.6v18.6c0,0.6,0.2,0.9,0.7,0.8l0.4-0.1v3.5l-2.8,0.5c-0.7,0.1-1.3,0-1.7-0.3c-0.4-0.3-0.6-1-0.6-2.1v-0.3
			c-0.6,2.3-2,3.6-4.3,4l-1,0.2c-1.6,0.3-2.6,0.1-3.2-0.6C370.3,389.4,370,388.2,370,386.3z M374.2,381v3c0,1.1,0.1,1.8,0.4,2.1
			c0.2,0.3,0.8,0.4,1.6,0.3l0.8-0.1c1.6-0.3,2.4-1.5,2.4-3.8v-8c-0.7,0.5-1.4,1-2.2,1.5c-1.2,0.7-2,1.4-2.4,2.1
			C374.3,378.7,374.2,379.7,374.2,381z"/>
		<path class="st4" d="M388.4,352.8l4.2-0.7v6.3l1.9-0.3v3.5l-1.9,0.3v20.9c0,0.4,0.1,0.6,0.2,0.7c0.1,0.1,0.3,0.1,0.6,0.1l1.1-0.2
			v3.5l-3.7,0.6c-0.7,0.1-1.3,0-1.7-0.3s-0.6-1-0.6-2.1v-22.6l-1.2,0.2v-3.5l1.2-0.2V352.8z"/>
		<path class="st4" d="M397.4,361.1v-3.5l5.3-0.9v22.5c0,1.1,0.1,1.8,0.4,2.1c0.2,0.3,0.8,0.4,1.6,0.3l0.8-0.1
			c1.6-0.3,2.4-1.5,2.4-3.8v-18.3l-1.7,0.3v-3.5l5.9-1v24.4c0,0.6,0.2,0.9,0.7,0.8l0.4-0.1v3.5l-2.8,0.5c-0.7,0.1-1.3,0-1.7-0.3
			c-0.4-0.3-0.6-1-0.6-2.1v-0.3c-0.6,2.3-2,3.6-4.3,4l-1,0.2c-1.6,0.3-2.6,0.1-3.2-0.6c-0.6-0.6-0.9-1.9-0.9-3.7v-20.7L397.4,361.1z
			"/>
		<path class="st4" d="M425.3,357.2l-0.4,0.1c-1.3,0.2-2.2,0.8-2.7,1.7c-0.5,0.9-0.8,2.4-0.8,4.3V379l1.1-0.2v3.5l-6.4,1.1v-3.5
			l1.1-0.2v-21.9l-1.1,0.2v-3.5l5-0.8v3.9c0.5-2.8,1.8-4.4,3.8-4.8l0.4-0.1V357.2z"/>
		<path class="st4" d="M428,376.7V372c0-2,0.3-3.5,0.9-4.6c0.6-1.1,1.8-2.2,3.7-3.3c2.2-1.3,3.6-2.2,4.1-2.8
			c0.5-0.6,0.7-1.7,0.7-3.4v-0.5c0-1.2-0.1-1.9-0.4-2.2c-0.2-0.3-0.8-0.4-1.7-0.3l-0.9,0.1c-0.9,0.1-1.4,0.4-1.7,0.9
			c-0.3,0.4-0.4,1.2-0.4,2.3v3.3l-3.9,0.7v-3.9c0-2.4,0.4-4,1.1-5c0.7-1,2.2-1.6,4.3-2l2.3-0.4c2.1-0.4,3.6-0.2,4.3,0.5
			c0.7,0.7,1.1,2.3,1.1,4.6v18.6c0,0.6,0.2,0.9,0.7,0.8l0.4-0.1v3.5l-2.8,0.5c-0.7,0.1-1.3,0-1.7-0.3c-0.4-0.3-0.6-1-0.6-2.1v-0.3
			c-0.6,2.3-2,3.6-4.3,4l-1,0.2c-1.6,0.3-2.6,0.1-3.2-0.6C428.2,379.8,428,378.5,428,376.7z M432.1,371.4v3c0,1.1,0.1,1.8,0.4,2.1
			c0.2,0.3,0.8,0.4,1.6,0.3l0.8-0.1c1.6-0.3,2.4-1.5,2.4-3.8v-8c-0.7,0.5-1.4,1-2.2,1.5c-1.2,0.7-2,1.4-2.4,2.1
			C432.3,369,432.1,370,432.1,371.4z"/>
		<path class="st4" d="M445.6,353.1v-3.5l5.3-0.9v25.4l1.1-0.2v3.5l-6.4,1.1V375l1.1-0.2v-21.9L445.6,353.1z M446.7,345.9v-4.2
			l4.2-0.7v4.2L446.7,345.9z"/>
		<path class="st4" d="M459.1,376.2l-3.7,0.6v-10.1l3.9-0.7v3.2c0,1.2,0.2,2,0.5,2.5c0.3,0.5,0.9,0.7,1.8,0.5l0.7-0.1
			c0.9-0.1,1.4-0.4,1.7-0.9c0.3-0.4,0.4-1.2,0.4-2.3v-1.4c0-1.2-0.2-2.1-0.7-2.6c-0.5-0.6-1.6-1.3-3.3-2.2c-2-1-3.3-2-4-3
			c-0.7-1-1-2.5-1-4.4v-2.4c0-1.9,0.4-3.4,1.1-4.3c0.7-1,1.8-1.6,3.4-1.8l0.9-0.2c2.2-0.4,3.6,0.4,4.1,2.4v-2.8l3.6-0.6v9.7
			l-3.8,0.6v-2.8c0-1.2-0.2-2-0.5-2.5c-0.3-0.5-0.9-0.7-1.8-0.5l-0.7,0.1c-0.9,0.1-1.4,0.4-1.7,0.9c-0.3,0.4-0.4,1.2-0.4,2.3v0.9
			c0,1.2,0.2,2.1,0.7,2.7c0.5,0.5,1.6,1.3,3.3,2.2c2,1,3.3,2,4,3c0.7,1,1,2.5,1,4.4v2.8c0,1.9-0.4,3.4-1.1,4.3
			c-0.7,1-1.8,1.6-3.4,1.8l-0.9,0.2c-2.2,0.4-3.6-0.4-4.1-2.3V376.2z"/>
	</g>
</g>
<g class="st5">
	<path class="st6" d="M324.8,480.3c-0.9,0-1.7,0-2.6,0c-0.8,0-1.6,0-2.4-0.1l0-1c0.8,0,1.6,0,2.4,0.1c0.9,0,1.7,0,2.6,0L324.8,480.3
		z M329.8,480.3l0-1c1.7,0,3.3-0.1,5-0.1l0,1C333.2,480.2,331.5,480.3,329.8,480.3z M314.8,480c-1.7-0.1-3.3-0.2-5-0.3l0.1-1
		c1.7,0.1,3.3,0.2,5,0.3L314.8,480z M339.8,480l-0.1-1c1.7-0.1,3.3-0.2,5-0.3l0.1,1C343.2,479.7,341.5,479.9,339.8,480z
		 M304.8,479.2c-1.7-0.2-3.3-0.4-5-0.6l0.1-1c1.6,0.2,3.3,0.4,5,0.6L304.8,479.2z M349.8,479.2l-0.1-1c1.7-0.2,3.3-0.4,5-0.6l0.1,1
		C353.2,478.8,351.5,479,349.8,479.2z M294.8,478c-1.7-0.2-3.3-0.5-5-0.8l0.2-1c1.6,0.3,3.3,0.5,4.9,0.8L294.8,478z M359.8,477.9
		l-0.1-1c1.6-0.2,3.3-0.5,4.9-0.8l0.2,1C363.1,477.4,361.4,477.6,359.8,477.9z M284.9,476.3c-1.6-0.3-3.3-0.7-4.9-1l0.2-1
		c1.6,0.4,3.3,0.7,4.9,1L284.9,476.3z M369.6,476.2l-0.2-1c1.6-0.3,3.3-0.7,4.9-1l0.2,1C372.9,475.5,371.3,475.8,369.6,476.2z
		 M275.2,474.1c-1.6-0.4-3.2-0.8-4.9-1.2l0.3-1c1.6,0.4,3.2,0.8,4.8,1.2L275.2,474.1z M379.4,474l-0.2-1c1.6-0.4,3.2-0.8,4.8-1.3
		l0.3,1C382.7,473.2,381.1,473.6,379.4,474z M265.5,471.6c-1.6-0.5-3.2-1-4.8-1.5l0.3-1c1.6,0.5,3.2,1,4.8,1.5L265.5,471.6z
		 M389.1,471.4l-0.3-1c1.6-0.5,3.2-1,4.8-1.5l0.3,1C392.3,470.4,390.7,470.9,389.1,471.4z M255.9,468.5c-1.6-0.5-3.2-1.1-4.7-1.7
		l0.3-0.9c1.6,0.6,3.1,1.1,4.7,1.7L255.9,468.5z M398.7,468.3l-0.3-0.9c1.6-0.5,3.1-1.1,4.7-1.7l0.3,0.9
		C401.8,467.2,400.2,467.7,398.7,468.3z M246.5,465c-1.6-0.6-3.1-1.3-4.7-1.9l0.4-0.9c1.5,0.6,3.1,1.3,4.6,1.9L246.5,465z
		 M408,464.8l-0.4-0.9c1.5-0.6,3.1-1.2,4.6-1.9l0.4,0.9C411.1,463.5,409.6,464.2,408,464.8z M237.2,461.1c-1.5-0.7-3-1.4-4.6-2.1
		l0.4-0.9c1.5,0.7,3,1.4,4.5,2.1L237.2,461.1z M417.2,460.9l-0.4-0.9c1.5-0.7,3-1.4,4.5-2.1l0.4,0.9
		C420.3,459.5,418.8,460.2,417.2,460.9z M228.1,456.8c-1.5-0.8-3-1.5-4.5-2.3l0.5-0.9c1.5,0.8,2.9,1.6,4.4,2.3L228.1,456.8z
		 M426.2,456.5l-0.5-0.9c1.5-0.8,2.9-1.5,4.4-2.3l0.5,0.9C429.2,455,427.7,455.8,426.2,456.5z M219.3,452c-1.5-0.8-2.9-1.7-4.3-2.5
		l0.5-0.9c1.4,0.9,2.9,1.7,4.3,2.5L219.3,452z M435,451.8l-0.5-0.9c1.4-0.8,2.9-1.7,4.3-2.5l0.5,0.9
		C437.9,450.1,436.5,451,435,451.8z M210.7,446.9c-1.4-0.9-2.8-1.8-4.2-2.7l0.6-0.8c1.4,0.9,2.8,1.8,4.2,2.7L210.7,446.9z
		 M443.6,446.6l-0.5-0.8c1.4-0.9,2.8-1.8,4.2-2.7l0.6,0.8C446.4,444.8,445,445.7,443.6,446.6z M202.3,441.3c-1.4-1-2.7-1.9-4.1-2.9
		l0.6-0.8c1.3,1,2.7,1.9,4.1,2.9L202.3,441.3z M452,441.1l-0.6-0.8c1.4-1,2.7-1.9,4.1-2.9l0.6,0.8
		C454.7,439.2,453.3,440.1,452,441.1z M194.2,435.4c-1.3-1-2.6-2-4-3.1l0.6-0.8c1.3,1,2.6,2.1,3.9,3.1L194.2,435.4z M460,435.2
		l-0.6-0.8c1.3-1,2.6-2,3.9-3.1l0.6,0.8C462.7,433.1,461.4,434.2,460,435.2z M186.4,429.1c-1.3-1.1-2.5-2.2-3.8-3.3l0.7-0.8
		c1.2,1.1,2.5,2.2,3.8,3.3L186.4,429.1z M467.9,428.9l-0.6-0.8c1.3-1.1,2.5-2.2,3.8-3.3l0.7,0.8
		C470.4,426.7,469.1,427.8,467.9,428.9z M178.8,422.5c-1.2-1.1-2.4-2.3-3.6-3.4l0.7-0.7c1.2,1.2,2.4,2.3,3.6,3.4L178.8,422.5z
		 M475.4,422.3l-0.7-0.7c1.2-1.1,2.4-2.3,3.6-3.4l0.7,0.7C477.8,420,476.6,421.1,475.4,422.3z M171.6,415.5
		c-1.2-1.2-2.3-2.4-3.5-3.6l0.7-0.7c1.1,1.2,2.3,2.4,3.5,3.6L171.6,415.5z M482.6,415.3l-0.7-0.7c1.2-1.2,2.3-2.4,3.5-3.6l0.7,0.7
		C484.9,412.9,483.7,414.1,482.6,415.3z M164.7,408.3c-1.1-1.2-2.2-2.5-3.3-3.8l0.8-0.7c1.1,1.3,2.2,2.5,3.3,3.7L164.7,408.3z
		 M489.5,408l-0.7-0.7c1.1-1.2,2.2-2.5,3.3-3.7l0.8,0.7C491.7,405.5,490.6,406.8,489.5,408z M158.2,400.7c-1.1-1.3-2.1-2.6-3.1-3.9
		l0.8-0.6c1,1.3,2.1,2.6,3.1,3.9L158.2,400.7z M496,400.4l-0.8-0.6c1.1-1.3,2.1-2.6,3.1-3.9l0.8,0.6
		C498.1,397.8,497.1,399.1,496,400.4z M152,392.8c-1-1.3-2-2.7-3-4l0.8-0.6c1,1.4,2,2.7,2.9,4L152,392.8z M502.2,392.5l-0.8-0.6
		c1-1.3,2-2.7,2.9-4l0.8,0.6C504.2,389.8,503.2,391.2,502.2,392.5z M508,384.3l-0.8-0.6c0.9-1.4,1.9-2.8,2.8-4.2l0.8,0.5
		C509.9,381.5,509,382.9,508,384.3z M513.5,375.9l-0.9-0.5c0.9-1.4,1.7-2.8,2.6-4.3l0.9,0.5C515.2,373,514.3,374.5,513.5,375.9z
		 M518.5,367.2l-0.9-0.5c0.8-1.5,1.6-2.9,2.4-4.4l0.9,0.5C520.1,364.3,519.3,365.7,518.5,367.2z M523.2,358.3l-0.9-0.4
		c0.7-1.5,1.5-3,2.2-4.5l0.9,0.4C524.6,355.3,523.9,356.8,523.2,358.3z M527.4,349.2l-0.9-0.4c0.7-1.5,1.3-3.1,2-4.6l0.9,0.4
		C528.7,346.1,528.1,347.6,527.4,349.2z M531.2,339.9l-0.9-0.4c0.6-1.6,1.2-3.1,1.7-4.7l0.9,0.3
		C532.4,336.7,531.8,338.3,531.2,339.9z M534.6,330.4l-0.9-0.3c0.5-1.6,1-3.2,1.5-4.8l1,0.3C535.6,327.2,535.1,328.8,534.6,330.4z
		 M501,130.9c-1-1.3-2-2.6-3-4l0.8-0.6c1,1.3,2.1,2.6,3.1,4L501,130.9z M494.9,123.1c-1.1-1.3-2.1-2.6-3.2-3.8l0.8-0.7
		c1.1,1.3,2.2,2.5,3.2,3.8L494.9,123.1z M488.3,115.6c-1.1-1.2-2.2-2.5-3.4-3.7l0.7-0.7c1.1,1.2,2.3,2.4,3.4,3.7L488.3,115.6z
		 M481.5,108.3c-1.2-1.2-2.4-2.3-3.6-3.5l0.7-0.7c1.2,1.2,2.4,2.3,3.6,3.5L481.5,108.3z M179.1,101.9l-0.7-0.7
		c1.2-1.1,2.5-2.3,3.7-3.4l0.7,0.7C181.6,99.6,180.3,100.8,179.1,101.9z M474.3,101.4c-1.2-1.1-2.5-2.2-3.7-3.3l0.7-0.8
		c1.3,1.1,2.5,2.2,3.7,3.4L474.3,101.4z M186.6,95.3l-0.6-0.8c1.3-1.1,2.6-2.1,3.9-3.2l0.6,0.8C189.1,93.1,187.8,94.2,186.6,95.3z
		 M466.8,94.8c-1.3-1.1-2.6-2.1-3.9-3.2l0.6-0.8c1.3,1,2.6,2.1,3.9,3.2L466.8,94.8z M194.3,89l-0.6-0.8c1.3-1,2.7-2,4-3l0.6,0.8
		C197,87,195.7,88,194.3,89z M459,88.6c-1.3-1-2.7-2-4-3l0.6-0.8c1.4,1,2.7,2,4,3L459,88.6z M202.4,83.1l-0.6-0.8
		c1.4-1,2.7-1.9,4.1-2.8l0.6,0.8C205.1,81.2,203.7,82.2,202.4,83.1z M450.9,82.7c-1.4-0.9-2.7-1.9-4.1-2.8l0.6-0.8
		c1.4,0.9,2.8,1.9,4.2,2.8L450.9,82.7z M210.7,77.6l-0.5-0.8c1.4-0.9,2.8-1.8,4.3-2.6l0.5,0.9C213.5,75.8,212.1,76.7,210.7,77.6z
		 M442.6,77.2c-1.4-0.9-2.8-1.8-4.3-2.6l0.5-0.9c1.4,0.9,2.9,1.7,4.3,2.6L442.6,77.2z M219.2,72.5l-0.5-0.9c1.4-0.8,2.9-1.6,4.4-2.4
		l0.5,0.9C222.1,70.8,220.7,71.6,219.2,72.5z M434,72c-1.5-0.8-2.9-1.6-4.4-2.4l0.5-0.9c1.5,0.8,2.9,1.6,4.4,2.4L434,72z M228,67.7
		l-0.5-0.9c1.5-0.8,3-1.5,4.5-2.2l0.4,0.9C230.9,66.2,229.5,67,228,67.7z M425.2,67.3c-1.5-0.8-3-1.5-4.5-2.2l0.4-0.9
		c1.5,0.7,3,1.5,4.5,2.2L425.2,67.3z M236.9,63.4l-0.4-0.9c1.5-0.7,3-1.4,4.6-2l0.4,0.9C240,62,238.4,62.7,236.9,63.4z M416.1,63
		c-1.5-0.7-3.1-1.4-4.6-2l0.4-0.9c1.5,0.7,3.1,1.3,4.6,2L416.1,63z M246.1,59.5l-0.4-0.9c1.5-0.6,3.1-1.2,4.7-1.8l0.4,0.9
		C249.2,58.3,247.6,58.9,246.1,59.5z M406.9,59.1c-1.6-0.6-3.1-1.2-4.7-1.8l0.3-0.9c1.6,0.6,3.1,1.2,4.7,1.8L406.9,59.1z M255.4,56
		l-0.3-0.9c1.6-0.5,3.2-1.1,4.8-1.6l0.3,1C258.6,54.9,257,55.4,255.4,56z M397.5,55.7c-1.6-0.5-3.2-1.1-4.7-1.6l0.3-1
		c1.6,0.5,3.2,1,4.8,1.6L397.5,55.7z M264.9,52.9l-0.3-1c1.6-0.5,3.2-0.9,4.8-1.4l0.3,1C268.1,52,266.5,52.5,264.9,52.9z M388,52.6
		c-1.6-0.5-3.2-0.9-4.8-1.3l0.3-1c1.6,0.4,3.2,0.9,4.8,1.3L388,52.6z M274.5,50.3l-0.2-1c1.6-0.4,3.2-0.8,4.9-1.1l0.2,1
		C277.8,49.5,276.2,49.9,274.5,50.3z M378.4,50.1c-1.6-0.4-3.2-0.8-4.9-1.1l0.2-1c1.6,0.4,3.3,0.7,4.9,1.1L378.4,50.1z M284.3,48.1
		l-0.2-1c1.6-0.3,3.3-0.6,4.9-0.9l0.2,1C287.6,47.5,285.9,47.8,284.3,48.1z M368.6,47.9c-1.6-0.3-3.3-0.6-4.9-0.9l0.2-1
		c1.7,0.3,3.3,0.6,4.9,0.9L368.6,47.9z M294.1,46.4l-0.1-1c1.6-0.2,3.3-0.5,5-0.7l0.1,1C297.4,45.9,295.8,46.2,294.1,46.4z
		 M358.8,46.3c-1.6-0.2-3.3-0.5-4.9-0.7l0.1-1c1.7,0.2,3.3,0.4,5,0.7L358.8,46.3z M304,45.1l-0.1-1c1.7-0.2,3.3-0.3,5-0.5l0.1,1
		C307.3,44.8,305.7,45,304,45.1z M348.9,45.1c-1.7-0.2-3.3-0.3-5-0.4l0.1-1c1.7,0.1,3.3,0.3,5,0.4L348.9,45.1z M314,44.3l-0.1-1
		c1.7-0.1,3.3-0.2,5-0.2l0,1C317.3,44.2,315.6,44.2,314,44.3z M338.9,44.3c-1.7-0.1-3.3-0.2-5-0.2l0-1c1.7,0.1,3.3,0.1,5,0.2
		L338.9,44.3z M323.9,44l0-1c1.7,0,3.3,0,5,0l0,1C327.3,44,325.6,44,323.9,44z"/>
</g>
<g>
	<path class="st0" d="M327.4,481.3c-2.6,0-5.3,0-7.9-0.1l0.1-3c2.6,0.1,5.2,0.1,7.8,0.1c1.4,0,2.7,0,4.1,0l0.1,3
		C330.2,481.3,328.8,481.3,327.4,481.3z M343.6,480.7l-0.2-3c4-0.3,7.9-0.7,11.9-1.2l0.4,3C351.7,480,347.6,480.4,343.6,480.7z
		 M307.4,480.4c-2-0.2-4.1-0.4-6.1-0.6c-1.9-0.2-3.9-0.5-5.9-0.8l0.4-3c2,0.3,3.9,0.5,5.8,0.8c2,0.2,4,0.4,6,0.6L307.4,480.4z
		 M367.6,477.5l-0.6-2.9c3.9-0.7,7.8-1.6,11.7-2.5l0.7,2.9C375.5,475.9,371.6,476.8,367.6,477.5z M283.4,476.9
		c-3.9-0.8-7.9-1.7-11.8-2.7l0.8-2.9c3.8,1,7.7,1.9,11.6,2.7L283.4,476.9z M391.1,471.8l-0.9-2.9c3.8-1.2,7.6-2.4,11.3-3.8l1,2.8
		C398.7,469.3,394.9,470.6,391.1,471.8z M260,470.9c-3.8-1.2-7.7-2.6-11.4-4l1.1-2.8c3.7,1.4,7.5,2.7,11.3,3.9L260,470.9z
		 M413.8,463.4l-1.2-2.8c3.6-1.6,7.3-3.3,10.8-5l1.3,2.7C421.1,460.1,417.4,461.9,413.8,463.4z M237.4,462.3
		c-3.7-1.6-7.3-3.4-10.9-5.2l1.4-2.7c3.5,1.8,7.2,3.6,10.8,5.2L237.4,462.3z M435.4,452.7l-1.5-2.6c3.4-2,6.9-4,10.2-6.2l1.6,2.5
		C442.4,448.6,438.9,450.7,435.4,452.7z M215.9,451.2c-3.5-2-6.9-4.2-10.3-6.4l1.7-2.5c3.3,2.2,6.7,4.3,10.1,6.3L215.9,451.2z
		 M455.7,439.6l-1.8-2.4c3.2-2.3,6.4-4.8,9.5-7.3l1.9,2.3C462.2,434.7,459,437.2,455.7,439.6z M195.7,437.8
		c-3.2-2.4-6.4-4.9-9.5-7.5l1.9-2.3c3,2.5,6.2,5,9.4,7.4L195.7,437.8z M474.5,424.3l-2-2.2c2.9-2.7,5.8-5.4,8.6-8.3l2.1,2.1
		C480.4,418.8,477.5,421.6,474.5,424.3z M177.1,422.2c-2.9-2.7-5.8-5.6-8.6-8.5l2.2-2.1c2.7,2.9,5.6,5.7,8.5,8.4L177.1,422.2z
		 M491.5,407.1l-2.2-2c2.6-3,5.2-6,7.7-9.2l2.4,1.9C496.8,401,494.2,404.1,491.5,407.1z M160.4,404.8c-2.6-3-5.2-6.2-7.6-9.4
		l2.4-1.8c2.4,3.1,4.9,6.3,7.5,9.3L160.4,404.8z M506.5,388.1l-2.5-1.7c2.3-3.2,4.5-6.6,6.6-9.9l2.5,1.6
		C511.1,381.5,508.9,384.9,506.5,388.1z M519.4,367.6l-2.6-1.4c1.9-3.5,3.8-7.1,5.5-10.6l2.7,1.3
		C523.2,360.5,521.3,364.1,519.4,367.6z M529.9,345.8l-2.8-1.1c1.5-3.7,2.9-7.4,4.3-11.1l2.8,1C532.9,338.3,531.4,342.1,529.9,345.8
		z M491.1,120.4c-2.6-3-5.3-6-8-8.8l2.2-2.1c2.8,2.9,5.5,5.9,8.1,9L491.1,120.4z M474.6,103.2c-2.9-2.7-5.9-5.4-9-7.9l1.9-2.3
		c3.1,2.6,6.1,5.3,9.1,8L474.6,103.2z M181.3,101.4l-2-2.2c3-2.7,6.1-5.4,9.2-7.9l1.9,2.3C187.3,96.1,184.2,98.8,181.3,101.4z
		 M456.3,87.9c-3.2-2.4-6.5-4.7-9.8-6.9l1.7-2.5c3.3,2.2,6.7,4.6,9.9,7L456.3,87.9z M199.8,86.4l-1.8-2.4c3.3-2.4,6.6-4.7,10-6.8
		l1.6,2.5C206.3,81.8,203,84,199.8,86.4z M436.4,74.7c-3.4-2-7-3.9-10.5-5.8l1.4-2.7c3.6,1.8,7.1,3.8,10.6,5.8L436.4,74.7z
		 M219.9,73.4l-1.5-2.6c3.5-2,7.1-3.9,10.7-5.7l1.3,2.7C226.8,69.6,223.3,71.5,219.9,73.4z M415.1,63.8c-3.6-1.6-7.3-3.1-11-4.5
		l1.1-2.8c3.8,1.4,7.5,3,11.2,4.6L415.1,63.8z M241.2,62.8L240,60c3.7-1.6,7.5-3.1,11.2-4.5l1,2.8C248.5,59.7,244.8,61.2,241.2,62.8
		z M392.8,55.3c-3.8-1.2-7.6-2.3-11.5-3.3l0.8-2.9c3.9,1,7.8,2.1,11.6,3.3L392.8,55.3z M263.5,54.6l-0.9-2.9
		c3.8-1.2,7.8-2.3,11.6-3.2l0.7,2.9C271.2,52.3,267.3,53.4,263.5,54.6z M369.7,49.4c-3.9-0.8-7.8-1.5-11.8-2l0.4-3
		c4,0.6,8,1.3,11.9,2.1L369.7,49.4z M286.7,48.8l-0.6-2.9c3.9-0.7,8-1.4,11.9-1.9l0.4,3C294.5,47.5,290.6,48.1,286.7,48.8z
		 M346.1,46c-4-0.4-8-0.6-11.9-0.7l0.1-3c4,0.1,8.1,0.4,12.1,0.7L346.1,46z M310.3,45.7l-0.2-3c4-0.3,8.1-0.5,12.1-0.6l0.1,3
		C318.3,45.2,314.3,45.4,310.3,45.7z M501,127.9l-2.4,1.8c1.3,1.6,2.5,3.3,3.7,5l3.3-0.5C504.2,132,502.6,129.9,501,127.9z"/>
</g>
</svg>
