<?xml version="1.0" encoding="utf-8"?>
<!-- Generator: Adobe Illustrator 28.4.1, SVG Export Plug-In . SVG Version: 6.00 Build 0)  -->
<svg version="1.1" id="Camada_1" xmlns="http://www.w3.org/2000/svg" xmlns:xlink="http://www.w3.org/1999/xlink" x="0px" y="0px"
	 viewBox="0 0 969.2 247.8" style="enable-background:new 0 0 969.2 247.8;" xml:space="preserve">
<style type="text/css">
	.st0{fill:#FFFFFF;}
</style>
<g>
	<path class="st0" d="M938.3,91.8c-28.9,0-47.1,21.4-47.1,49.5c0,17.6,14.9,26.5,31,26.5h0c28.5,0,46.9-21.8,46.9-49.7
		C969.1,100.4,954.5,91.8,938.3,91.8z M925.2,154.3c-9.4,0-12.8-6.4-12.8-15.1c0-12.6,7.5-33.8,22.5-33.8v0
		c9.4,0,13.4,6.4,13.4,15.1C948.3,132.9,939.8,154.3,925.2,154.3z M891.7,91.7c-10.5,0-19.3,7.7-23.8,16.7l2.8-15h-18.9
		c-0.7,5.4-1.7,10.8-2.9,16.1l-12,56.7H857l6.8-32.1c2.5-11.6,9.9-24.4,23.1-24.4c2,0,4,0.3,5.9,1l4.6-18.3
		C895.6,91.9,893.7,91.6,891.7,91.7z M819.2,93.1l-9,41.9c-2,9.3-7.1,19.3-18,19.3c-7,0-9.6-4.1-9.6-9.6c0.1-2.5,0.5-5.1,1.2-7.6
		l9.1-44h-20.1l-10.3,48.4c-0.5,2.7-0.8,5.5-0.7,8.3c0,12.1,8,18,20,18s19.8-6.1,26-14.7l-2,13.1h18.8c0.6-5.5,1.6-11,2.8-16.4
		l11.9-56.7H819.2z M737,91.9c-27.9,0-57.8,19.9-57.8,52.8c0,12.4,7.2,21.6,22.2,21.6c12.1,0,19.3-4,26.3-13.4l-2.3,9.6
		c-3.3,13.7-10.3,23.3-28.5,23.3c-7.3,0.1-14.5-1.6-20.9-5l-3.9,14.4c8.2,2.7,16.7,4,25.3,4c32.3,0,43-13.4,49.6-42.7L760.6,95
		C752.9,93,744.9,91.9,737,91.9z M734,123.8c-3.1,12.9-10.6,30.4-24.3,30.4c-7.1,0-9.4-4.8-9.4-11.3c0-20.3,15.5-37.5,32.2-37.5
		c1.9,0,3.8,0.3,5.7,0.9L734,123.8z M628.3,135.4c18.2,0,51.5-3,51.4-25.9c0-13.4-13.3-17.6-25.1-17.6c-25.8,0-47.8,22.4-47.8,51.3
		c0,17.9,15,24.7,30.8,24.7c9.6,0.2,19.1-1.7,27.8-5.7l0.7-13c-6.7,4.2-14.4,6.5-22.4,6.7c-8.9,0-16.4-3.9-16.4-13.8
		C627.2,139.9,627.6,137.6,628.3,135.4L628.3,135.4z M652.8,103.6L652.8,103.6c5,0,8.9,1.8,8.7,7.1c0,11.5-18.3,13.8-31.4,13.8
		C633.8,115.1,641.8,103.6,652.8,103.6z M585.2,82.2c7,0.1,13.8,1.7,20.1,4.8l5-14.8c-7.6-2.9-15.7-4.4-23.8-4.3
		c-22.2,0-45.2,8.6-45.2,31.7c0,24.6,38.1,23,38.1,38.2c0,10.8-11.5,15.4-21.8,15.6c-8.3,0.2-16.5-1.6-23.9-5.4l-5.1,15.7
		c9.1,3,18.7,4.4,28.3,4.2c24.5,0,44.6-11.6,44.6-32.9c0-26.7-38.4-24.6-38.4-38.7C563.1,86.3,576.3,82.2,585.2,82.2z M510,91.8
		c-27.9,0-57.9,19.9-57.9,52.8c0,12.3,7.2,21.6,22.2,21.6c12.1,0,19.3-4,26.3-13.4l-2.3,9.6c-3.3,13.7-10.3,23.3-28.5,23.3
		c-7.3,0.1-14.5-1.6-20.9-5l-3.8,14.5c8.2,2.7,16.7,4,25.3,4c32.2,0,43-13.4,49.5-42.7L533.7,95C526,92.9,518,91.9,510,91.8z
		 M507.2,123.7c-3.1,12.9-10.6,30.4-24.3,30.4c-7.1,0-9.5-4.8-9.5-11.3c0-20.3,15.5-37.5,32.3-37.5c1.9,0,3.8,0.4,5.7,0.9
		L507.2,123.7z M427.9,91.6c-27.8,0-57.1,20.2-57.1,52.9c0,13.4,7.4,23.2,22.1,23.2c14.3,0,22.8-9.3,28-18.7
		c-1.2,6.7-2.5,13.5-2.8,17.1h20.5c0.3-8.7,1.5-17.4,3.5-25.9L452.3,95C447.2,93.1,436.3,91.6,427.9,91.6z M425.8,122.8
		c-4.1,17.5-13.8,31.5-24,31.5c-7.5,0-9.8-5.4-9.8-11.9c0-19.5,15.3-37.2,32-37.2c2-0.1,3.9,0.2,5.8,0.8L425.8,122.8z M347.2,69.3
		h-40l-20.6,96.9h21.2l7.5-35.9h18.6l0,0c19.9,0,40.6-10.5,40.7-36.5C374.6,80.7,363.5,69.3,347.2,69.3z M325.5,116.1h-7.3l7-32.6
		h11.3l0,0c8.3,0,16.4,4.6,16.3,12.4C352.9,112.9,339.7,116.1,325.5,116.1z"/>
</g>
<path class="st0" d="M236.6,77.3C222.5,43.2,195,18.8,162.8,7.7C150.5,2.7,137.1,0,123,0c-13.7,0-26.8,2.6-38.9,7.4c0,0,0,0,0,0
	c-2.8,0.9-5.5,1.9-8.2,3.1C13.2,36.5-16.6,108.7,9.4,171.6c8.5,20.6,21.9,37.6,38.3,50.4c8.8,7.7,19.1,13.7,30.7,17.4
	c28.5,11.1,61.2,11.7,91.7-1C232.8,212.4,262.6,140.2,236.6,77.3z M80.6,232c-0.6-0.2-1.2-0.5-1.7-0.7c-10.2-4.2-19.5-9.8-27.7-16.4
	c-16.5-14.9-26.9-36.5-26.8-60.5c0-2.6,0.1-5.2,0.4-7.7c0.2-2.5,0.6-4.9,1-7.3c0.4-2.2,0.9-4.3,1.5-6.4
	c9.5-34.5,41.1-59.8,78.6-59.6c24.1,0,47,10.8,62.3,29.4c-25.8,5.4-45.2,28.3-45.1,55.7c0.1,18.1,8.6,34.2,21.8,44.5
	c1.7,1.3,3.4,2.5,5.3,3.6c1.1,0.7,2.2,1.3,3.3,1.9c3,1.6,6.1,2.9,9.4,3.9c-14.7,14.6-35,23.6-57.4,23.5
	C96.8,235.9,88.4,234.5,80.6,232z M159,14.6c0,0,0.1,0,0.1,0c36.5,14.5,62.3,50.2,62.3,91.9v0.6c0,4-0.3,7.9-0.8,11.8
	c-10.4-10.8-24.9-17.4-41.1-17.4c-0.8,0-1.6,0-2.5,0.1c-12.4-16.8-30.7-29.2-52.6-34c-0.1,0-0.1,0-0.2,0
	c-42-8.9-83.4,13.6-99.8,51.6c-0.5-4.2-0.8-8.6-0.8-13c0.2-40.9,25.2-75.9,60.7-90.7C107.8,7.2,133.9,6.3,159,14.6z M177.5,207.3
	c-1.5-0.1-3.1-0.2-4.6-0.4c-1.5-0.2-2.9-0.5-4.3-0.8c-1.5-0.4-3.1-0.8-4.6-1.3c-1.3-0.4-2.5-0.9-3.8-1.5c-2-0.9-4-1.9-5.8-3
	c-14.2-8.6-23.8-24.3-23.7-42.2c0.1-24.8,18.6-45.2,42.6-48.4c1.4-0.2,2.9-0.3,4.3-0.4c0.8,0,1.5,0,2.3,0h0.2c0.7,0,1.4,0,2,0
	c15,0.7,28.2,8.1,36.7,19.3c1.1,1.5,2.2,3,3.1,4.6c0.9,1.5,1.7,3,2.4,4.6c2.8,6.2,4.4,13.1,4.4,20.4v0.2
	c-0.1,27.1-22.1,48.9-49.2,48.8C178.9,207.3,178.2,207.3,177.5,207.3z"/>
</svg>
