<?xml version="1.0" encoding="utf-8"?>
<!-- Generator: Adobe Illustrator 25.4.1, SVG Export Plug-In . SVG Version: 6.00 Build 0)  -->
<svg version="1.0"
	 id="svg2" inkscape:export-filename="G:\Users\suitedoalex\sites\pix-bc-logo-0.png" inkscape:export-xdpi="561.73712" inkscape:export-ydpi="561.73712" inkscape:version="0.92.4 (5da689c313, 2019-01-14)" sodipodi:docname="pix-banco-central-logo.svg" xmlns:cc="http://creativecommons.org/ns#" xmlns:dc="http://purl.org/dc/elements/1.1/" xmlns:inkscape="http://www.inkscape.org/namespaces/inkscape" xmlns:rdf="http://www.w3.org/1999/02/22-rdf-syntax-ns#" xmlns:sodipodi="http://sodipodi.sourceforge.net/DTD/sodipodi-0.dtd" xmlns:svg="http://www.w3.org/2000/svg"
	 xmlns="http://www.w3.org/2000/svg" xmlns:xlink="http://www.w3.org/1999/xlink" x="0px" y="0px" viewBox="0 0 690 505"
	 style="enable-background:new 0 0 690 505;" xml:space="preserve">
<style type="text/css">
	.st0{fill:none;stroke:#939598;stroke-width:6.2644;stroke-linecap:round;stroke-linejoin:round;stroke-miterlimit:7.7732;}
	.st1{fill:#32BCAD;}
	.st2{fill:#939598;}
</style>
<g id="g10" transform="matrix(1.3333333,0,0,-1.3333333,0,700)" inkscape:groupmode="layer" inkscape:label="pix-banco-central-logo">
	
		<g id="g964" transform="matrix(0.5829914,0,0,0.5829914,-284.91265,-151.3235)" inkscape:export-filename="G:\Users\suitedoalex\sites\pix-bc-logo-4.png" inkscape:export-xdpi="76.860626" inkscape:export-ydpi="76.860626">
		<g>
			<g id="g966">
				<g id="g972" transform="translate(881.9583,610.8618)">
					<path id="path974" inkscape:connector-curvature="0" class="st0" d="M-6.4,125.5v130.9c0,24.1,19.5,43.6,43.6,43.6l38.6-0.1
						c24,0,43.4-19.5,43.4-43.5v-27.9c0-24.1-19.5-43.6-43.6-43.6H21.1"/>
				</g>
				<g id="g976" transform="translate(1018.428,785.3266)">
					<path id="path978" inkscape:connector-curvature="0" class="st0" d="M-6.4,125.5h16.8c9.9,0,17.9-8,17.9-17.9V9.8"/>
				</g>
				<g id="g980" transform="translate(1049.4836,800.4702)">
					<path id="path982" inkscape:connector-curvature="0" class="st1" d="M-6.4,125.5l-7.6,7.6c-1.9,1.9-1.9,4.9,0,6.8l7.6,7.6
						c1.9,1.9,5,1.9,6.8,0l7.6-7.6c1.9-1.9,1.9-4.9,0-6.8l-7.6-7.6C-1.5,123.6-4.5,123.6-6.4,125.5"/>
				</g>
				<g id="g984" transform="translate(1085.2297,785.4135)">
					<path id="path986" inkscape:connector-curvature="0" class="st0" d="M-6.4,125.5h16.6c8.6,0,16.8-3.4,22.8-9.4l38.9-38.9
						c5-5,13.2-5,18.2,0l38.7,38.7c6,6,14.2,9.4,22.8,9.4h13.5"/>
				</g>
				<g id="g988" transform="translate(1085.2297,670.5434)">
					<path id="path990" inkscape:connector-curvature="0" class="st0" d="M-6.4,125.5h16.6c8.6,0,16.8,3.4,22.8,9.4l38.9,38.9
						c5,5,13.2,5,18.2,0l38.7-38.7c6-6,14.2-9.4,22.8-9.4h13.5"/>
				</g>
				<g id="g992" transform="translate(782.8699,645.7084)">
					<path id="path994" inkscape:connector-curvature="0" class="st1" d="M-6.4,125.5c-8.3,0-16.2,3.2-22.1,9.1l-31.9,31.9
						c-2.2,2.2-6.1,2.2-8.4,0l-32-32c-5.9-5.9-13.7-9.1-22.1-9.1h-6.3L-88.8,85c12.6-12.6,33.1-12.6,45.7,0l40.5,40.5H-6.4z"/>
				</g>
				<g id="g996" transform="translate(666.4241,758.5073)">
					<path id="path998" inkscape:connector-curvature="0" class="st1" d="M-6.4,125.5c8.3,0,16.2-3.2,22.1-9.1l32-32
						c2.3-2.3,6.1-2.3,8.4,0l31.9,31.9c5.9,5.9,13.7,9.1,22.1,9.1h3.8l-40.5,40.5c-12.6,12.6-33.1,12.6-45.7,0l-40.4-40.4H-6.4z"/>
				</g>
				<g id="g1000" transform="translate(820.2131,724.8881)">
					<path id="path1002" inkscape:connector-curvature="0" class="st1" d="M-6.4,125.5l-24.5,24.5c-0.5-0.2-1.1-0.4-1.7-0.4h-11.1
						c-5.8,0-11.4-2.3-15.5-6.4l-31.9-31.9c-3-3-6.9-4.5-10.8-4.5c-3.9,0-7.8,1.5-10.8,4.5l-32,32c-4.1,4.1-9.7,6.4-15.5,6.4h-13.7
						c-0.6,0-1.1,0.1-1.6,0.3l-24.6-24.6c-12.6-12.6-12.6-33.1,0-45.7l24.6-24.6c0.5,0.2,1.1,0.3,1.6,0.3h13.7
						c5.8,0,11.4,2.3,15.5,6.4l32,32c5.8,5.8,15.9,5.8,21.6,0l31.9-31.9c4.1-4.1,9.7-6.4,15.5-6.4h11.1c0.6,0,1.2-0.1,1.7-0.3
						l24.5,24.5C6.2,92.4,6.2,112.8-6.4,125.5"/>
				</g>
				<g id="g1004" transform="translate(915.1824,621.9838)">
					<path id="path1006" inkscape:connector-curvature="0" class="st2" d="M-6.4,125.5c-1.8,0-3.9-0.4-6-0.9v-8
						c1.4-0.5,3.1-0.8,4.7-0.8c4,0,5.9,1.3,5.9,4.9C-1.9,124-3.4,125.5-6.4,125.5 M-13.8,110.7v15.8h1.1l0.1-0.7
						c1.9,0.4,4.4,1,6.2,1c1.5,0,2.9-0.2,4.1-1.2c1.4-1.1,1.8-2.9,1.8-4.9c0-2.1-0.7-4-2.6-5.1c-1.3-0.7-3.1-1-4.6-1
						c-1.6,0-3.2,0.3-4.8,0.7v-4.6H-13.8z"/>
				</g>
				<g id="g1008" transform="translate(931.2317,622.0317)">
					<path id="path1010" inkscape:connector-curvature="0" class="st2" d="M-6.4,125.5c-4,0-5.8-1.3-5.8-4.8c0-3.4,1.8-4.9,5.8-4.9
						c4,0,5.8,1.2,5.8,4.8C-0.7,123.9-2.4,125.5-6.4,125.5 M-1.3,115.7c-1.3-1-3.1-1.2-5.1-1.2c-2.1,0-3.9,0.3-5.2,1.2
						c-1.5,1-2.1,2.7-2.1,4.8c0,2.1,0.6,3.8,2.1,4.9c1.3,0.9,3.1,1.2,5.2,1.2c2.1,0,3.8-0.3,5.1-1.2c1.5-1.1,2.1-2.8,2.1-4.8
						C0.8,118.5,0.2,116.8-1.3,115.7"/>
				</g>
				<g id="g1012" transform="translate(955.304,611.4037)">
					<path id="path1014" inkscape:connector-curvature="0" class="st2" d="M-6.4,125.5l-4.5,9.6H-11l-4.4-9.6h-1.2l-4.8,11.5h1.5
						l4-9.7h0.1l4.3,9.7h1.2l4.4-9.7h0.1l3.9,9.7h1.4l-4.8-11.5H-6.4z"/>
				</g>
				<g id="g1016" transform="translate(969.8879,622.0541)">
					<path id="path1018" inkscape:connector-curvature="0" class="st2" d="M-6.4,125.5c-3.7,0-5-1.6-5.2-4h10.4
						C-1.4,124.1-2.7,125.5-6.4,125.5 M-6.5,114.5c-2.2,0-3.7,0.3-4.8,1.3c-1.3,1.2-1.8,2.9-1.8,4.8c0,1.9,0.6,3.8,2.1,4.9
						c1.3,0.9,2.9,1.2,4.5,1.2c1.5,0,3.2-0.2,4.6-1.1c1.7-1.1,2-3.1,2-5.3h-11.8c0-2.4,0.8-4.5,5.3-4.5c2.1,0,4.1,0.3,6,0.7v-1.2
						C-2.3,114.9-4.4,114.5-6.5,114.5"/>
				</g>
				<g id="g1020" transform="translate(980.3625,611.4037)">
					<path id="path1022" inkscape:connector-curvature="0" class="st2" d="M-6.4,125.5V137h1.1l0.1-0.7c2.4,0.6,3.6,1,5.7,1h0.2V136
						H0.4c-1.8,0-2.9-0.2-5.4-0.9v-9.7H-6.4z"/>
				</g>
				<g id="g1024" transform="translate(995.301,622.0541)">
					<path id="path1026" inkscape:connector-curvature="0" class="st2" d="M-6.4,125.5c-3.7,0-5-1.6-5.2-4h10.4
						C-1.4,124.1-2.7,125.5-6.4,125.5 M-6.5,114.5c-2.2,0-3.7,0.3-4.8,1.3c-1.3,1.2-1.8,2.9-1.8,4.8c0,1.9,0.6,3.8,2.1,4.9
						c1.3,0.9,2.9,1.2,4.5,1.2c1.5,0,3.2-0.2,4.6-1.1c1.7-1.1,2-3.1,2-5.3h-11.8c0-2.4,0.8-4.5,5.3-4.5c2.1,0,4.1,0.3,6,0.7v-1.2
						C-2.3,114.9-4.4,114.5-6.5,114.5"/>
				</g>
				<g id="g1028" transform="translate(1016.6765,621.2524)">
					<path id="path1030" inkscape:connector-curvature="0" class="st2" d="M-6.4,125.5c-1.4,0.5-3.1,0.8-4.7,0.8
						c-4,0-5.9-1.4-5.9-4.9c0-3.3,1.6-4.8,4.6-4.8c1.8,0,3.9,0.4,6,0.9L-6.4,125.5z M-6.2,115.6l-0.1,0.7c-1.9-0.4-4.4-1-6.2-1
						c-1.5,0-2.9,0.2-4.1,1.2c-1.4,1.1-1.8,2.9-1.8,4.9c0,2.1,0.7,4,2.6,5.1c1.3,0.8,3.1,1.1,4.7,1.1s3.2-0.3,4.8-0.7v5.3h1.3v-16.4
						H-6.2z"/>
				</g>
				<g id="g1032" transform="translate(1037.7957,621.9838)">
					<path id="path1034" inkscape:connector-curvature="0" class="st2" d="M-6.4,125.5c-1.8,0-3.9-0.4-6-0.9v-8
						c1.5-0.5,3.1-0.8,4.7-0.8c4,0,5.9,1.3,5.9,4.9C-1.9,124-3.4,125.5-6.4,125.5 M-3,115.6c-1.3-0.7-3.1-1-4.6-1
						c-1.7,0-3.4,0.3-5.2,0.9l-0.1-0.5h-0.9v16.4h1.3v-5.5c1.9,0.4,4.3,1,6.1,1c1.5,0,2.9-0.2,4.1-1.2c1.4-1.1,1.8-2.9,1.8-4.9
						C-0.4,118.6-1.1,116.7-3,115.6"/>
				</g>
				<g id="g1036" transform="translate(1045.5945,606.9721)">
					<path id="path1038" inkscape:connector-curvature="0" class="st2" d="M-6.4,125.5v1.3c0.7-0.1,1.3-0.1,1.7-0.1
						c1.7,0,2.7,0.5,3.6,2.4l0.4,0.9l-6,11.5h1.6l5.2-10h0.1l4.9,10h1.5l-6.5-13c-1.2-2.4-2.5-3.1-4.8-3.1
						C-5.3,125.3-5.9,125.4-6.4,125.5"/>
				</g>
				<g id="g1040" transform="translate(1077.1594,617.9858)">
					<path id="path1042" inkscape:connector-curvature="0" class="st2" d="M-6.4,125.5h-4.5v-4h4.5c3.1,0,4.3,0.3,4.3,2
						C-2.2,125.3-3.8,125.5-6.4,125.5 M-7.3,132h-3.7v-4.1h3.7c3,0,4.3,0.4,4.3,2.1C-3,131.8-4.5,132-7.3,132 M-0.3,120
						c-1.6-1.1-3.6-1.1-7.3-1.1h-6.8v15.7h6.7c3.1,0,5.1,0,6.7-1c1.1-0.7,1.6-1.7,1.6-3.1c0-1.6-0.7-2.7-2.5-3.5v-0.1
						c2-0.5,3.3-1.5,3.3-3.7C1.4,121.6,0.8,120.7-0.3,120"/>
				</g>
				<g id="g1044" transform="translate(1098.6228,616.2485)">
					<path id="path1046" inkscape:connector-curvature="0" class="st2" d="M-6.4,125.5c-1.3,0.1-2.7,0.2-4.2,0.2
						c-2.4,0-3.2-0.5-3.2-1.6c0-1,0.7-1.6,2.5-1.6c1.5,0,3.3,0.3,4.8,0.7L-6.4,125.5z M-5.7,120.6l-0.1,0.7c-2-0.5-4.3-1-6.3-1
						c-1.2,0-2.6,0.2-3.5,0.8c-0.9,0.6-1.3,1.6-1.3,2.8c0,1.3,0.6,2.5,1.9,3.1c1.2,0.6,2.8,0.6,4.3,0.6c1.2,0,2.8-0.1,4.2-0.2v0.2
						c0,1.8-1.2,2.4-4.4,2.4c-1.3,0-2.8-0.1-4.3-0.2v2.3c1.6,0.1,3.5,0.2,5,0.2c2,0,4.1-0.2,5.4-1.1c1.3-0.9,1.6-2.2,1.6-4v-6.8
						L-5.7,120.6z"/>
				</g>
				<g id="g1048" transform="translate(1116.9124,611.4037)">
					<path id="path1050" inkscape:connector-curvature="0" class="st2" d="M-6.4,125.5v6.4c0,2.1-1.1,2.9-3,2.9
						c-1.4,0-3.2-0.4-4.7-0.7v-8.5h-3.2V137h2.6l0.1-0.7c2,0.5,4.3,1,6.2,1c1.4,0,2.9-0.2,4-1.2c0.9-0.8,1.3-2,1.3-3.6v-7.1H-6.4z"
						/>
				</g>
				<g id="g1052" transform="translate(1129.2156,611.0844)">
					<path id="path1054" inkscape:connector-curvature="0" class="st2" d="M-6.4,125.5c-1.5,0-3.1,0.2-4.3,1.2
						c-1.4,1.1-1.8,2.9-1.8,4.9c0,1.8,0.6,3.8,2.4,4.9c1.4,0.9,3.2,1.1,5.1,1.1c1.3,0,2.6-0.1,4.1-0.2v-2.5
						c-1.2,0.1-2.6,0.2-3.7,0.2c-3.1,0-4.5-1-4.5-3.6c0-2.5,1.1-3.6,3.6-3.6c1.5,0,3.2,0.3,4.8,0.6v-2.4
						C-2.6,125.8-4.6,125.5-6.4,125.5"/>
				</g>
				<g id="g1056" transform="translate(1144.3552,620.8442)">
					<path id="path1058" inkscape:connector-curvature="0" class="st2" d="M-6.4,125.5c-3.1,0-4.4-1-4.4-3.6c0-2.6,1.3-3.7,4.4-3.7
						c3,0,4.4,0.9,4.4,3.6C-2.1,124.3-3.4,125.5-6.4,125.5 M-0.9,116.9c-1.4-1-3.3-1.2-5.5-1.2c-2.3,0-4.2,0.3-5.6,1.2
						c-1.6,1.1-2.2,2.8-2.2,4.9c0,2.1,0.6,3.8,2.2,4.9c1.4,0.9,3.2,1.2,5.6,1.2c2.3,0,4.1-0.3,5.5-1.2c1.6-1.1,2.1-2.8,2.1-4.9
						C1.2,119.7,0.7,118-0.9,116.9"/>
				</g>
				<g id="g1060" transform="translate(1170.637,611.0844)">
					<path id="path1062" inkscape:connector-curvature="0" class="st2" d="M-6.4,125.5c-1.9,0-4,0.3-5.6,1.6c-1.9,1.6-2.4,4-2.4,6.5
						c0,2.3,0.7,5,3.2,6.7c1.9,1.2,4.3,1.5,6.6,1.5c1.7,0,3.5-0.1,5.5-0.3v-2.8c-1.7,0.1-3.7,0.3-5.3,0.3c-4.5,0-6.4-1.7-6.4-5.3
						c0-3.7,1.8-5.3,5.1-5.3c2.1,0,4.5,0.4,7,0.9v-2.8C-1.3,126-3.9,125.5-6.4,125.5"/>
				</g>
				<g id="g1064" transform="translate(1187.6472,621.2084)">
					<path id="path1066" inkscape:connector-curvature="0" class="st2" d="M-6.4,125.5c-2.7,0-3.7-1-3.9-2.7h7.8
						C-2.7,124.6-3.8,125.5-6.4,125.5 M-6.9,115.3c-1.9,0-3.6,0.2-4.9,1.3c-1.4,1.1-1.9,2.9-1.9,4.8c0,1.8,0.6,3.7,2.2,4.9
						c1.4,1,3.2,1.2,5.1,1.2c1.6,0,3.6-0.2,5-1.2c1.9-1.3,2-3.3,2-5.7h-11c0.1-1.8,1-2.9,4.3-2.9c2,0,4.3,0.3,6.1,0.6v-2.3
						C-2.2,115.7-4.6,115.3-6.9,115.3"/>
				</g>
				<g id="g1068" transform="translate(1209.0212,611.4037)">
					<path id="path1070" inkscape:connector-curvature="0" class="st2" d="M-6.4,125.5v6.4c0,2.1-1.1,2.9-3,2.9
						c-1.4,0-3.2-0.4-4.7-0.7v-8.5h-3.2V137h2.6l0.1-0.7c2,0.5,4.3,1,6.2,1c1.4,0,2.9-0.2,4-1.2c0.9-0.8,1.3-2,1.3-3.6v-7.1H-6.4z"
						/>
				</g>
				<g id="g1072" transform="translate(1221.3933,611.0844)">
					<path id="path1074" inkscape:connector-curvature="0" class="st2" d="M-6.4,125.5c-1.6,0-3,0.4-3.7,1.6
						c-0.6,0.8-0.8,1.9-0.8,3.5v4.3h-2.3v2.4h2.3l0.3,3.5h2.9v-3.5h4.5v-2.4h-4.5v-3.7c0-0.9,0.1-1.6,0.3-2.2
						c0.3-0.8,1.1-1.1,2.1-1.1c0.8,0,1.7,0.1,2.3,0.2v-2.3C-4.1,125.7-5.4,125.5-6.4,125.5"/>
				</g>
				<g id="g1076" transform="translate(1227.6902,611.4037)">
					<path id="path1078" inkscape:connector-curvature="0" class="st2" d="M-6.4,125.5V137h2.6l0.1-0.7c2.1,0.6,3.7,1,5.7,1
						c0.1,0,0.2,0,0.4,0v-2.7c-0.4,0-0.8,0-1.1,0c-1.6,0-2.8-0.2-4.5-0.6v-8.5H-6.4z"/>
				</g>
				<g id="g1080" transform="translate(1248.2717,616.2485)">
					<path id="path1082" inkscape:connector-curvature="0" class="st2" d="M-6.4,125.5c-1.3,0.1-2.7,0.2-4.2,0.2
						c-2.4,0-3.2-0.5-3.2-1.6c0-1,0.7-1.6,2.5-1.6c1.5,0,3.3,0.3,4.8,0.7L-6.4,125.5z M-5.7,120.6l-0.1,0.7c-2-0.5-4.3-1-6.3-1
						c-1.2,0-2.6,0.2-3.5,0.8c-0.9,0.6-1.3,1.6-1.3,2.8c0,1.3,0.6,2.5,1.9,3.1c1.2,0.6,2.8,0.6,4.3,0.6c1.2,0,2.8-0.1,4.2-0.2v0.2
						c0,1.8-1.2,2.4-4.4,2.4c-1.3,0-2.8-0.1-4.3-0.2v2.3c1.6,0.1,3.5,0.2,5,0.2c2,0,4.1-0.2,5.4-1.1c1.3-0.9,1.6-2.2,1.6-4v-6.8
						L-5.7,120.6z"/>
				</g>
				<path id="path1084" inkscape:connector-curvature="0" class="st2" d="M1249.2,753.3h3.2v-16.4h-3.2V753.3z"/>
			</g>
		</g>
	</g>
</g>
</svg>
